<svg xmlns="http://www.w3.org/2000/svg" viewBox="0 0 573.33 250.11"><defs><style>.cls-1{fill:#ededed;}.cls-2{fill:#6fa2d9;}.cls-3{fill:#fff;}</style></defs><title>chart-bar</title><g id="圖層_2" data-name="圖層 2"><g id="_" data-name="="><rect class="cls-1" width="496.99" height="34.5" rx="17.25" ry="17.25"/><rect class="cls-1" y="43.12" width="496.99" height="34.5" rx="17.25" ry="17.25"/><rect class="cls-1" y="86.24" width="496.99" height="34.5" rx="17.25" ry="17.25"/><rect class="cls-1" y="129.36" width="496.99" height="34.5" rx="17.25" ry="17.25"/><rect class="cls-1" y="172.49" width="496.99" height="34.5" rx="17.25" ry="17.25"/><rect class="cls-1" y="215.61" width="496.99" height="34.5" rx="17.25" ry="17.25"/><rect class="cls-2" x="264.64" width="304" height="34.5" rx="17.25" ry="17.25"/><rect class="cls-2" x="300.68" y="43.12" width="272.65" height="34.5" rx="17.25" ry="17.25"/><rect class="cls-2" x="454.41" y="215.61" width="118.93" height="34.5" rx="17.25" ry="17.25"/><rect class="cls-2" x="416.64" y="172.49" width="156.69" height="34.5" rx="17.25" ry="17.25"/><rect class="cls-2" x="385.44" y="129.36" width="187.89" height="34.5" rx="17.25" ry="17.25"/><rect class="cls-2" x="352.68" y="86.24" width="220.65" height="34.5" rx="17.25" ry="17.25"/><path class="cls-3" d="M511.3,235.93a7.63,7.63,0,0,1-.56,2.92,6.77,6.77,0,0,1-1.52,2.34,7.13,7.13,0,0,1-2.51,1.57,9.47,9.47,0,0,1-3.38.55,15.5,15.5,0,0,1-3.44-.37,14.43,14.43,0,0,1-2.8-.9V239h.21a12.37,12.37,0,0,0,2.81,1.29,9.9,9.9,0,0,0,3.16.54,7.15,7.15,0,0,0,2-.29,4.21,4.21,0,0,0,1.73-1,4.07,4.07,0,0,0,1-1.51,5.72,5.72,0,0,0,.33-2,4.22,4.22,0,0,0-.39-1.91,3.18,3.18,0,0,0-1.08-1.24A4.65,4.65,0,0,0,505,232a12.15,12.15,0,0,0-2.44-.22,16.56,16.56,0,0,0-2.48.17c-.8.12-1.48.24-2.06.35V221.05h13.13v2.56h-10.3v5.8q.63-.06,1.29-.09l1.14,0a14.16,14.16,0,0,1,3.1.3,7.18,7.18,0,0,1,2.45,1.07,5.46,5.46,0,0,1,1.82,2.08A7,7,0,0,1,511.3,235.93Z"/><path class="cls-3" d="M518.23,242.86H515.9v-2.78h2.33Z"/><path class="cls-3" d="M532.1,235.58q0,3.91-1.23,5.75a4.87,4.87,0,0,1-7.63,0,10.72,10.72,0,0,1-1.2-5.71,10.6,10.6,0,0,1,1.22-5.72,4.84,4.84,0,0,1,7.63,0A10.64,10.64,0,0,1,532.1,235.58ZM529.53,240a6.5,6.5,0,0,0,.46-1.86,25.57,25.57,0,0,0,0-5.15,6.16,6.16,0,0,0-.47-1.86,2.58,2.58,0,0,0-.93-1.13,3.23,3.23,0,0,0-3,0,2.55,2.55,0,0,0-.95,1.15,6.37,6.37,0,0,0-.46,1.88,25.09,25.09,0,0,0-.12,2.55,25.44,25.44,0,0,0,.11,2.55,6,6,0,0,0,.46,1.84,2.55,2.55,0,0,0,.91,1.16,2.75,2.75,0,0,0,1.57.4,2.83,2.83,0,0,0,1.52-.38A2.41,2.41,0,0,0,529.53,240Z"/><path class="cls-3" d="M538.6,236.55a2.94,2.94,0,0,1-.56,2,2,2,0,0,1-1.59.63,2,2,0,0,1-1.62-.63,3,3,0,0,1-.54-1.95,2.86,2.86,0,0,1,.56-1.95,2.32,2.32,0,0,1,3.2,0A3,3,0,0,1,538.6,236.55Zm-1.05,0a2.63,2.63,0,0,0-.26-1.4.91.91,0,0,0-.84-.4.94.94,0,0,0-.86.4,4,4,0,0,0,0,2.82,1,1,0,0,0,.86.39.93.93,0,0,0,.84-.39A2.69,2.69,0,0,0,537.55,236.55Zm5.09-2.42-4.57,8.73h-1l4.57-8.73Zm2.82,6.31a2.93,2.93,0,0,1-.56,1.95,2,2,0,0,1-1.6.64,2,2,0,0,1-1.6-.65,2.9,2.9,0,0,1-.55-1.94,2.93,2.93,0,0,1,.55-1.95,2.36,2.36,0,0,1,3.21,0A2.93,2.93,0,0,1,545.46,240.44Zm-1.05,0a2.7,2.7,0,0,0-.26-1.41.93.93,0,0,0-.84-.4,1,1,0,0,0-.86.4,2.8,2.8,0,0,0-.26,1.41,2.75,2.75,0,0,0,.26,1.41.94.94,0,0,0,.86.4.91.91,0,0,0,.84-.4A2.65,2.65,0,0,0,544.41,240.44Z"/><path class="cls-3" d="M511.3,193.07a7.58,7.58,0,0,1-.56,2.91,6.72,6.72,0,0,1-1.52,2.35,7.13,7.13,0,0,1-2.51,1.57,9.47,9.47,0,0,1-3.38.55,15.5,15.5,0,0,1-3.44-.37,14.43,14.43,0,0,1-2.8-.9v-3.09h.21a12.82,12.82,0,0,0,2.81,1.29,9.9,9.9,0,0,0,3.16.54,6.81,6.81,0,0,0,2-.3,4.16,4.16,0,0,0,2.71-2.53,5.78,5.78,0,0,0,.33-2,4.21,4.21,0,0,0-.39-1.9,3.28,3.28,0,0,0-1.08-1.25,4.65,4.65,0,0,0-1.85-.78,12.12,12.12,0,0,0-2.44-.23,16.54,16.54,0,0,0-2.48.18c-.8.12-1.48.23-2.06.35V178.19h13.13v2.56h-10.3v5.8q.63-.06,1.29-.09l1.14,0a14.16,14.16,0,0,1,3.1.3,7,7,0,0,1,2.45,1.07,5.46,5.46,0,0,1,1.82,2.08A7,7,0,0,1,511.3,193.07Z"/><path class="cls-3" d="M518.23,200H515.9v-2.79h2.33Z"/><path class="cls-3" d="M532,195.38a5.11,5.11,0,0,1-.37,1.94,4.5,4.5,0,0,1-1,1.56,4.65,4.65,0,0,1-1.67,1.05,6.24,6.24,0,0,1-2.25.37,10.2,10.2,0,0,1-2.3-.25,8.66,8.66,0,0,1-1.86-.6v-2.06h.13a8.16,8.16,0,0,0,1.88.86,6.64,6.64,0,0,0,2.11.36,4.62,4.62,0,0,0,1.34-.19,2.83,2.83,0,0,0,1.16-.69,2.71,2.71,0,0,0,.65-1,4,4,0,0,0,.22-1.36,2.84,2.84,0,0,0-.26-1.27,2.07,2.07,0,0,0-.72-.83,3.12,3.12,0,0,0-1.23-.52,8.15,8.15,0,0,0-1.63-.15,11.29,11.29,0,0,0-1.66.11c-.53.08-1,.16-1.37.24v-7.49h8.75v1.71H525V191l.86-.06.76,0a9.68,9.68,0,0,1,2.07.2,4.76,4.76,0,0,1,1.63.71,3.69,3.69,0,0,1,1.21,1.39A4.67,4.67,0,0,1,532,195.38Z"/><path class="cls-3" d="M538.6,193.69a2.89,2.89,0,0,1-.56,1.95,2,2,0,0,1-1.59.64,2,2,0,0,1-1.62-.64,2.94,2.94,0,0,1-.54-1.94,2.84,2.84,0,0,1,.56-1.95,2.32,2.32,0,0,1,3.2,0A3,3,0,0,1,538.6,193.69Zm-1.05,0a2.63,2.63,0,0,0-.26-1.4.91.91,0,0,0-.84-.4.94.94,0,0,0-.86.4,2.75,2.75,0,0,0-.26,1.41,2.8,2.8,0,0,0,.26,1.41,1,1,0,0,0,.86.39.93.93,0,0,0,.84-.39A2.72,2.72,0,0,0,537.55,193.69Zm5.09-2.42L538.07,200h-1l4.57-8.73Zm2.82,6.31a2.93,2.93,0,0,1-.56,1.95,2,2,0,0,1-1.6.64,2,2,0,0,1-1.6-.65,2.9,2.9,0,0,1-.55-1.94,2.93,2.93,0,0,1,.55-2,2,2,0,0,1,1.6-.64,2,2,0,0,1,1.61.64A2.93,2.93,0,0,1,545.46,197.58Zm-1.05,0a2.7,2.7,0,0,0-.26-1.41.93.93,0,0,0-.84-.4,1,1,0,0,0-.86.4,2.8,2.8,0,0,0-.26,1.41,2.75,2.75,0,0,0,.26,1.41.94.94,0,0,0,.86.4.91.91,0,0,0,.84-.4A2.65,2.65,0,0,0,544.41,197.58Z"/><path class="cls-3" d="M511.8,150.06a7.19,7.19,0,0,1-2.19,5.43,7.46,7.46,0,0,1-5.37,2.1,8.3,8.3,0,0,1-2.93-.5,6.66,6.66,0,0,1-2.33-1.48,7.85,7.85,0,0,1-1.94-3.22,15.24,15.24,0,0,1-.68-4.83,19.54,19.54,0,0,1,.62-5.15,11.37,11.37,0,0,1,2-4,8.82,8.82,0,0,1,3.32-2.59,11.34,11.34,0,0,1,4.75-.93,11.54,11.54,0,0,1,1.45.08,6.52,6.52,0,0,1,1.19.26v2.8h-.15a5.16,5.16,0,0,0-1.24-.42,7.3,7.3,0,0,0-1.69-.2,6.61,6.61,0,0,0-5,2,8.66,8.66,0,0,0-2.19,5.33,11.53,11.53,0,0,1,2.43-1.14,9.16,9.16,0,0,1,2.76-.38,10.56,10.56,0,0,1,2.45.25,6.71,6.71,0,0,1,2.18,1,5.78,5.78,0,0,1,1.94,2.26A7.69,7.69,0,0,1,511.8,150.06Zm-3,.12a5.5,5.5,0,0,0-.41-2.26,3.94,3.94,0,0,0-1.32-1.55,3.82,3.82,0,0,0-1.5-.62,10.39,10.39,0,0,0-1.71-.14,8.91,8.91,0,0,0-2.31.29,10.37,10.37,0,0,0-2.2.91c0,.21,0,.42-.05.62s0,.45,0,.76a11.46,11.46,0,0,0,.47,3.65,5.27,5.27,0,0,0,1.32,2.12,4.35,4.35,0,0,0,1.45.94,4.8,4.8,0,0,0,1.71.3,4.36,4.36,0,0,0,3.34-1.29A5.27,5.27,0,0,0,508.83,150.18Z"/><path class="cls-3" d="M518.23,157.14H515.9v-2.79h2.33Z"/><path class="cls-3" d="M532.1,149.86q0,3.91-1.23,5.75a4.87,4.87,0,0,1-7.63,0,14.1,14.1,0,0,1,0-11.43,4.83,4.83,0,0,1,7.63,0A10.64,10.64,0,0,1,532.1,149.86Zm-2.57,4.43a6.33,6.33,0,0,0,.46-1.86,23.2,23.2,0,0,0,.13-2.57,23.81,23.81,0,0,0-.13-2.58,6.09,6.09,0,0,0-.47-1.85,2.66,2.66,0,0,0-.93-1.14,3.23,3.23,0,0,0-3,0,2.58,2.58,0,0,0-.95,1.16,6.08,6.08,0,0,0-.46,1.88,25.09,25.09,0,0,0-.12,2.55,25.44,25.44,0,0,0,.11,2.55,6.13,6.13,0,0,0,.46,1.84,2.61,2.61,0,0,0,.91,1.16,3.26,3.26,0,0,0,3.09,0A2.5,2.5,0,0,0,529.53,154.29Z"/><path class="cls-3" d="M538.6,150.83a2.89,2.89,0,0,1-.56,1.95,2,2,0,0,1-1.59.64,2,2,0,0,1-1.62-.64,2.94,2.94,0,0,1-.54-1.94,2.84,2.84,0,0,1,.56-2,2.32,2.32,0,0,1,3.2,0A3,3,0,0,1,538.6,150.83Zm-1.05,0a2.63,2.63,0,0,0-.26-1.4.91.91,0,0,0-.84-.4.94.94,0,0,0-.86.4,2.75,2.75,0,0,0-.26,1.41,2.8,2.8,0,0,0,.26,1.41,1,1,0,0,0,.86.39.93.93,0,0,0,.84-.39A2.72,2.72,0,0,0,537.55,150.83Zm5.09-2.42-4.57,8.73h-1l4.57-8.73Zm2.82,6.31a2.93,2.93,0,0,1-.56,1.95,2,2,0,0,1-1.6.64,2,2,0,0,1-1.6-.65,2.9,2.9,0,0,1-.55-1.94,2.93,2.93,0,0,1,.55-1.95,2,2,0,0,1,1.6-.64,2,2,0,0,1,1.61.64A2.93,2.93,0,0,1,545.46,154.72Zm-1.05,0a2.67,2.67,0,0,0-.26-1.41.91.91,0,0,0-.84-.4.94.94,0,0,0-.86.4,2.8,2.8,0,0,0-.26,1.41,2.75,2.75,0,0,0,.26,1.41.94.94,0,0,0,.86.4.91.91,0,0,0,.84-.4A2.65,2.65,0,0,0,544.41,154.72Z"/><path class="cls-3" d="M511.54,95.73l-9.88,18.54h-3.13L509,95H496.61V92.46h14.93Z"/><path class="cls-3" d="M518.23,114.27H515.9v-2.78h2.33Z"/><path class="cls-3" d="M532.22,110.22a3.93,3.93,0,0,1-1.47,3.14,5.5,5.5,0,0,1-3.69,1.25,5.57,5.57,0,0,1-3.77-1.22,4,4,0,0,1-1.4-3.13,3.65,3.65,0,0,1,.71-2.19,4.75,4.75,0,0,1,2-1.56v-.06a5.27,5.27,0,0,1-1.74-1.36,3,3,0,0,1-.56-1.86,3.37,3.37,0,0,1,1.35-2.73,5.27,5.27,0,0,1,3.43-1.1,5.34,5.34,0,0,1,3.47,1,3.24,3.24,0,0,1,1.3,2.65,3.52,3.52,0,0,1-.61,1.94,4,4,0,0,1-1.81,1.49v.06A5.52,5.52,0,0,1,531.5,108,3.32,3.32,0,0,1,532.22,110.22Zm-2,.19a2.41,2.41,0,0,0-.39-1.44,4.11,4.11,0,0,0-1.55-1.09,7.87,7.87,0,0,0-1-.4l-1.45-.52a3.76,3.76,0,0,0-1.41,1.3,3.28,3.28,0,0,0-.53,1.85,2.88,2.88,0,0,0,.9,2.18,3.25,3.25,0,0,0,2.31.86,3.38,3.38,0,0,0,2.28-.73A2.51,2.51,0,0,0,530.21,110.41Zm-.3-7.29a2,2,0,0,0-.81-1.66,3.21,3.21,0,0,0-2.05-.62,3.31,3.31,0,0,0-2,.58,1.88,1.88,0,0,0-.78,1.59,2,2,0,0,0,.39,1.21,3.35,3.35,0,0,0,1.2.91c.24.12.59.27,1,.46a11.05,11.05,0,0,0,1.32.47,3.87,3.87,0,0,0,1.34-1.34A3.29,3.29,0,0,0,529.91,103.12Z"/><path class="cls-3" d="M538.6,108a2.91,2.91,0,0,1-.56,2,2,2,0,0,1-1.59.64,2,2,0,0,1-1.62-.64,2.94,2.94,0,0,1-.54-1.94,2.89,2.89,0,0,1,.56-2,2,2,0,0,1,1.6-.63,2,2,0,0,1,1.6.64A3,3,0,0,1,538.6,108Zm-1.05,0a2.7,2.7,0,0,0-.26-1.41.93.93,0,0,0-.84-.39,1,1,0,0,0-.86.39,2.82,2.82,0,0,0-.26,1.42,2.73,2.73,0,0,0,.26,1.4.94.94,0,0,0,.86.4.91.91,0,0,0,.84-.4A2.65,2.65,0,0,0,537.55,108Zm5.09-2.42-4.57,8.72h-1l4.57-8.72Zm2.82,6.3a2.94,2.94,0,0,1-.56,2,2,2,0,0,1-1.6.63,2,2,0,0,1-1.6-.64,3.71,3.71,0,0,1,0-3.89,2.33,2.33,0,0,1,3.21,0A2.9,2.9,0,0,1,545.46,111.85Zm-1.05,0a2.63,2.63,0,0,0-.26-1.4.91.91,0,0,0-.84-.4.94.94,0,0,0-.86.4,4,4,0,0,0,0,2.82,1,1,0,0,0,.86.4.93.93,0,0,0,.84-.4A2.69,2.69,0,0,0,544.41,111.85Z"/><path class="cls-3" d="M491.16,71.41H479.35V69.19h4.55V54.57h-4.55v-2a14,14,0,0,0,2-.15,4.84,4.84,0,0,0,1.6-.45,2.7,2.7,0,0,0,1.51-2.44h2.27V69.19h4.45Z"/><path class="cls-3" d="M511.3,64.48a7.63,7.63,0,0,1-.56,2.92,6.59,6.59,0,0,1-1.52,2.34,7.15,7.15,0,0,1-2.51,1.58,9.7,9.7,0,0,1-3.38.55,15.5,15.5,0,0,1-3.44-.38,14.43,14.43,0,0,1-2.8-.9V67.5h.21a12.83,12.83,0,0,0,2.81,1.3,10.17,10.17,0,0,0,3.16.53,7.15,7.15,0,0,0,2-.29A4.21,4.21,0,0,0,507,68a4.11,4.11,0,0,0,1-1.5,5.82,5.82,0,0,0,.33-2,4.18,4.18,0,0,0-.39-1.9,3.21,3.21,0,0,0-1.08-1.25,4.65,4.65,0,0,0-1.85-.78,11.43,11.43,0,0,0-2.44-.23,18,18,0,0,0-2.48.17c-.8.12-1.48.24-2.06.36V49.6h13.13v2.56h-10.3V58q.63-.06,1.29-.09l1.14,0a14.32,14.32,0,0,1,3.11.3,7,7,0,0,1,2.44,1.06,5.53,5.53,0,0,1,1.82,2.08A7,7,0,0,1,511.3,64.48Z"/><path class="cls-3" d="M518.23,71.41H515.9V68.63h2.33Z"/><path class="cls-3" d="M532.33,66.7a4.76,4.76,0,0,1-1.46,3.61,4.94,4.94,0,0,1-3.58,1.41,5.54,5.54,0,0,1-1.95-.34,4.49,4.49,0,0,1-1.55-1,5.39,5.39,0,0,1-1.3-2.15A10.17,10.17,0,0,1,522,65a13.11,13.11,0,0,1,.41-3.43,7.56,7.56,0,0,1,1.33-2.66A5.83,5.83,0,0,1,526,57.22a7.47,7.47,0,0,1,3.17-.62,6.77,6.77,0,0,1,1,0,4.66,4.66,0,0,1,.79.17v1.87h-.1a3.57,3.57,0,0,0-.83-.28,4.64,4.64,0,0,0-1.12-.13,4.42,4.42,0,0,0-3.35,1.31,5.73,5.73,0,0,0-1.46,3.55,8.4,8.4,0,0,1,1.62-.76,6,6,0,0,1,1.84-.25,6.64,6.64,0,0,1,1.63.17,4.22,4.22,0,0,1,1.45.68,3.78,3.78,0,0,1,1.3,1.51A5.06,5.06,0,0,1,532.33,66.7Zm-2,.07a3.66,3.66,0,0,0-.27-1.5,2.62,2.62,0,0,0-.88-1,2.68,2.68,0,0,0-1-.41,6.93,6.93,0,0,0-1.14-.09,5.8,5.8,0,0,0-1.54.19,6.47,6.47,0,0,0-1.47.61l0,.41c0,.14,0,.3,0,.51a7.51,7.51,0,0,0,.32,2.43,3.39,3.39,0,0,0,.87,1.41,2.88,2.88,0,0,0,1,.63,3,3,0,0,0,1.14.2,2.89,2.89,0,0,0,2.23-.86A3.52,3.52,0,0,0,530.35,66.77Z"/><path class="cls-3" d="M538.6,65.11a2.93,2.93,0,0,1-.56,2,2,2,0,0,1-1.59.64,2,2,0,0,1-1.62-.64,3,3,0,0,1-.54-2,2.93,2.93,0,0,1,.56-2,2,2,0,0,1,1.6-.64,2,2,0,0,1,1.6.65A3,3,0,0,1,538.6,65.11Zm-1.05,0a2.7,2.7,0,0,0-.26-1.41.93.93,0,0,0-.84-.4,1,1,0,0,0-.86.4,2.8,2.8,0,0,0-.26,1.41,2.75,2.75,0,0,0,.26,1.41.94.94,0,0,0,.86.4.91.91,0,0,0,.84-.4A2.65,2.65,0,0,0,537.55,65.11Zm5.1-2.42-4.57,8.72h-1l4.57-8.72Zm2.81,6.3a2.89,2.89,0,0,1-.56,2,2,2,0,0,1-1.6.64,2,2,0,0,1-1.6-.64,3.71,3.71,0,0,1,0-3.89,2.33,2.33,0,0,1,3.21,0A2.88,2.88,0,0,1,545.46,69Zm-1.05,0a2.63,2.63,0,0,0-.26-1.4.91.91,0,0,0-.84-.4.94.94,0,0,0-.86.4,2.75,2.75,0,0,0-.26,1.41,2.8,2.8,0,0,0,.26,1.41,1,1,0,0,0,.86.39.93.93,0,0,0,.84-.39A2.72,2.72,0,0,0,544.41,69Z"/><path class="cls-3" d="M491.16,28.55H479.35V26.32h4.54V11.71h-4.54v-2a14,14,0,0,0,2-.15,4.84,4.84,0,0,0,1.6-.45A2.92,2.92,0,0,0,484,8.18a2.93,2.93,0,0,0,.45-1.51h2.27V26.32h4.45Z"/><path class="cls-3" d="M511.54,10l-9.88,18.54h-3.13L509,9.3H496.61V6.74h14.93Z"/><path class="cls-3" d="M518.23,28.55H515.9V25.77h2.33Z"/><path class="cls-3" d="M532.45,24.46h-2.16v4.09h-1.87V24.46h-7V22.21l7-8.2h1.8V22.9h2.16Zm-4-1.56V16.33l-5.64,6.57Z"/><path class="cls-3" d="M538.6,22.25A2.93,2.93,0,0,1,538,24.2a2,2,0,0,1-1.59.64,2,2,0,0,1-1.62-.64,3,3,0,0,1-.54-1.95,2.87,2.87,0,0,1,.56-1.95,2,2,0,0,1,1.6-.64,2,2,0,0,1,1.6.65A3,3,0,0,1,538.6,22.25Zm-1.05,0a2.67,2.67,0,0,0-.26-1.41.91.91,0,0,0-.84-.4.94.94,0,0,0-.86.4,2.8,2.8,0,0,0-.26,1.41,2.75,2.75,0,0,0,.26,1.41.94.94,0,0,0,.86.4.91.91,0,0,0,.84-.4A2.65,2.65,0,0,0,537.55,22.25Zm5.09-2.42-4.57,8.72h-1l4.57-8.72Zm2.82,6.3a2.89,2.89,0,0,1-.56,1.95,2,2,0,0,1-1.6.64,2,2,0,0,1-1.6-.64,2.92,2.92,0,0,1-.55-1.94,2.89,2.89,0,0,1,.55-1.95,2.33,2.33,0,0,1,3.21,0A2.88,2.88,0,0,1,545.46,26.13Zm-1.05,0a2.63,2.63,0,0,0-.26-1.4.91.91,0,0,0-.84-.4.94.94,0,0,0-.86.4,2.75,2.75,0,0,0-.26,1.41,2.8,2.8,0,0,0,.26,1.41,1,1,0,0,0,.86.39.93.93,0,0,0,.84-.39A2.72,2.72,0,0,0,544.41,26.13Z"/><path d="M34.94,238.86h-6v-12.1h1.29v10.88h4.76Z"/><path d="M36.41,227.11a.86.86,0,0,1,.24-.62.77.77,0,0,1,.58-.26.83.83,0,0,1,.61.26.88.88,0,0,1,.24.62.85.85,0,0,1-.24.6.83.83,0,0,1-.61.26.76.76,0,0,1-.59-.25A.89.89,0,0,1,36.41,227.11Zm.18,11.75v-8.64h1.26v8.64Z"/><path d="M47.53,238.86H46.26v-4.94c0-1.86-.67-2.8-2-2.8a2.14,2.14,0,0,0-1.72.81,3,3,0,0,0-.66,2v4.93H40.62v-8.64h1.27v1.44h0A3,3,0,0,1,44.68,230a2.55,2.55,0,0,1,2.12.91,4.2,4.2,0,0,1,.73,2.65Z"/><path d="M56.82,238.86H55.55v-1.37h0a2.74,2.74,0,0,1-2.59,1.57c-2,0-3-1.22-3-3.68v-5.16h1.25v4.94q0,2.79,2.07,2.79a2.07,2.07,0,0,0,1.66-.77,3,3,0,0,0,.65-2v-5h1.27Z"/><path d="M65.58,230.22l-2.82,4.39,2.78,4.25H64.05L62.38,236c-.12-.19-.24-.41-.37-.65h0l-.38.65-1.72,2.84H58.41l2.88-4.23-2.76-4.41H60l2,3.65h0l.16-.28,2-3.37Z"/><path d="M76.32,226.76l-5.65,14.11H69.49l5.63-14.11Z"/><path d="M90.41,238.86H89.12V233.3H82.94v5.56H81.65v-12.1h1.29v5.34h6.18v-5.34h1.29Z"/><path d="M93.54,230.84a5,5,0,0,1,2.84-.82q2.93,0,2.93,3.19v5.65H98V237.5H98a3,3,0,0,1-4.55.88,2.39,2.39,0,0,1-.72-1.81c0-1.6.92-2.53,2.77-2.8l2.54-.38c0-1.5-.58-2.25-1.75-2.25a4,4,0,0,0-2.74,1.07ZM96,234.76a2.81,2.81,0,0,0-1.5.53,1.55,1.55,0,0,0-.42,1.19,1.35,1.35,0,0,0,.45,1.06,1.69,1.69,0,0,0,1.18.4,2.16,2.16,0,0,0,1.68-.74,2.63,2.63,0,0,0,.67-1.85v-.87Z"/><path d="M109,238.86h-1.26v-1.49h0a3.35,3.35,0,0,1-5.45.52,4.83,4.83,0,0,1-.94-3.15,5.22,5.22,0,0,1,1.06-3.42,3.4,3.4,0,0,1,2.79-1.3,2.73,2.73,0,0,1,2.54,1.41h0v-5.36H109Zm-1.26-5.2a2.51,2.51,0,0,0-.71-1.8,2.28,2.28,0,0,0-1.72-.74,2.34,2.34,0,0,0-2,1,4.21,4.21,0,0,0-.72,2.59,3.81,3.81,0,0,0,.69,2.39,2.23,2.23,0,0,0,1.85.89,2.34,2.34,0,0,0,1.85-.84,3.13,3.13,0,0,0,.74-2.14Z"/><path d="M111.17,234.65a4.8,4.8,0,0,1,1.15-3.4,4,4,0,0,1,3.11-1.23,3.66,3.66,0,0,1,2.91,1.19,4.85,4.85,0,0,1,1,3.31,4.69,4.69,0,0,1-1.14,3.29,4.24,4.24,0,0,1-6,.05A4.5,4.5,0,0,1,111.17,234.65Zm1.29-.06a3.66,3.66,0,0,0,.78,2.45,2.6,2.6,0,0,0,2.08.91,2.48,2.48,0,0,0,2.05-.89,3.8,3.8,0,0,0,.73-2.5,4,4,0,0,0-.72-2.54,2.48,2.48,0,0,0-2.06-.9,2.57,2.57,0,0,0-2.08.93A3.84,3.84,0,0,0,112.46,234.59Z"/><path d="M121,234.65a4.84,4.84,0,0,1,1.14-3.4,4,4,0,0,1,3.11-1.23,3.66,3.66,0,0,1,2.91,1.19,4.8,4.8,0,0,1,1.06,3.31,4.69,4.69,0,0,1-1.14,3.29,4.24,4.24,0,0,1-6,.05A4.5,4.5,0,0,1,121,234.65Zm1.29-.06a3.66,3.66,0,0,0,.78,2.45,2.59,2.59,0,0,0,2.08.91,2.49,2.49,0,0,0,2-.89,3.86,3.86,0,0,0,.72-2.5,4,4,0,0,0-.72-2.54,2.46,2.46,0,0,0-2-.9,2.59,2.59,0,0,0-2.09.93A3.89,3.89,0,0,0,122.29,234.59Z"/><path d="M132.66,237.59v5.25h-1.27V230.22h1.27v1.53h0a3.15,3.15,0,0,1,2.91-1.73,3.05,3.05,0,0,1,2.53,1.15,4.83,4.83,0,0,1,.93,3.12,5.35,5.35,0,0,1-1,3.46,3.36,3.36,0,0,1-2.81,1.31,2.79,2.79,0,0,1-2.52-1.47Zm0-2.23a2.6,2.6,0,0,0,.71,1.84,2.41,2.41,0,0,0,3.69-.23,4.6,4.6,0,0,0,.71-2.72,3.53,3.53,0,0,0-.67-2.29,2.15,2.15,0,0,0-1.78-.84,2.47,2.47,0,0,0-1.91.84,3.11,3.11,0,0,0-.75,2.15Z"/><path d="M154.3,227.61H142.81v4.61a21,21,0,0,1-1.24,7.54l-.66-.58a19.91,19.91,0,0,0,1.12-7v-5.37h5.83c-.21-.34-.42-.69-.63-1l.81-.2a6.11,6.11,0,0,1,.7,1.22h5.56Zm-8.85,8.61a11.51,11.51,0,0,1-1.83,3.07l-.61-.54a9.57,9.57,0,0,0,1.7-2.87Zm.88-8.05a10.3,10.3,0,0,1-1,2.16v5h-.77v-3.87a11.19,11.19,0,0,1-1,1.15l-.52-.63a11.15,11.15,0,0,0,2.53-4.11Zm7.8,7h-6.91v-4c-.26.34-.62.77-1.07,1.29l-.46-.68a14.36,14.36,0,0,0,2.58-3.9l.69.27a9.14,9.14,0,0,1-.55,1.15h2.34a6.7,6.7,0,0,0-.59-1.09l.76-.22a6,6,0,0,1,.68,1.31h2.48v.74h-2.86V231h2.64v.75h-2.64v1h2.64v.74h-2.64v1h2.91Zm-2,2.43a3.2,3.2,0,0,1-.28,1.24,1.1,1.1,0,0,1-.68.55,11.05,11.05,0,0,1-2.29.14,7.86,7.86,0,0,1-1.64-.1.91.91,0,0,1-.56-.39,1.6,1.6,0,0,1-.2-.87v-2.31h.79v2.35c0,.26.07.41.21.47a8.25,8.25,0,0,0,1.58.08,10.8,10.8,0,0,0,1.73-.07.63.63,0,0,0,.41-.34,2.43,2.43,0,0,0,.14-1.05ZM150.46,231v-.92H148V231Zm0,1.75v-1H148v1Zm0,1.73v-1H148v1Zm-.16,2.86-.68.45a10.14,10.14,0,0,0-1.36-1.65l.69-.46A10.56,10.56,0,0,1,150.31,237.32Zm4.22,1.41-.67.42a15.55,15.55,0,0,0-1.88-2.84l.68-.43A15.88,15.88,0,0,1,154.53,238.73Z"/><path d="M169.33,238.52a1,1,0,0,1-.45.91,5,5,0,0,1-2,.26l-.69,0-.25-.87c.39,0,.76,0,1.13,0a4.75,4.75,0,0,0,1.29-.09.32.32,0,0,0,.18-.31v-3.85h-4.4v4.68h-.85v-4.68h-4.44a10.76,10.76,0,0,1-1.6,5l-.73-.52a10.22,10.22,0,0,0,1.57-5.76V226h11.28Zm-6.08-8.75v-2.91H158.9v2.91Zm0,4v-3.11H158.9v3.11Zm5.25-4v-2.91h-4.4v2.91Zm0,4v-3.11h-4.4v3.11Z"/><path d="M174.69,241.61a11,11,0,0,1-2.54-7.37,11.37,11.37,0,0,1,2.54-7.48h1.16a11.53,11.53,0,0,0-2.59,7.47,11.34,11.34,0,0,0,2.57,7.38Z"/><path d="M186.33,238.86H185V233.3h-6.17v5.56h-1.29v-12.1h1.29v5.34H185v-5.34h1.3Z"/><path d="M189.46,230.84a5,5,0,0,1,2.84-.82q2.92,0,2.92,3.19v5.65H194V237.5h0a2.8,2.8,0,0,1-2.59,1.56,2.75,2.75,0,0,1-2-.68,2.39,2.39,0,0,1-.72-1.81c0-1.6.92-2.53,2.77-2.8l2.54-.38c0-1.5-.59-2.25-1.75-2.25a4,4,0,0,0-2.74,1.07Zm2.43,3.92a2.85,2.85,0,0,0-1.51.53,1.55,1.55,0,0,0-.42,1.19,1.35,1.35,0,0,0,.45,1.06,1.73,1.73,0,0,0,1.19.4,2.16,2.16,0,0,0,1.68-.74,2.68,2.68,0,0,0,.67-1.85v-.87Z"/><path d="M204.9,238.86h-1.27v-1.49h0a3.34,3.34,0,0,1-5.44.52,4.83,4.83,0,0,1-.94-3.15,5.27,5.27,0,0,1,1.05-3.42,3.42,3.42,0,0,1,2.79-1.3,2.7,2.7,0,0,1,2.54,1.41h0v-5.36h1.27Zm-1.27-5.2a2.5,2.5,0,0,0-.7-1.8,2.29,2.29,0,0,0-1.72-.74,2.34,2.34,0,0,0-2,1,4.21,4.21,0,0,0-.72,2.59,3.81,3.81,0,0,0,.69,2.39,2.22,2.22,0,0,0,1.85.89,2.36,2.36,0,0,0,1.85-.84,3.12,3.12,0,0,0,.73-2.14Z"/><path d="M207.09,234.65a4.84,4.84,0,0,1,1.14-3.4,4,4,0,0,1,3.11-1.23,3.66,3.66,0,0,1,2.91,1.19,4.8,4.8,0,0,1,1.06,3.31,4.69,4.69,0,0,1-1.14,3.29,4.24,4.24,0,0,1-6,.05A4.5,4.5,0,0,1,207.09,234.65Zm1.29-.06a3.66,3.66,0,0,0,.78,2.45,2.59,2.59,0,0,0,2.08.91,2.49,2.49,0,0,0,2-.89,3.86,3.86,0,0,0,.72-2.5,4,4,0,0,0-.71-2.54,2.49,2.49,0,0,0-2.06-.9,2.56,2.56,0,0,0-2.08.93A3.84,3.84,0,0,0,208.38,234.59Z"/><path d="M216.91,234.65a4.8,4.8,0,0,1,1.15-3.4,4,4,0,0,1,3.11-1.23,3.66,3.66,0,0,1,2.91,1.19,4.85,4.85,0,0,1,1,3.31,4.69,4.69,0,0,1-1.14,3.29,4.24,4.24,0,0,1-6,.05A4.5,4.5,0,0,1,216.91,234.65Zm1.29-.06A3.66,3.66,0,0,0,219,237a2.6,2.6,0,0,0,2.08.91,2.46,2.46,0,0,0,2.05-.89,3.8,3.8,0,0,0,.73-2.5,4,4,0,0,0-.72-2.54,2.48,2.48,0,0,0-2.06-.9,2.57,2.57,0,0,0-2.08.93A3.84,3.84,0,0,0,218.2,234.59Z"/><path d="M228.58,237.59v5.25h-1.27V230.22h1.27v1.53h0a3.15,3.15,0,0,1,2.91-1.73,3.07,3.07,0,0,1,2.53,1.15,4.83,4.83,0,0,1,.93,3.12,5.4,5.4,0,0,1-1,3.46,3.38,3.38,0,0,1-2.81,1.31,2.77,2.77,0,0,1-2.52-1.47Zm0-2.23a2.59,2.59,0,0,0,.7,1.84A2.33,2.33,0,0,0,231,238a2.3,2.3,0,0,0,1.95-1,4.6,4.6,0,0,0,.71-2.72A3.59,3.59,0,0,0,233,232a2.17,2.17,0,0,0-1.78-.84,2.45,2.45,0,0,0-1.91.84,3.11,3.11,0,0,0-.75,2.15Z"/><path d="M242.52,234.27v4.59h-1.29v-12.1h3.18a4.16,4.16,0,0,1,2.89.94,3.43,3.43,0,0,1,1,2.66,3.66,3.66,0,0,1-1.22,2.87,4.16,4.16,0,0,1-3,1Zm0-6.29v5H244a3.26,3.26,0,0,0,2.22-.67,2.46,2.46,0,0,0,.76-1.93c0-1.62-.93-2.44-2.8-2.44Z"/><path d="M250.24,227.11a.86.86,0,0,1,.24-.62.78.78,0,0,1,.58-.26.83.83,0,0,1,.61.26.88.88,0,0,1,.24.62.85.85,0,0,1-.24.6.83.83,0,0,1-.61.26.78.78,0,0,1-.59-.25A.89.89,0,0,1,250.24,227.11Zm.18,11.75v-8.64h1.26v8.64Z"/><path d="M261.56,238.18q0,4.75-4.38,4.75a5.79,5.79,0,0,1-2.73-.62V241a5.42,5.42,0,0,0,2.72.82c2.08,0,3.13-1.15,3.13-3.45v-1h0a3.17,3.17,0,0,1-2.91,1.67,3.11,3.11,0,0,1-2.53-1.16,4.69,4.69,0,0,1-1-3.08,5.44,5.44,0,0,1,1-3.51,3.42,3.42,0,0,1,2.81-1.29,2.76,2.76,0,0,1,2.54,1.41h0v-1.21h1.26Zm-1.26-4.52a2.52,2.52,0,0,0-.71-1.8,2.29,2.29,0,0,0-1.71-.74,2.34,2.34,0,0,0-2,1,4.24,4.24,0,0,0-.73,2.65,3.61,3.61,0,0,0,.7,2.34,2.21,2.21,0,0,0,1.82.88,2.38,2.38,0,0,0,1.87-.84,3.13,3.13,0,0,0,.74-2.14Z"/><path d="M272.26,233.66l-.55.61A16,16,0,0,0,269.2,232l.58-.63A16.21,16.21,0,0,1,272.26,233.66Z"/><path d="M288.84,238.86h-1.3V233.3h-6.17v5.56h-1.29v-12.1h1.29v5.34h6.17v-5.34h1.3Z"/><path d="M291.6,227.11a.86.86,0,0,1,.24-.62.78.78,0,0,1,.58-.26.83.83,0,0,1,.61.26.89.89,0,0,1,.25.62.86.86,0,0,1-.25.6.83.83,0,0,1-.61.26.74.74,0,0,1-.58-.25A.85.85,0,0,1,291.6,227.11Zm.18,11.75v-8.64H293v8.64Z"/><path d="M302.33,230.22,299,238.86h-1.21l-3.2-8.64H296l2.17,6.34a5.48,5.48,0,0,1,.3,1.18h0a6.88,6.88,0,0,1,.26-1.15l2.28-6.37Z"/><path d="M310.4,234.86h-6a3.42,3.42,0,0,0,.77,2.29,2.56,2.56,0,0,0,2,.79,4.05,4.05,0,0,0,2.62-1v1.25a4.69,4.69,0,0,1-2.92.84,3.46,3.46,0,0,1-2.77-1.18,5.64,5.64,0,0,1,.08-6.58A3.47,3.47,0,0,1,307,230a3.11,3.11,0,0,1,2.53,1.09,4.66,4.66,0,0,1,.9,3Zm-1.31-1.15a2.84,2.84,0,0,0-.57-1.89,1.93,1.93,0,0,0-1.57-.68,2.28,2.28,0,0,0-1.62.68,3.28,3.28,0,0,0-.88,1.89Z"/><path d="M320.41,233.66l-.55.61a15.59,15.59,0,0,0-2.51-2.29l.58-.63A16.21,16.21,0,0,1,320.41,233.66Z"/><path d="M327.68,236.77a3.82,3.82,0,0,0,1.43.76,5.36,5.36,0,0,0,1.72.31c1.71,0,2.57-.64,2.57-1.92a1.74,1.74,0,0,0-.27-1,2.63,2.63,0,0,0-.72-.73,20.3,20.3,0,0,0-1.78-1,7,7,0,0,1-2.43-1.76,2.93,2.93,0,0,1-.51-1.69,2.78,2.78,0,0,1,1.16-2.34,4.71,4.71,0,0,1,2.91-.88,5.38,5.38,0,0,1,2.5.43v1.54a4.51,4.51,0,0,0-2.67-.73,3.12,3.12,0,0,0-1.83.49,1.56,1.56,0,0,0-.7,1.37,1.84,1.84,0,0,0,.24.95,2.38,2.38,0,0,0,.68.7q.42.28,1.65.93a7.68,7.68,0,0,1,2.43,1.72,2.89,2.89,0,0,1,.69,1.88,2.84,2.84,0,0,1-1.09,2.39,4.94,4.94,0,0,1-3.07.84,8.27,8.27,0,0,1-1.56-.2,3.8,3.8,0,0,1-1.35-.49Z"/><path d="M344.06,242.84H342.8v-5.48h0a3,3,0,0,1-2.89,1.7,3.12,3.12,0,0,1-2.55-1.15,4.87,4.87,0,0,1-.95-3.17,5.29,5.29,0,0,1,1.05-3.44,3.44,3.44,0,0,1,2.82-1.28,2.67,2.67,0,0,1,2.52,1.41h0v-1.21h1.26Zm-1.26-9.15a2.57,2.57,0,0,0-.69-1.81,2.26,2.26,0,0,0-1.75-.76,2.36,2.36,0,0,0-2,.95,4.25,4.25,0,0,0-.72,2.64,3.69,3.69,0,0,0,.69,2.38,2.19,2.19,0,0,0,1.8.86,2.36,2.36,0,0,0,1.93-.85,3.23,3.23,0,0,0,.71-2.12Z"/><path d="M346.25,234.65a4.84,4.84,0,0,1,1.14-3.4,4.07,4.07,0,0,1,3.12-1.23,3.69,3.69,0,0,1,2.91,1.19,4.85,4.85,0,0,1,1.05,3.31,4.69,4.69,0,0,1-1.14,3.29,4.24,4.24,0,0,1-6,.05A4.5,4.5,0,0,1,346.25,234.65Zm1.29-.06a3.66,3.66,0,0,0,.78,2.45,2.59,2.59,0,0,0,2.08.91,2.48,2.48,0,0,0,2.05-.89,3.86,3.86,0,0,0,.73-2.5,4,4,0,0,0-.72-2.54,2.49,2.49,0,0,0-2.06-.9,2.56,2.56,0,0,0-2.08.93A3.84,3.84,0,0,0,347.54,234.59Z"/><path d="M356.07,234.65a4.84,4.84,0,0,1,1.15-3.4,4,4,0,0,1,3.11-1.23,3.66,3.66,0,0,1,2.91,1.19,4.85,4.85,0,0,1,1.05,3.31,4.69,4.69,0,0,1-1.14,3.29,4.23,4.23,0,0,1-5.95.05A4.51,4.51,0,0,1,356.07,234.65Zm1.3-.06a3.66,3.66,0,0,0,.78,2.45,2.59,2.59,0,0,0,2.08.91,2.49,2.49,0,0,0,2-.89,3.86,3.86,0,0,0,.72-2.5,4,4,0,0,0-.72-2.54,2.47,2.47,0,0,0-2-.9,2.58,2.58,0,0,0-2.09.93A3.89,3.89,0,0,0,357.37,234.59Z"/><path d="M367.74,237.59v5.25h-1.27V230.22h1.27v1.53h0a3.15,3.15,0,0,1,2.91-1.73,3.07,3.07,0,0,1,2.53,1.15,4.83,4.83,0,0,1,.93,3.12,5.4,5.4,0,0,1-1,3.46,3.38,3.38,0,0,1-2.81,1.31,2.79,2.79,0,0,1-2.52-1.47Zm0-2.23a2.6,2.6,0,0,0,.71,1.84,2.41,2.41,0,0,0,3.69-.23,4.6,4.6,0,0,0,.71-2.72,3.53,3.53,0,0,0-.67-2.29,2.15,2.15,0,0,0-1.78-.84,2.45,2.45,0,0,0-1.91.84,3.11,3.11,0,0,0-.75,2.15Z"/><path d="M375.15,241.61a11.29,11.29,0,0,0,2.56-7.38,11.49,11.49,0,0,0-2.59-7.47h1.17a11.33,11.33,0,0,1,2.55,7.48,11,11,0,0,1-2.55,7.37Z"/><path d="M39.51,195.34v-8.17c0-.62,0-1.4.13-2.34h0a8.26,8.26,0,0,1-.35,1.14l-4.11,9.37h-.58L30.46,186a7.37,7.37,0,0,1-.34-1.2h0c.05.43.07,1.2.07,2.31v8.2H28.89v-12.1h1.69l3.69,8.52a12.67,12.67,0,0,1,.54,1.43h.06q.23-.63.57-1.47l3.77-8.48h1.6v12.1Z"/><path d="M43.17,191.13a4.8,4.8,0,0,1,1.15-3.4,4,4,0,0,1,3.11-1.24,3.66,3.66,0,0,1,2.91,1.2,4.84,4.84,0,0,1,1,3.3,4.7,4.7,0,0,1-1.14,3.3,3.91,3.91,0,0,1-3,1.25,3.84,3.84,0,0,1-2.94-1.2A4.5,4.5,0,0,1,43.17,191.13Zm1.29-.06a3.66,3.66,0,0,0,.78,2.45,2.6,2.6,0,0,0,2.08.91,2.49,2.49,0,0,0,2-.89,3.82,3.82,0,0,0,.73-2.5,3.94,3.94,0,0,0-.72-2.54,2.48,2.48,0,0,0-2.06-.9,2.57,2.57,0,0,0-2.08.93A3.82,3.82,0,0,0,44.46,191.07Z"/><path d="M60.48,195.34H59.21V190.4c0-1.86-.66-2.8-2-2.8a2.12,2.12,0,0,0-1.71.8,3,3,0,0,0-.67,2v4.93H53.57V186.7h1.27v1.44h0a3,3,0,0,1,2.77-1.65,2.55,2.55,0,0,1,2.11.92,4.14,4.14,0,0,1,.73,2.65Z"/><path d="M70.15,194.66c0,3.16-1.46,4.75-4.38,4.75a5.84,5.84,0,0,1-2.73-.62v-1.33a5.55,5.55,0,0,0,2.72.82q3.13,0,3.13-3.45v-1h0A3.19,3.19,0,0,1,66,195.54a3.13,3.13,0,0,1-2.53-1.16,4.76,4.76,0,0,1-1-3.08,5.48,5.48,0,0,1,1-3.51,3.44,3.44,0,0,1,2.81-1.3,2.75,2.75,0,0,1,2.54,1.42h0V186.7h1.26Zm-1.26-4.53a2.5,2.5,0,0,0-.71-1.79,2.28,2.28,0,0,0-1.7-.74,2.36,2.36,0,0,0-2,1,4.27,4.27,0,0,0-.73,2.64,3.69,3.69,0,0,0,.7,2.35,2.22,2.22,0,0,0,1.82.88,2.37,2.37,0,0,0,1.87-.84,3.13,3.13,0,0,0,.74-2.14Z"/><path d="M72.34,191.13a4.8,4.8,0,0,1,1.15-3.4,4,4,0,0,1,3.11-1.24,3.66,3.66,0,0,1,2.91,1.2,4.84,4.84,0,0,1,1,3.3,4.7,4.7,0,0,1-1.14,3.3,3.89,3.89,0,0,1-3,1.25,3.84,3.84,0,0,1-2.94-1.2A4.55,4.55,0,0,1,72.34,191.13Zm1.29-.06a3.66,3.66,0,0,0,.78,2.45,2.6,2.6,0,0,0,2.08.91,2.49,2.49,0,0,0,2.05-.89,3.82,3.82,0,0,0,.73-2.5,3.94,3.94,0,0,0-.72-2.54,2.48,2.48,0,0,0-2.06-.9,2.57,2.57,0,0,0-2.08.93A3.82,3.82,0,0,0,73.63,191.07Z"/><path d="M86.81,195.34v-12.1H90q6.21,0,6.21,5.89a6.15,6.15,0,0,1-1.67,4.52,6.26,6.26,0,0,1-4.66,1.69Zm1.3-10.89v9.67H89.9a4.53,4.53,0,0,0,5-5c0-3.14-1.63-4.72-4.89-4.72Z"/><path d="M98.57,195.34v-12.1h3.29a3.58,3.58,0,0,1,2.37.75,2.51,2.51,0,0,1,.9,2,3.06,3.06,0,0,1-.53,1.78,2.92,2.92,0,0,1-1.5,1.1v0a2.83,2.83,0,0,1,1.9.9,2.93,2.93,0,0,1,.72,2.05,3.18,3.18,0,0,1-1.08,2.5,3.89,3.89,0,0,1-2.72,1Zm1.29-10.87v4h1.43a2.66,2.66,0,0,0,1.83-.58,2,2,0,0,0,.65-1.6q0-1.8-2.28-1.8Zm0,5.2v4.43h1.91a2.87,2.87,0,0,0,1.91-.59,2.07,2.07,0,0,0,.68-1.66c0-1.45-1-2.18-2.9-2.18Z"/><path d="M28.89,151.82V139.71h3.19q6.22,0,6.22,5.9a6.13,6.13,0,0,1-1.68,4.52A6.28,6.28,0,0,1,32,151.82Zm1.29-10.89v9.67H32a5,5,0,0,0,3.66-1.3,4.91,4.91,0,0,0,1.3-3.65c0-3.14-1.63-4.72-4.89-4.72Z"/><path d="M40.66,143.79A5.08,5.08,0,0,1,43.5,143q2.93,0,2.93,3.2v5.65H45.16v-1.36h0A2.79,2.79,0,0,1,42.52,152a2.75,2.75,0,0,1-2-.68,2.39,2.39,0,0,1-.72-1.81c0-1.6.92-2.54,2.77-2.81l2.54-.37c0-1.5-.58-2.25-1.75-2.25a4,4,0,0,0-2.74,1.07Zm2.43,3.92a2.81,2.81,0,0,0-1.5.54,1.51,1.51,0,0,0-.43,1.19,1.34,1.34,0,0,0,.46,1.06,1.69,1.69,0,0,0,1.18.4,2.19,2.19,0,0,0,1.68-.74,2.63,2.63,0,0,0,.67-1.85v-.88Z"/><path d="M52.81,151.73a2.4,2.4,0,0,1-1.22.27c-1.45,0-2.17-.83-2.17-2.5v-5.2H48v-1.12h1.46v-2.13l1.26-.42v2.55h2.13v1.12H50.68v5a2.12,2.12,0,0,0,.29,1.26,1.16,1.16,0,0,0,1,.37,1.32,1.32,0,0,0,.87-.28Z"/><path d="M54.84,143.79a5.05,5.05,0,0,1,2.83-.82q2.92,0,2.93,3.2v5.65H59.33v-1.36h0A2.81,2.81,0,0,1,56.7,152a2.77,2.77,0,0,1-2-.68,2.38,2.38,0,0,1-.71-1.81c0-1.6.92-2.54,2.76-2.81l2.54-.37c0-1.5-.58-2.25-1.75-2.25a4,4,0,0,0-2.73,1.07Zm2.42,3.92a2.81,2.81,0,0,0-1.5.54,1.54,1.54,0,0,0-.42,1.19,1.37,1.37,0,0,0,.45,1.06,1.71,1.71,0,0,0,1.18.4,2.16,2.16,0,0,0,1.68-.74,2.63,2.63,0,0,0,.67-1.85v-.88Z"/><path d="M78.91,151.82H77.64v-5a4,4,0,0,0-.44-2.15,1.68,1.68,0,0,0-1.47-.63,1.84,1.84,0,0,0-1.49.83,3.21,3.21,0,0,0-.62,2v4.94H72.36v-5.14c0-1.73-.65-2.6-2-2.6a1.76,1.76,0,0,0-1.48.79,3.24,3.24,0,0,0-.59,2v4.94H67.06v-8.64h1.27v1.36h0A2.82,2.82,0,0,1,71,143a2.38,2.38,0,0,1,1.47.5,2.47,2.47,0,0,1,.9,1.31,3,3,0,0,1,2.8-1.81q2.77,0,2.77,3.53Z"/><path d="M81.32,140.07a.92.92,0,0,1,.23-.63.82.82,0,0,1,1.19,0,.84.84,0,0,1,.25.62.87.87,0,0,1-.85.86.78.78,0,0,1-.59-.25A.84.84,0,0,1,81.32,140.07Zm.17,11.75v-8.64h1.26v8.64Z"/><path d="M92.43,151.82H91.16v-4.94c0-1.87-.66-2.8-2-2.8a2.15,2.15,0,0,0-1.71.8,3,3,0,0,0-.67,2v4.93H85.52v-8.64h1.27v1.44h0A3,3,0,0,1,89.59,143a2.53,2.53,0,0,1,2.11.92,4.13,4.13,0,0,1,.73,2.64Z"/><path d="M94.83,140.07a.88.88,0,0,1,.24-.63.81.81,0,0,1,1.18,0,.84.84,0,0,1,.25.62.82.82,0,0,1-.25.6.82.82,0,0,1-1.19,0A.89.89,0,0,1,94.83,140.07ZM95,151.82v-8.64h1.27v8.64Z"/><path d="M106,151.82h-1.27v-4.94c0-1.87-.67-2.8-2-2.8a2.15,2.15,0,0,0-1.71.8,3.07,3.07,0,0,0-.67,2v4.93H99v-8.64h1.27v1.44h0A3,3,0,0,1,103.1,143a2.55,2.55,0,0,1,2.12.92,4.19,4.19,0,0,1,.73,2.64Z"/><path d="M115.62,151.14c0,3.16-1.46,4.75-4.38,4.75a5.79,5.79,0,0,1-2.73-.62v-1.33a5.53,5.53,0,0,0,2.72.81c2.09,0,3.13-1.14,3.13-3.44v-1h0a3.19,3.19,0,0,1-2.91,1.67,3.11,3.11,0,0,1-2.53-1.16,4.76,4.76,0,0,1-1-3.08,5.46,5.46,0,0,1,1-3.51,3.41,3.41,0,0,1,2.81-1.3,2.75,2.75,0,0,1,2.54,1.42h0v-1.21h1.26Zm-1.26-4.53a2.5,2.5,0,0,0-.71-1.79,2.28,2.28,0,0,0-1.7-.74,2.37,2.37,0,0,0-2,.95,4.26,4.26,0,0,0-.73,2.65,3.65,3.65,0,0,0,.7,2.35,2.21,2.21,0,0,0,1.82.88,2.38,2.38,0,0,0,1.87-.84,3.13,3.13,0,0,0,.74-2.14Z"/><path d="M127.51,139.71l-5.65,14.11h-1.18l5.63-14.11Z"/><path d="M132.84,151.82V139.71H136q6.21,0,6.21,5.9a6.16,6.16,0,0,1-1.67,4.52,6.3,6.3,0,0,1-4.66,1.69Zm1.3-10.89v9.67h1.79a4.53,4.53,0,0,0,5-4.95c0-3.14-1.63-4.72-4.89-4.72Z"/><path d="M143.85,147.61a4.84,4.84,0,0,1,1.14-3.4,4.05,4.05,0,0,1,3.12-1.24,3.66,3.66,0,0,1,2.9,1.2,4.78,4.78,0,0,1,1.06,3.3,4.7,4.7,0,0,1-1.14,3.3,3.91,3.91,0,0,1-3,1.25,3.84,3.84,0,0,1-2.94-1.2A4.53,4.53,0,0,1,143.85,147.61Zm1.29-.06a3.66,3.66,0,0,0,.78,2.45,2.59,2.59,0,0,0,2.08.91,2.5,2.5,0,0,0,2.05-.89,3.88,3.88,0,0,0,.73-2.5,3.94,3.94,0,0,0-.72-2.54,2.49,2.49,0,0,0-2.06-.9,2.56,2.56,0,0,0-2.08.93A3.8,3.8,0,0,0,145.14,147.55Z"/><path d="M159.94,151.41a4.23,4.23,0,0,1-2.28.61,3.74,3.74,0,0,1-2.89-1.2,4.45,4.45,0,0,1-1.1-3.12,4.89,4.89,0,0,1,1.19-3.44A4.08,4.08,0,0,1,158,143a4.28,4.28,0,0,1,1.93.42v1.37a3.38,3.38,0,0,0-2-.68,2.71,2.71,0,0,0-2.13,1,3.71,3.71,0,0,0-.84,2.54,3.57,3.57,0,0,0,.78,2.44,2.67,2.67,0,0,0,2.11.89,3.3,3.3,0,0,0,2.08-.76Z"/><path d="M168.88,151.82h-1.8l-3.78-4.14h0v4.14H162V139h1.27v8.11h0l3.59-4h1.68l-3.95,4.18Z"/><path d="M176.65,147.82h-6a3.44,3.44,0,0,0,.77,2.29,2.58,2.58,0,0,0,2,.79,4.05,4.05,0,0,0,2.62-1v1.25a4.69,4.69,0,0,1-2.92.84,3.46,3.46,0,0,1-2.77-1.18,4.92,4.92,0,0,1-1-3.32,4.87,4.87,0,0,1,1.09-3.26,3.48,3.48,0,0,1,2.75-1.29,3.1,3.1,0,0,1,2.53,1.1,4.65,4.65,0,0,1,.9,3Zm-1.31-1.15a2.87,2.87,0,0,0-.57-1.9,1.91,1.91,0,0,0-1.57-.67,2.24,2.24,0,0,0-1.62.68,3.21,3.21,0,0,0-.87,1.89Z"/><path d="M183,144.51a1.62,1.62,0,0,0-1-.27,1.7,1.7,0,0,0-1.46.87,4,4,0,0,0-.58,2.28v4.43h-1.27v-8.64H180V145h0a3.06,3.06,0,0,1,.88-1.43,2,2,0,0,1,1.31-.5,2.45,2.45,0,0,1,.82.11Z"/><path d="M37.23,108.29H35.68l-2-3.4a4.31,4.31,0,0,0-1.15-1.44,2.17,2.17,0,0,0-1.2-.34H30.18v5.18H28.89V96.19h3.47a3.74,3.74,0,0,1,2.58.86,3,3,0,0,1,1,2.36,3.17,3.17,0,0,1-2.6,3.26v0a2.52,2.52,0,0,1,.8.57,11.45,11.45,0,0,1,.94,1.39Zm-7-10.86v4.45h1.93a2.45,2.45,0,0,0,1.75-.64,2.27,2.27,0,0,0,.67-1.72A2,2,0,0,0,33.92,98a2.6,2.6,0,0,0-1.8-.55Z"/><path d="M47.84,96.19,42.19,110.3H41l5.63-14.11Z"/><path d="M56.89,101.8l-.61.53a16.28,16.28,0,0,0-1-1.61v8.39h-.81v-8a24.48,24.48,0,0,1-1.51,3.7l-.45-.89a20.88,20.88,0,0,0,1.94-5.2H52.67V98h1.84V95h.81V98h1.15v.8H55.32v.85C55.87,100.32,56.39,101,56.89,101.8Zm9.45,4.78a6.78,6.78,0,0,1-.48,2,1,1,0,0,1-.89.69c-.68,0-1.42-.73-2.23-2.18a13.09,13.09,0,0,1-3,1.92l-.55-.64a9.73,9.73,0,0,0,3.21-2,11.13,11.13,0,0,1-.93-2.87H58.62l-.1,1a10.22,10.22,0,0,1,2.2,1.56l-.45.68a8.78,8.78,0,0,0-1.85-1.46,8.14,8.14,0,0,1-2,3.91l-.71-.52a7,7,0,0,0,2-5.13H56.41v-.8h4.91A76.38,76.38,0,0,1,60.81,95l.8,0a55.86,55.86,0,0,0,.53,7.68h1.57c0-.1-.16-.35-.37-.75l.64-.28a3.94,3.94,0,0,1,.54,1h1.67v.8H62.28a9.06,9.06,0,0,0,.73,2.26,9.42,9.42,0,0,0,1.36-1.91l.6.4a10.61,10.61,0,0,1-1.66,2.23,6.48,6.48,0,0,0,.82,1.29c.33.41.59.61.77.61s.28-.14.4-.42a8.23,8.23,0,0,0,.36-1.82Zm-5.54-4.73-.7.2c0-.19-.06-.43-.12-.73-1.11.1-2.06.21-2.85.32l-.13-.58a23.28,23.28,0,0,0,1.65-2.22L57,99.09l-.2-.69a20.77,20.77,0,0,0,1.59-3.24l.7.34a26.3,26.3,0,0,1-1.39,2.72A10.78,10.78,0,0,0,59.22,98,10.47,10.47,0,0,0,60,96.68l.67.38a26.76,26.76,0,0,1-2.58,3.71c.51,0,1.09-.08,1.74-.17a4.75,4.75,0,0,0-.33-1.07l.68-.2A10.59,10.59,0,0,1,60.8,101.85Zm5.39,0-.7.22a5.83,5.83,0,0,0-.17-.75c-.85.1-1.78.23-2.8.38l-.21-.68c.66-.8,1.19-1.51,1.61-2.13-.43,0-1,.14-1.58.25l-.23-.69a20.26,20.26,0,0,0,1.56-3.13l.7.32c-.44.93-.89,1.8-1.36,2.63L64.49,98c.2-.29.42-.67.69-1.13l.67.35a34.83,34.83,0,0,1-2.45,3.58l1.7-.2a4,4,0,0,0-.28-.87l.69-.22A15.16,15.16,0,0,1,66.19,101.8Z"/><path d="M81.9,104.39l-.43.77-1-.37v4.33h-.78v-.89H76.67v.89h-.81v-4.9h3.47a12.28,12.28,0,0,1-3.39-2.47H74.11a10.61,10.61,0,0,1-3.17,2.47h3.23v4.9h-.82v-.89h-3v.89h-.82v-4.26a8.64,8.64,0,0,1-.94.32l-.36-.75a11.53,11.53,0,0,0,4.89-2.68H68.3V101h5.44a10.3,10.3,0,0,0,.92-1.47l.73.22a4.89,4.89,0,0,1-.68,1.25h7v.77H77.1A11.73,11.73,0,0,0,81.9,104.39ZM74,99.29H69.48V95.5H74Zm-.79-.77V96.26H70.27v2.26Zm.15,8.89V105h-3v2.43Zm7.2-8.12H76V95.5h4.6Zm-.81,8.12V105H76.67v2.43Zm0-8.89V96.26h-3v2.26Zm-.08,1.7-.47.62a6.16,6.16,0,0,0-1.32-.62l.4-.66A6.25,6.25,0,0,1,79.66,100.22Z"/><path d="M97.34,106.45H91v1.6a.88.88,0,0,1-.28.71A1,1,0,0,1,90,109l-1.84,0-.27-.8q.45,0,.9,0a4.2,4.2,0,0,0,1.23-.1c.12-.06.17-.19.17-.38v-1.33H83.82v-.75H90.2v-.64a24.57,24.57,0,0,0,2.53-1H86.46v-.75h7.93V104A32.67,32.67,0,0,1,91,105.56v.14h6.36ZM97,104.29H96.2v-2H84.94v2h-.78v-2.76H85l-.06-5.77A10.94,10.94,0,0,0,87.82,95l.36.64a10.15,10.15,0,0,1-2.49.75v1.14H88.2v.73H85.7l0,1.24h2.46v.75H85.75v1.28h9.56v-1.28H92.87V99.5h2.48V98.26H92.87v-.73h2.52l0-1.16H92.73v-.73h3.48l-.13,5.89H97Zm-4.41-3.66-.51.52c-.14-.15-.6-.54-1.37-1.18a11.27,11.27,0,0,1-1.88,1.14l-.39-.66a14.89,14.89,0,0,0,1.69-1,4.34,4.34,0,0,0-.66-.52l-.57-.4.47-.5,1.34,1a5.59,5.59,0,0,0,1-.92l.59.41a7.64,7.64,0,0,1-1,1C91.52,99.71,92,100.07,92.6,100.63Zm0-3-.5.46a11.33,11.33,0,0,0-1.33-1.11,11.77,11.77,0,0,1-1.78,1l-.34-.64a10.52,10.52,0,0,0,1.54-.87A8.23,8.23,0,0,0,89,95.58l.52-.47c.61.46,1,.77,1.18.91A6.53,6.53,0,0,0,91.81,95l.59.32a8.13,8.13,0,0,1-1.12,1.22A11.35,11.35,0,0,1,92.55,97.58Z"/><path d="M104,99.54a27.47,27.47,0,0,1-4.11,2.29l-.36-.72a28.89,28.89,0,0,0,4.18-2.3Zm1.52.82c0,.89-.34,1.34-1,1.34-.39,0-.73,0-1,0l-.27-.78,1.06,0c.32,0,.47-.15.47-.45V96.26H99.69v-.78h5.85Zm-2.44-2.42-.41.66a9.21,9.21,0,0,0-2.44-.88l.42-.72A9.75,9.75,0,0,1,103.1,97.94Zm8.43,11.15h-.82v-.81h-9v.81h-.8v-6.54h4.49a6.33,6.33,0,0,0,.52-1.11l.81.15-.42,1h5.27Zm-.82-4.14v-1.6h-9V105Zm0,2.52v-1.71h-9v1.71Zm0-8a28.73,28.73,0,0,1-4,1.75l-.27-.74a28,28,0,0,0,4.07-1.8Zm1.53.8a1.7,1.7,0,0,1-.27,1.07c-.18.23-.6.34-1.25.34a5,5,0,0,1-.72,0l-.27-.81.72,0a1.9,1.9,0,0,0,.81-.1.4.4,0,0,0,.17-.37V96.26h-5v-.78h5.77Zm-2.76-2.23-.42.66A11.48,11.48,0,0,0,107,97.58l.47-.65A11,11,0,0,1,109.5,98.08Z"/><path d="M28.34,62.68a3.91,3.91,0,0,0,1.43.77,5.65,5.65,0,0,0,1.72.31c1.71,0,2.57-.64,2.57-1.92a1.79,1.79,0,0,0-.27-1,2.46,2.46,0,0,0-.71-.73c-.31-.2-.9-.54-1.79-1a7,7,0,0,1-2.42-1.76,2.93,2.93,0,0,1-.51-1.69,2.8,2.8,0,0,1,1.15-2.34,4.7,4.7,0,0,1,2.91-.87,5.25,5.25,0,0,1,2.5.43v1.54a4.51,4.51,0,0,0-2.67-.74,3.18,3.18,0,0,0-1.82.49,1.56,1.56,0,0,0-.71,1.37,1.73,1.73,0,0,0,.25.95,2.22,2.22,0,0,0,.67.7,15.9,15.9,0,0,0,1.66.93,7.73,7.73,0,0,1,2.42,1.72,2.89,2.89,0,0,1,.69,1.88,2.84,2.84,0,0,1-1.09,2.39,4.94,4.94,0,0,1-3.07.85,7.64,7.64,0,0,1-1.56-.21,3.62,3.62,0,0,1-1.35-.49Z"/><path d="M48.37,67.85a3.92,3.92,0,0,1-1.23.17,4.22,4.22,0,0,1-2-.49A11.63,11.63,0,0,1,42.46,65a4.86,4.86,0,0,1-3.94-1.75A6.47,6.47,0,0,1,37,58.87a6.82,6.82,0,0,1,1.53-4.68,5.34,5.34,0,0,1,4.21-1.72,4.88,4.88,0,0,1,3.88,1.7,6.42,6.42,0,0,1,1.49,4.39,7.41,7.41,0,0,1-1.08,4.14A4.78,4.78,0,0,1,44,64.79a8.51,8.51,0,0,0,1.73,1.58,2.9,2.9,0,0,0,1.48.39,3,3,0,0,0,1.18-.21Zm-10-9.11a5.5,5.5,0,0,0,1.15,3.65,3.7,3.7,0,0,0,3,1.38,3.91,3.91,0,0,0,3.12-1.32,5.47,5.47,0,0,0,1.14-3.69A5.69,5.69,0,0,0,45.67,55a3.76,3.76,0,0,0-3.05-1.32,3.83,3.83,0,0,0-3.06,1.39A5.46,5.46,0,0,0,38.38,58.74Z"/><path d="M56.52,64.77H50.47V52.67h1.29V63.55h4.76Z"/><path d="M30.18,16.66v4.59H28.89V9.15h3.18a4.16,4.16,0,0,1,2.89.94,3.44,3.44,0,0,1,1,2.66,3.7,3.7,0,0,1-1.22,2.88,4.16,4.16,0,0,1-3,1Zm0-6.28v5h1.48a3.21,3.21,0,0,0,2.21-.68,2.44,2.44,0,0,0,.77-1.93c0-1.62-.93-2.43-2.8-2.43Z"/><path d="M44.68,12.61l-3.9,10.07c-.68,1.76-1.63,2.64-2.86,2.64a3,3,0,0,1-.82-.1V24a2.29,2.29,0,0,0,.77.14c.69,0,1.2-.42,1.54-1.26l.68-1.67-3.28-8.63h1.41l2.32,6.74c0,.1.09.3.18.62h0a5.73,5.73,0,0,1,.16-.6l2.44-6.76Z"/><path d="M50,21.17a2.44,2.44,0,0,1-1.23.27c-1.44,0-2.17-.84-2.17-2.51V13.74H45.16V12.61h1.46V10.49l1.27-.43v2.55H50v1.13H47.89v5A2,2,0,0,0,48.18,20a1.13,1.13,0,0,0,1,.38A1.37,1.37,0,0,0,50,20Z"/><path d="M58.75,21.25H57.49v-5c0-1.84-.67-2.75-2-2.75a2.16,2.16,0,0,0-1.7.79,3.07,3.07,0,0,0-.68,2v4.89H51.84V8.46h1.27v5.6h0a3,3,0,0,1,2.77-1.65q2.84,0,2.83,3.52Z"/><path d="M60.75,17a4.75,4.75,0,0,1,1.15-3.39A4,4,0,0,1,65,12.41a3.69,3.69,0,0,1,2.91,1.19,4.85,4.85,0,0,1,1,3.31,4.69,4.69,0,0,1-1.14,3.29,4.24,4.24,0,0,1-6,.05A4.55,4.55,0,0,1,60.75,17Zm1.3-.05a3.58,3.58,0,0,0,.78,2.44,2.57,2.57,0,0,0,2.07.91,2.46,2.46,0,0,0,2-.89,3.8,3.8,0,0,0,.73-2.5A4,4,0,0,0,67,14.41a2.5,2.5,0,0,0-2.06-.89,2.6,2.6,0,0,0-2.08.92A3.84,3.84,0,0,0,62.05,17Z"/><path d="M78.06,21.25H76.79V16.31c0-1.86-.66-2.79-2-2.79a2.09,2.09,0,0,0-1.71.8,3,3,0,0,0-.67,2v4.93H71.15V12.61h1.27v1.45h0a3,3,0,0,1,2.76-1.65,2.54,2.54,0,0,1,2.11.91A4.14,4.14,0,0,1,78.06,16Z"/></g></g></svg>