<?xml version="1.0" encoding="utf-8"?>
<!-- Generator: Adobe Illustrator 21.1.0, SVG Export Plug-In . SVG Version: 6.00 Build 0)  -->
<svg version="1.1" id="Capa_1" xmlns="http://www.w3.org/2000/svg" xmlns:xlink="http://www.w3.org/1999/xlink" x="0px" y="0px"
	 viewBox="0 0 112.2 112.2" style="enable-background:new 0 0 112.2 112.2;" xml:space="preserve">
<style type="text/css">
	.st0{fill:#00C200;}
	.st1{fill:#FFFFFF;}
	.st2{fill:#00C500;}
</style>
<g>
	<g>
		<circle id="XMLID_30_" class="st0" cx="56.1" cy="56.1" r="56.1"/>
	</g>
	<g>
		<g>
			<path class="st1" d="M95.7,54.1c0.2-1,0.3-1.8,0.3-2.4c0.1-1.1,0-2.6,0-3.1c-1-16.8-18.4-30.3-39.8-30.3
				c-22,0-39.9,14.2-39.9,31.7c0,16.1,15.1,29.4,34.6,31.5c1.2,0.1,2.1,1.2,1.9,2.4l-0.8,7.5c-0.2,1.7,1.6,2.9,3.1,2.2
				c16.5-8,26.4-16.2,32.3-23.3c1.1-1.3,4.6-6.2,5.3-7.5C94.1,60.1,95.2,57.2,95.7,54.1z"/>
			<path class="st2" d="M34.2,56.5V43.1c0-1.1-0.9-2-2-2l0,0c-1.1,0-2,0.9-2,2v15.4c0,1.1,0.9,2,2,2h8.2c1.1,0,2-0.9,2-2l0,0
				c0-1.1-0.9-2-2-2H34.2z"/>
			<path class="st2" d="M46.7,60.6h-0.9c-0.9,0-1.6-0.7-1.6-1.6V42.7c0-0.9,0.7-1.6,1.6-1.6h0.9c0.9,0,1.6,0.7,1.6,1.6V59
				C48.3,59.9,47.6,60.6,46.7,60.6z"/>
			<path class="st2" d="M63.2,43.1v9.4c0,0-8.1-10.6-8.3-10.8c-0.4-0.4-1-0.7-1.6-0.7c-1.1,0-2,1-2,2.1v15.3c0,1.1,0.9,2,2,2l0,0
				c1.1,0,2-0.9,2-2v-9.4c0,0,8.3,10.7,8.4,10.8c0.4,0.3,0.8,0.6,1.4,0.6c1.1,0,2.1-1,2.1-2.1V43.1c0-1.1-0.9-2-2-2l0,0
				C64.1,41.1,63.2,42,63.2,43.1z"/>
			<path class="st2" d="M82.6,43.1L82.6,43.1c0-1.1-0.9-2-2-2h-8.2c-1.1,0-2,0.9-2,2v15.4c0,1.1,0.9,2,2,2h8.2c1.1,0,2-0.9,2-2l0,0
				c0-1.1-0.9-2-2-2h-6.1v-3.6h6.1c1.1,0,2-0.9,2-2l0,0c0-1.1-0.9-2-2-2h-6.1v-3.6h6.1C81.7,45.2,82.6,44.3,82.6,43.1z"/>
		</g>
	</g>
</g>
</svg>
