<svg xmlns="http://www.w3.org/2000/svg" viewBox="0 0 698.05 138.16"><defs><style>.cls-1{fill:none;stroke:#008093;stroke-miterlimit:10;stroke-width:2px;}.cls-2{fill:#008093;}.cls-3{fill:#fff;}</style></defs><title>plan-date</title><g id="圖層_2" data-name="圖層 2"><g id="_" data-name="="><line class="cls-1" x1="47.43" y1="92.36" x2="693.75" y2="93.36"/><path class="cls-2" d="M22.14,2.88a9.53,9.53,0,0,1,3.17,7.44A11.84,11.84,0,0,1,22,18.43,43.66,43.66,0,0,1,14.85,24C11.34,26.26,9.23,28.27,8.46,30h16.9v5H1.46a13.22,13.22,0,0,1,3.4-9.12,46.15,46.15,0,0,1,7.88-6.29,32.05,32.05,0,0,0,4.7-3.84,8.12,8.12,0,0,0,2.26-5.43A5.51,5.51,0,0,0,18.21,6.1a6.43,6.43,0,0,0-4.47-1.35A5.51,5.51,0,0,0,9,6.91,10.56,10.56,0,0,0,7.26,13H1.65A13.23,13.23,0,0,1,5,3.74,11.46,11.46,0,0,1,13.94,0,11.88,11.88,0,0,1,22.14,2.88Z"/><path class="cls-2" d="M51.57,5q3.16,4.76,3.17,12.82T51.57,30.63a10.75,10.75,0,0,1-9.36,5,10.64,10.64,0,0,1-9.36-5q-3.17-4.75-3.17-12.82T32.85,5a10.53,10.53,0,0,1,9.36-5A10.64,10.64,0,0,1,51.57,5ZM36.45,9.31a25.1,25.1,0,0,0-1.16,8.5,25.5,25.5,0,0,0,1.16,8.5c1.1,3,3,4.56,5.76,4.56s4.61-1.54,5.76-4.56a25.53,25.53,0,0,0,1.15-8.5A25.13,25.13,0,0,0,48,9.31c-1.15-3.07-3.07-4.56-5.76-4.56S37.55,6.24,36.45,9.31Z"/><path class="cls-2" d="M72,.67V35H66.35V7.44a19.54,19.54,0,0,1-7.82,4.18V6.05a20.73,20.73,0,0,0,4.89-2A21.08,21.08,0,0,0,67.74.67Z"/><path class="cls-2" d="M99.47,2.93a8.41,8.41,0,0,1,2.93,6.48,8.08,8.08,0,0,1-1.15,4.42,8.28,8.28,0,0,1-3.79,2.92v.1a7.75,7.75,0,0,1,4.12,2.88,8.77,8.77,0,0,1,2,5.62,9.4,9.4,0,0,1-3.36,7.44c-2.26,1.87-5.42,2.83-9.5,2.83s-7.3-1-9.51-2.83a9.27,9.27,0,0,1-3.36-7.44,8.55,8.55,0,0,1,2-5.62,7.59,7.59,0,0,1,4.13-2.88v-.1a7.77,7.77,0,0,1-3.8-2.92A8.17,8.17,0,0,1,79,9.41,8.25,8.25,0,0,1,81.9,2.93C84.06,1,87,0,90.69,0A12.7,12.7,0,0,1,99.47,2.93Zm-14.26,18a5.61,5.61,0,0,0-1.82,4.42,5.08,5.08,0,0,0,1.92,4.17,8.05,8.05,0,0,0,5.38,1.59,8.63,8.63,0,0,0,5.47-1.64A5.2,5.2,0,0,0,98,25.35,5.7,5.7,0,0,0,96.21,21a7.8,7.8,0,0,0-5.52-1.78A7.83,7.83,0,0,0,85.21,20.93ZM85.84,6.1a4.52,4.52,0,0,0-1.59,3.5,5.24,5.24,0,0,0,1.3,3.74C86.61,14.45,88.29,15,90.69,15s4.08-.57,5.13-1.68a5.19,5.19,0,0,0,1.3-3.74,4.55,4.55,0,0,0-1.58-3.5,7,7,0,0,0-4.85-1.64A6.87,6.87,0,0,0,85.84,6.1Z"/><path class="cls-2" d="M230.58,2.88a9.53,9.53,0,0,1,3.17,7.44,11.84,11.84,0,0,1-3.36,8.11,43.66,43.66,0,0,1-7.1,5.52c-3.51,2.31-5.62,4.32-6.39,6.05h16.9v5H209.89a13.22,13.22,0,0,1,3.41-9.12,46.15,46.15,0,0,1,7.88-6.29,32.05,32.05,0,0,0,4.7-3.84,8.12,8.12,0,0,0,2.26-5.43,5.51,5.51,0,0,0-1.49-4.17,6.43,6.43,0,0,0-4.47-1.35,5.51,5.51,0,0,0-4.75,2.16c-1.06,1.35-1.63,3.41-1.73,6.1h-5.61a13.18,13.18,0,0,1,3.36-9.27A11.46,11.46,0,0,1,222.38,0,11.88,11.88,0,0,1,230.58,2.88Z"/><path class="cls-2" d="M260,5q3.17,4.76,3.17,12.82T260,30.63a10.75,10.75,0,0,1-9.36,5,10.61,10.61,0,0,1-9.36-5q-3.18-4.75-3.17-12.82T241.29,5a10.51,10.51,0,0,1,9.36-5A10.64,10.64,0,0,1,260,5ZM244.89,9.31a25.1,25.1,0,0,0-1.16,8.5,25.5,25.5,0,0,0,1.16,8.5c1.1,3,3,4.56,5.76,4.56s4.61-1.54,5.76-4.56a25.53,25.53,0,0,0,1.15-8.5,25.13,25.13,0,0,0-1.15-8.5c-1.15-3.07-3.07-4.56-5.76-4.56S246,6.24,244.89,9.31Z"/><path class="cls-2" d="M280.41.67V35h-5.62V7.44A19.51,19.51,0,0,1,267,11.62V6.05a20.62,20.62,0,0,0,4.9-2A21.08,21.08,0,0,0,276.18.67Z"/><path class="cls-2" d="M308.34,4.51c2.21,3,3.31,7.06,3.31,12.34,0,5.57-1.2,10.13-3.5,13.58a10.93,10.93,0,0,1-9.46,5.19q-10.15,0-11.37-9.36h5.47c.67,3.17,2.64,4.75,5.95,4.75a6.3,6.3,0,0,0,5.47-3.36,14.86,14.86,0,0,0,2-7.92V19.3h-.24a9.68,9.68,0,0,1-3.6,3.12,10.88,10.88,0,0,1-4.61,1,10.52,10.52,0,0,1-8.11-3.31,11.37,11.37,0,0,1-3-8.21,11.27,11.27,0,0,1,3.46-8.5A11.81,11.81,0,0,1,298.74,0C302.92,0,306.13,1.49,308.34,4.51ZM294,6.67a7.31,7.31,0,0,0-1.83,5.19,6.78,6.78,0,0,0,1.83,5,6.34,6.34,0,0,0,4.89,1.92,6.5,6.5,0,0,0,4.9-1.92,7.61,7.61,0,0,0,1.78-5.23,6.9,6.9,0,0,0-1.88-5.14,6.53,6.53,0,0,0-4.8-1.87A6.36,6.36,0,0,0,294,6.67Z"/><path class="cls-3" d="M650.91,45.52A45.5,45.5,0,1,1,605.41,91a45.5,45.5,0,0,1,45.5-45.5Z"/><path class="cls-2" d="M650.91,43.88A47.14,47.14,0,1,1,603.76,91a47.14,47.14,0,0,1,47.15-47.14Zm0,8.67A38.47,38.47,0,1,0,689.38,91a38.47,38.47,0,0,0-38.47-38.47Z"/><path class="cls-2" d="M4.18,60.65V62a21.91,21.91,0,0,1-1.7,2.38H4.34v1.09a17.66,17.66,0,0,1-.77,2.88,3.44,3.44,0,0,1,.35.3,5.16,5.16,0,0,0,1.43,1,6,6,0,0,0,2,.32l3,0c1.16,0,2.69,0,4.57-.12l-.38,1.57h-4c-1.07,0-2.15,0-3.22-.06A8.2,8.2,0,0,1,4.82,71,5.08,5.08,0,0,1,3,69.71a.42.42,0,0,0-.35-.18c-.29,0-.79.69-1.46,2.07L0,70.48A5.06,5.06,0,0,1,2.08,68a13.1,13.1,0,0,0,.69-2.29H.51V64.48a22.59,22.59,0,0,0,1.84-2.33H.26v-1.5Zm-.1-1.52L3,60.2A16.21,16.21,0,0,0,.58,57.88l1.08-1A17.81,17.81,0,0,1,4.08,59.13Zm2.48,3v7.24H5.12V60.68H7.17a8,8,0,0,0-.74-1.09l.88-.33H4.72V57.83H8.8a8.07,8.07,0,0,0-.4-.78l1.68-.29c.13.32.28.69.42,1.07h4v1.43h-2.4l.82.28a8.52,8.52,0,0,1-.72,1.14h2v7.08c0,1.08-.53,1.65-1.57,1.65H11l-.22-.87H7.38V65H9v-.87H7.07V62.89H9v-.8Zm1.49-2.83a9.88,9.88,0,0,1,.71,1.42h1.85a12.7,12.7,0,0,0,.82-1.42Zm2.64,6.9H8.61v1.26h2.08Zm1.51,1.9c.36,0,.56-.22.56-.64V62.09h-2.4v.8H12.2v1.28H10.36V65h1.56v3Z"/><path class="cls-2" d="M17.71,60a26.43,26.43,0,0,1-.49,4.56l-1.35-.38a21.57,21.57,0,0,0,.56-4.28Zm3.89,1.47a14.31,14.31,0,0,0,.66-3.63l1.52.21c0,.54-.06,1-.13,1.57h1.73v-2.8h1.7v2.8h3.29v1.61H27.08v3.41h3.15v1.64H27.08v3.25h3.73v1.61H21V69.57h4.39V66.32H21.84V64.68h3.54V61.27H23.33a13.48,13.48,0,0,1-1.2,3l-1.25-1.11c.1-.2.19-.4.29-.59l-.62.16a25.67,25.67,0,0,0-.79-2.69V71.55H18.08V56.82h1.68v3.09l1.15-.37A18.88,18.88,0,0,1,21.6,61.51Z"/><path class="cls-2" d="M34.42,58.65a15.93,15.93,0,0,0-.64-1.47l1.6-.44c.27.71.48,1.33.64,1.91h2v1.5H32.18v-1.5Zm3.25,12.69H36.13v-.67H34.06v.91H32.53V65.67h5.14ZM37.35,61v1.46H32.8V61Zm0,2.23v1.47H32.8V63.26ZM36.13,69.2v-2H34.06v2ZM46.41,57.38V59H43.22v5.56h3.65v1.58H43.22v5.52H41.6V66.09H37.94V64.51H41.6V59H38.4V57.38Zm-5.33,6.2-1.43.35A30.09,30.09,0,0,0,38.47,60l1.44-.48A35.74,35.74,0,0,1,41.08,63.58Zm5.25-3.68a23.07,23.07,0,0,1-1.25,4l-1.38-.5a20.86,20.86,0,0,0,1.17-3.9Z"/><path class="cls-2" d="M62.65,61.74v1.18H48.21V61.74Zm-1.46,1.77v4.2H56.24v.62h5.25v1.08H56.24v.67h6.41v1.25H48.21V70.08h6.37v-.67H49.39V68.33h5.19v-.62H49.7v-4.2ZM60.85,57v4.11H50.05V57Zm-6.27,8.14v-.67h-3.3v.67Zm0,.9h-3.3v.69h3.3Zm4.67-7.44V58h-7.6v.66Zm0,.92h-7.6v.66h7.6Zm-3,5.62H59.6v-.67H56.24Zm3.36.9H56.24v.69H59.6Z"/><path class="cls-2" d="M30.87,109.53v17.13H28.06V112.91A9.71,9.71,0,0,1,24.15,115v-2.79a10.13,10.13,0,0,0,2.45-1,11,11,0,0,0,2.16-1.68Z"/><path class="cls-2" d="M44.91,111.69a11.36,11.36,0,0,1,1.58,6.4,11.37,11.37,0,0,1-1.58,6.41,5.37,5.37,0,0,1-4.68,2.5,5.3,5.3,0,0,1-4.68-2.5,13.7,13.7,0,0,1,0-12.81,5.26,5.26,0,0,1,4.68-2.5A5.33,5.33,0,0,1,44.91,111.69Zm-7.56,2.16a12.34,12.34,0,0,0-.58,4.24,12.56,12.56,0,0,0,.58,4.25,3,3,0,0,0,2.88,2.28,3,3,0,0,0,2.88-2.28,12.82,12.82,0,0,0,.58-4.25,12.59,12.59,0,0,0-.58-4.24,3,3,0,0,0-2.88-2.28A2.93,2.93,0,0,0,37.35,113.85Z"/><path class="cls-2" d="M50.77,128l-1.28-1.17A9.31,9.31,0,0,0,51,121.42v-7.85h9.7v12.54a1.42,1.42,0,0,1-1.63,1.59H57l-.45-1.63c.7,0,1.36.08,2,.08.32,0,.48-.23.48-.64v-2.63H52.59A10.43,10.43,0,0,1,50.77,128ZM59,115.17H52.69v2.24H59Zm-6.32,6.16H59V119H52.69Z"/><circle class="cls-2" cx="52.05" cy="92.36" r="11.38"/><path class="cls-2" d="M106.61,58.63c-.19-.49-.4-1-.62-1.45l1.58-.44c.26.69.46,1.32.62,1.89h2v1.54h-5.57V58.63Zm3.12,10.9a8.5,8.5,0,0,0,2.82-3h-2.37V64.92h3.54V63.83h-3V57.3h7.68v6.53h-3v1.09h3.6v1.57h-2.4a9.15,9.15,0,0,0,2.93,3.24l-1.09,1.35a12.19,12.19,0,0,1-3-4.38v4.88h-1.6V66.8a10.53,10.53,0,0,1-3.28,4.28l-.71-1.16v.73h-3.12v.85H105V65.67h4.69Zm-.14-8.48v1.44H105.2V61.05Zm0,2.24v1.44H105.2V63.29Zm-1.41,5.89v-2h-1.57v2Zm5.54-9.28V58.78h-1.48V59.9Zm0,1.34h-1.48v1.14h1.48Zm1.6-1.34h1.49V58.78h-1.49Zm1.49,1.34h-1.49v1.14h1.49Z"/><path class="cls-2" d="M123,61V59.21c-.59.08-1.2.14-1.81.21l-.34-1.57a24.87,24.87,0,0,0,5.29-1l.59,1.57a18.2,18.2,0,0,1-2.15.48V61h1.79v1.55h-1.79v.64c.71.64,1.43,1.33,2.15,2.1l-.95,1.42c-.45-.77-.85-1.42-1.2-1.94v6.74H123V65.1a16.94,16.94,0,0,1-1.81,3.49l-.74-1.87a11.59,11.59,0,0,0,2.36-4.15h-2V61Zm7,5.34V64.91c-1,.08-2,.14-3,.21l-.3-1.46a68.19,68.19,0,0,0,7.62-.71l.53,1.4c-1,.16-2.08.28-3.24.41v1.6h3.17v1.49h-3.17v1.7h3.72v1.52h-9V69.55h3.65v-1.7h-3.1V66.36Zm4.48-9.07v4.93h-7.18V57.29Zm-1.61,1.47h-3.94v2h3.94Z"/><path class="cls-2" d="M143.46,62.49H138.8v9h-1.66V57.16h6.32Zm-1.63-4.05h-3v.85h3Zm-3,2.75h3v-.78h-3Zm2.69,5V64.75H140V63.34h7.8v1.41H146.4v1.39h1.86v1.44H146.4v3.57h-1.52V67.58h-2a6.41,6.41,0,0,1-.59,2.07,4.08,4.08,0,0,1-2,1.79l-.81-1.32A3.17,3.17,0,0,0,141,68.68a5.76,5.76,0,0,0,.32-1.1h-1.81V66.14Zm3.39-1.39H143v1.39h1.9Zm-.54-2.29v-5.3h6.42V69.61c0,1.19-.58,1.8-1.7,1.8-.56,0-1.12,0-1.68-.07l-.4-1.47c.55,0,1,.08,1.49.08s.62-.29.62-.83V62.46Zm4.75-4H146v.82h3.12ZM146,61.18h3.12v-.77H146Z"/><path class="cls-2" d="M156,56.82c-.13,1-.26,2-.38,2.85h2.24v.91a20.44,20.44,0,0,1-1.2,6.65q1,1.08,1.68,2l-1.11,1.31c-.38-.51-.83-1-1.34-1.63a12,12,0,0,1-2.21,2.85l-1.06-1.33a9.58,9.58,0,0,0,2.13-2.74c-.62-.64-1.29-1.31-2-2,.35-1.35.69-2.8,1-4.37h-1.08V59.67h1.33c.16-1,.29-2,.42-3Zm.32,4.44h-1c-.27,1.53-.54,2.82-.83,3.86.32.3.64.6.93.89A17.85,17.85,0,0,0,156.29,61.26Zm1.81.67q1.11-.24,3.25-5.19l1.6.55a30.63,30.63,0,0,1-2.55,4.54c1.44-.09,2.84-.25,4.2-.46-.35-.75-.71-1.46-1.07-2.11l1.42-.69a41.78,41.78,0,0,1,2.27,4.59l-1.53.76c-.16-.42-.32-.79-.47-1.14-2.05.29-4.34.49-6.85.65Zm8.13,9.68h-1.6v-.86h-4.16v.86h-1.59v-7.1h7.35Zm-1.6-2.43V66h-4.16v3.15Z"/><path class="cls-2" d="M135.4,109.53v17.13h-2.81V112.91a9.71,9.71,0,0,1-3.91,2.09v-2.79a10.13,10.13,0,0,0,2.45-1,11,11,0,0,0,2.16-1.68Z"/><path class="cls-2" d="M149.44,111.69a13.77,13.77,0,0,1,0,12.81,5.37,5.37,0,0,1-4.68,2.5,5.3,5.3,0,0,1-4.68-2.5,13.7,13.7,0,0,1,0-12.81,5.26,5.26,0,0,1,4.68-2.5A5.33,5.33,0,0,1,149.44,111.69Zm-7.56,2.16a12.34,12.34,0,0,0-.58,4.24,12.56,12.56,0,0,0,.58,4.25,3,3,0,0,0,2.88,2.28,3,3,0,0,0,2.88-2.28,12.85,12.85,0,0,0,.57-4.25,12.63,12.63,0,0,0-.57-4.24,3,3,0,0,0-2.88-2.28A2.93,2.93,0,0,0,141.88,113.85Z"/><path class="cls-2" d="M155.3,128,154,126.79a9.31,9.31,0,0,0,1.52-5.37v-7.85h9.7v12.54a1.43,1.43,0,0,1-1.63,1.59h-2.05l-.45-1.63c.7,0,1.36.08,1.95.08.32,0,.48-.23.48-.64v-2.63h-6.42A10.43,10.43,0,0,1,155.3,128Zm8.24-12.79h-6.32v2.24h6.32Zm-6.32,6.16h6.32V119h-6.32Z"/><circle class="cls-2" cx="156.57" cy="92.36" r="11.38"/><path class="cls-2" d="M211.14,58.63c-.19-.49-.4-1-.63-1.46l1.59-.43c.25.69.46,1.32.62,1.89h2v1.54h-5.57V58.63Zm3.12,10.9a8.5,8.5,0,0,0,2.82-3h-2.37V64.92h3.54V63.83H215.2V57.3h7.69v6.53h-3v1.09h3.6v1.57h-2.4A9,9,0,0,0,224,69.72l-1.09,1.36a12.19,12.19,0,0,1-3-4.38v4.88h-1.6V66.8A10.55,10.55,0,0,1,215,71.08l-.7-1.16v.73h-3.12v.85h-1.57V65.67h4.69Zm-.14-8.48v1.44h-4.39V61.05Zm0,2.24v1.44h-4.39V63.29Zm-1.41,5.89v-2h-1.57v2Zm5.54-9.28V58.78h-1.48V59.9Zm0,1.34h-1.48v1.14h1.48Zm1.6-1.34h1.48V58.78h-1.48Zm1.48,1.34h-1.48v1.14h1.48Z"/><path class="cls-2" d="M227.51,61V59.21c-.6.08-1.2.14-1.81.21l-.34-1.57a24.65,24.65,0,0,0,5.28-1l.6,1.57c-.69.19-1.41.35-2.15.48V61h1.79v1.55h-1.79v.64c.71.64,1.43,1.33,2.15,2.1l-1,1.42c-.45-.77-.85-1.42-1.2-1.94v6.74h-1.58V65.1a16.94,16.94,0,0,1-1.81,3.49L225,66.72a11.57,11.57,0,0,0,2.35-4.15h-1.95V61Zm7,5.34V64.91c-1,.08-1.95.14-3,.2l-.3-1.45a68.19,68.19,0,0,0,7.62-.71l.53,1.4c-1,.16-2.09.28-3.24.41v1.6h3.17v1.49H236.1v1.7h3.71v1.52h-9V69.55h3.65v-1.7h-3.11V66.36ZM239,57.29v4.93h-7.19V57.29Zm-1.62,1.47H233.4v2h3.93Z"/><path class="cls-2" d="M243.11,67.64a18.19,18.19,0,0,1-.55,3.7l-1.47-.46a15.44,15.44,0,0,0,.53-3.43Zm4.21-1.39-1.38.35-.13-.62a25.09,25.09,0,0,1-4.22.91l-.44-1.5a2.87,2.87,0,0,0,.76-.47,12.19,12.19,0,0,0,1.63-2.21l-2,.32-.41-1.52a1.69,1.69,0,0,0,.69-.6,25.3,25.3,0,0,0,1.83-4.25l1.6.63A24.8,24.8,0,0,1,243,61.4c.48-.06,1-.13,1.43-.21.32-.57.67-1.2,1-1.87l1.41.53V58.68h3.69V56.81h1.65v1.87h3.64v1.6h-3.64v1.91h3.29v1.6h-8.2v-1.6h3.26V60.28h-3.69v-.16a38.36,38.36,0,0,1-3.33,5c.65-.13,1.31-.28,2-.44-.11-.41-.24-.81-.37-1.21l1.28-.42A28.48,28.48,0,0,1,247.32,66.25Zm-1.86,4.19-1.55.37c-.13-1.25-.29-2.37-.47-3.33l1.36-.3C245,68.17,245.27,69.26,245.46,70.44Zm2.16-1-1.36.63a25,25,0,0,0-.88-2.85l1.25-.42A21,21,0,0,1,247.62,69.4Zm7.43,2.2h-1.62V71h-4v.6h-1.63V65h7.24Zm-1.62-2.16V66.51h-4v2.93Z"/><path class="cls-2" d="M263.64,58.25V56.82h1.69v1.43h6.05v1.61h-6.05V61h5v4.93H266.6A14,14,0,0,0,272,69.77l-1.17,1.46a15.45,15.45,0,0,1-5.51-5.11V71.6h-1.69V66.09A13.48,13.48,0,0,1,258,71.23l-1-1.55a12.79,12.79,0,0,0,5.35-3.75h-3.69V61h5V59.86h-6.09V58.25Zm0,4.3h-3.29v1.86h3.29Zm5,0h-3.32v1.86h3.32Z"/><path class="cls-2" d="M254.33,109.52v17.14h-2.81V112.91A9.68,9.68,0,0,1,247.6,115v-2.79a10,10,0,0,0,2.45-1,10.46,10.46,0,0,0,2.16-1.69Z"/><path class="cls-2" d="M259.83,128l-1.28-1.16a9.39,9.39,0,0,0,1.52-5.37v-7.86h9.7v12.55a1.43,1.43,0,0,1-1.64,1.59h-2l-.45-1.63c.7,0,1.36.08,1.95.08.32,0,.48-.23.48-.65v-2.62h-6.42A10.36,10.36,0,0,1,259.83,128Zm8.24-12.78h-6.32v2.24h6.32Zm-6.32,6.16h6.32V119h-6.32Z"/><circle class="cls-2" cx="261.1" cy="92.36" r="11.38"/><path class="cls-2" d="M320.18,59.51v-.62H314V57.61h6.18v-.87h1.67v.87H328v1.28h-6.17v.62h4.85v4.85h-.23a13.73,13.73,0,0,1,1.41,1.81l-1.1.75c-.18-.27-.37-.54-.58-.83l-1.18,0v1h3.16v1.36H325v1.58c0,1-.55,1.46-1.62,1.46h-1.73L321.33,70a12.15,12.15,0,0,0,1.54.1c.32,0,.5-.16.5-.45V68.51h-5.14A15.37,15.37,0,0,1,320.16,70L319,71.1a13.18,13.18,0,0,0-2.34-2l.63-.61h-3.48V67.15h9.53v-.93c-2.77.11-5.64.21-8.58.3l-.32-1.31c1.93,0,3.84-.08,5.71-.13v-.72h-4.85V59.51Zm0,1.83v-.71H317v.71Zm0,1.1H317v.71h3.23Zm1.67-1.1h3.23v-.71h-3.23Zm3.23,1.1h-3.23v.71h3.23ZM325,64.62l.41-.26h-3.58V65l3.41-.12Z"/><path class="cls-2" d="M344.39,69.69l-.29,1.67h-3.29c-3.83,0-6.21-.21-7.17-.61a5.13,5.13,0,0,1-2-1.57,10.75,10.75,0,0,1-1.05,2.43l-1.17-1a10.52,10.52,0,0,0,1.29-4.69l1.44.19c0,.51-.07,1-.14,1.51a5.82,5.82,0,0,0,1,1.05V65.34h-3V63.85h6.73v1.49h-2.26v1.33h2v1.47h-2V69.4a26.58,26.58,0,0,0,5.95.4C342.2,69.8,343.53,69.76,344.39,69.69Zm-8.16-12.42v5.91h-5.49V57.27Zm-1.57,2.34v-1h-2.35v1Zm0,1.25h-2.35v1h2.35Zm4.64-1.3c.08-.29.15-.56.21-.83H337V57.29h7v1.44H341.1c-.07.29-.13.57-.2.83h2.63v7.57h-1.36c.73.48,1.37,1,1.92,1.39l-1,1a12.11,12.11,0,0,0-2.27-1.79l.66-.64h-2.24l.81.71a10.4,10.4,0,0,1-2.51,1.77l-.85-1.12a8.74,8.74,0,0,0,2.07-1.36h-1.3V59.56ZM342,61.74v-.9H339v.9Zm0,2V63H339v.77Zm0,1.22H339v.89H342Z"/><path class="cls-2" d="M349.32,60a7.81,7.81,0,0,0,1.53-1.31h-4V57.25h5.93v1.21a7.14,7.14,0,0,1-2.32,2.61h1.71v4.14h-3.57l-.21,1.31h3.87a20.31,20.31,0,0,1-.25,3.94c-.19.66-1,1-2.42,1.09-.56,0-1.12,0-1.69-.06l-.4-1.48c.57,0,1.15.07,1.74.07.78,0,1.23-.15,1.36-.4a6.37,6.37,0,0,0,.16-1.76h-4l.54-4.12h3.38V62.51h-3c-.38.12-.75.27-1.13.4l-1-1.32c.57-.16,1.1-.33,1.58-.51h0l.84-.34c-.45-.35-1-.72-1.54-1.09l1.22-.77C348.32,59.29,348.87,59.66,349.32,60Zm8.7-2.53a7.32,7.32,0,0,1-1.13,1.06l-.69.43c.21.16.43.3.65.46.29-.16.58-.32.87-.51a6.25,6.25,0,0,0,1-1l1.17.72a7.48,7.48,0,0,1-1.22,1.23l-.51.35a18.45,18.45,0,0,0,2.27.95l-1.12,1.32c-.48-.19-.91-.4-1.33-.59v1c0,.29.2.43.61.43h.8v1.34H358.2c-1.06,0-1.57-.48-1.57-1.44v-.7h-1.82a3.15,3.15,0,0,1-.32,1.38,3.61,3.61,0,0,1-1.19,1.18l-1.14-1a3.4,3.4,0,0,0,1-1.17,5.49,5.49,0,0,0,.21-1.74h3.26a10.72,10.72,0,0,1-3.6-3.38l1.31-.75a6.7,6.7,0,0,0,.82,1.06c.24-.13.48-.28.7-.42a6.22,6.22,0,0,0,1-.9Zm.76,7.78v1.39a6.89,6.89,0,0,1-1.27,2.24c.93.51,1.78,1,2.53,1.54l-1.15,1.17a23.39,23.39,0,0,0-2.47-1.67,11,11,0,0,1-3.23,1.65l-.63-1.46a10.5,10.5,0,0,0,2.36-1.05c-.61-.34-1.27-.67-1.95-1l1-1c.74.34,1.43.67,2.1,1a5.83,5.83,0,0,0,1-1.39H353V65.26Z"/><path class="cls-2" d="M362.75,71.58l-1.24-1.14A18.36,18.36,0,0,0,363,62.63V57.29h12.63v4.19H364.66v1.35h2.5v-1h1.61v1h2.6v-1H373v1h2.5V64.3H373v1.18h3V67h-1.53l.86.85a8.34,8.34,0,0,1-1.71,1.66,8.81,8.81,0,0,0,2.73.66l-.38,1.5a8.75,8.75,0,0,1-6.66-3.84l1.19-.8a7.86,7.86,0,0,0,1.66,1.65A6.4,6.4,0,0,0,374,67h-6.48v2.8a17.47,17.47,0,0,0,2.25-.74l.31,1.54a38,38,0,0,1-4.52,1.07l-.44-1.47a1.11,1.11,0,0,0,.81-1.12V67h-1.63A17.55,17.55,0,0,1,362.75,71.58Zm1.73-6.1h2.68V64.3H364.6C364.56,64.7,364.53,65.1,364.48,65.48Zm.18-6.67V60h9.25v-1.2Zm6.71,6.67V64.3h-2.6v1.18Z"/><path class="cls-2" d="M358.18,110.63a4.76,4.76,0,0,1,1.59,3.72,6,6,0,0,1-1.68,4.06,22.11,22.11,0,0,1-3.55,2.76,8.63,8.63,0,0,0-3.2,3h8.45v2.47h-12a6.63,6.63,0,0,1,1.7-4.56,23.82,23.82,0,0,1,3.94-3.14,16.36,16.36,0,0,0,2.35-1.92,4,4,0,0,0,1.13-2.71,2.75,2.75,0,0,0-.74-2.09,3.23,3.23,0,0,0-2.24-.67,2.73,2.73,0,0,0-2.37,1.08,5.21,5.21,0,0,0-.87,3h-2.8a6.6,6.6,0,0,1,1.67-4.63,5.73,5.73,0,0,1,4.47-1.87A5.93,5.93,0,0,1,358.18,110.63Z"/><path class="cls-2" d="M364.35,128l-1.28-1.16a9.32,9.32,0,0,0,1.53-5.37v-7.86h9.7v12.55a1.43,1.43,0,0,1-1.64,1.59h-2.05l-.44-1.63c.7,0,1.36.08,1.95.08.32,0,.48-.23.48-.65v-2.62h-6.42A10.27,10.27,0,0,1,364.35,128Zm8.25-12.78h-6.32v2.24h6.32Zm-6.32,6.16h6.32V119h-6.32Z"/><circle class="cls-2" cx="365.63" cy="92.36" r="11.38"/><path class="cls-2" d="M424.71,59.51v-.62h-6.18V57.61h6.18v-.87h1.66v.87h6.18v1.28h-6.18v.62h4.85v4.85H431a13.73,13.73,0,0,1,1.41,1.81l-1.11.75c-.17-.27-.36-.54-.57-.83l-1.19,0v1h3.17v1.36h-3.17v1.58c0,1-.54,1.46-1.61,1.46H426.2L425.86,70a12.15,12.15,0,0,0,1.54.1c.32,0,.49-.16.49-.45V68.51h-5.13A15.37,15.37,0,0,1,424.69,70l-1.13,1.15a13.18,13.18,0,0,0-2.34-2l.62-.61h-3.47V67.15h9.52v-.93c-2.76.11-5.63.21-8.58.3L419,65.21c1.94,0,3.85-.08,5.72-.13v-.72h-4.85V59.51Zm0,1.83v-.71h-3.23v.71Zm0,1.1h-3.23v.71h3.23Zm1.66-1.1h3.24v-.71h-3.24Zm3.24,1.1h-3.24v.71h3.24Zm-.07,2.18.42-.26h-3.59V65l3.41-.12Z"/><path class="cls-2" d="M448.92,69.69l-.29,1.67h-3.29c-3.83,0-6.22-.21-7.18-.61a5.1,5.1,0,0,1-2-1.57,10.35,10.35,0,0,1-1.06,2.43l-1.16-1a10.52,10.52,0,0,0,1.29-4.69l1.44.19c0,.51-.08,1-.14,1.51a5.49,5.49,0,0,0,1,1.05V65.34h-3V63.85h6.72v1.49H439v1.33h2v1.47h-2V69.4a26.58,26.58,0,0,0,5.95.4C446.73,69.8,448.06,69.76,448.92,69.69Zm-8.16-12.42v5.91h-5.49V57.27Zm-1.57,2.34v-1h-2.35v1Zm0,1.25h-2.35v1h2.35Zm4.64-1.3c.08-.29.14-.56.21-.83h-2.51V57.29h7v1.44h-2.95c-.06.29-.12.57-.19.83h2.63v7.57H446.7c.73.48,1.37,1,1.92,1.39l-1,1a12.45,12.45,0,0,0-2.27-1.79l.66-.64h-2.25l.82.71A10.4,10.4,0,0,1,442,69.61l-.85-1.12a8.67,8.67,0,0,0,2.06-1.36H442V59.56Zm2.72,2.18v-.9h-3.07v.9Zm0,2V63h-3.07v.77Zm0,1.22h-3.07v.89h3.07Z"/><path class="cls-2" d="M451.28,71.58,450,70.44a18.35,18.35,0,0,0,1.46-7.81V57.29h12.63v4.19H453.19v1.35h2.5v-1h1.61v1h2.59v-1h1.64v1H464V64.3h-2.49v1.18h3V67H463l.87.85a8.6,8.6,0,0,1-1.71,1.66,8.81,8.81,0,0,0,2.73.66l-.38,1.5a8.74,8.74,0,0,1-6.66-3.84L459,67a8.14,8.14,0,0,0,1.67,1.65A6.4,6.4,0,0,0,462.49,67H456v2.8a17.47,17.47,0,0,0,2.25-.74l.31,1.54a38,38,0,0,1-4.52,1.07l-.45-1.47a1.11,1.11,0,0,0,.82-1.12V67h-1.63A17.55,17.55,0,0,1,451.28,71.58Zm1.73-6.1h2.68V64.3h-2.57C453.09,64.7,453.06,65.1,453,65.48Zm.18-6.67V60h9.25v-1.2Zm6.7,6.67V64.3H457.3v1.18Z"/><path class="cls-2" d="M470.55,65a17.66,17.66,0,0,1-2.77,5.73l-1.46-.91a15.39,15.39,0,0,0,2.58-5.19Zm9.89-3.49v1.65h-6V71.6h-1.69V63.16h-6.09V61.51Zm-1.42-4v1.63h-10.9V57.48Zm1.68,12.44-1.52.68a37.81,37.81,0,0,0-2.77-5.66l1.5-.51A34.9,34.9,0,0,1,480.7,69.92Z"/><path class="cls-2" d="M645.39,70.84v2h5.31v1.63h-5.31v2.32h6.16v1.63h-4.82a14.29,14.29,0,0,0,5.22,4.9l-1.18,1.5a16.63,16.63,0,0,1-5.35-6.4h0v7.13h-1.7V78.44h0a14.65,14.65,0,0,1-5.53,6.42l-1-1.58a13,13,0,0,0,5.16-4.84h-4.82V76.81h6.16V74.49h-5.2V72.86h5.2v-2Z"/><path class="cls-2" d="M659.69,74H654V72.34h5.7V70.82h1.7v1.52h5.71V74h-5.71v4.19A16.85,16.85,0,0,0,668,83.31L667,84.88a18.66,18.66,0,0,1-5.65-4.32v5h-1.7v-5a18.29,18.29,0,0,1-5.62,4.37l-.88-1.52a17.1,17.1,0,0,0,6.5-5.15Zm-4.94,5.86-1-1.27a7.66,7.66,0,0,0,2.57-4.25l1.54.27a12.37,12.37,0,0,1-.72,2.13,12.59,12.59,0,0,1,1.95,1.23l-.89,1.39a12.23,12.23,0,0,0-1.8-1.31A8.48,8.48,0,0,1,654.75,79.82Zm8.43-.47-1-1.31a7,7,0,0,0,2.12-3.71l1.55.27a11.36,11.36,0,0,1-.63,2,13.26,13.26,0,0,1,2.24,1.5l-.92,1.44a13.67,13.67,0,0,0-2-1.61A7.77,7.77,0,0,1,663.18,79.35Z"/><path class="cls-2" d="M630.76,96.15l-1.42-.92a10.22,10.22,0,0,0,1.95-3.57l1.59.36c-.1.28-.18.54-.28.8h3.72v1.39h-2.39c.32.43.59.85.82,1.23l-1.51.56a12.89,12.89,0,0,0-1-1.79H632A13.4,13.4,0,0,1,630.76,96.15Zm5,2.76V97.78h-5.48V96.34h5.48v-.85h1.66v.85h5.49v1.44h-5.49v1.13h4.84v1.44h-1.4v1.14h2.77V103h-2.77V105c0,1.06-.59,1.59-1.76,1.59h-2.22l-.37-1.57c.72.06,1.39.11,2,.11.44,0,.66-.18.66-.53V103H629.5v-1.46h9.65v-1.14h-8.21V98.91Zm-.56,6.33-1.31.91A16.84,16.84,0,0,0,632,104l1.34-.85A19.06,19.06,0,0,1,635.15,105.24Zm2.5-9.72-1.36-.83a9.73,9.73,0,0,0,1.44-3l1.56.33c-.08.27-.16.53-.25.79h4.27v1.39h-2.43a11.22,11.22,0,0,1,.8,1.26l-1.46.57a14.37,14.37,0,0,0-1.07-1.83h-.69A14.8,14.8,0,0,1,637.65,95.52Z"/><path class="cls-2" d="M651.28,95.57v-1h1.61v1H656v1.14A17.52,17.52,0,0,0,657.89,95l1.2.92A21,21,0,0,1,657,97.86h2.49v1.47h-4.7l-.58.32-1.18.58h4.77v6.42h-1.62v-.6h-6.37v.6h-1.62v-4.58l-2.35.75-.67-1.46a29.24,29.24,0,0,0,6.37-2h-5.83V97.86h5.59V97h-4.13V95.57Zm-2.44-3v-.77h1.65v.77h1.72v1.47h-1.72v1h-1.65v-1h-3.26V92.61Zm7.32,9h-6.37v.91h6.37Zm-6.37,3.14h6.37v-.95h-6.37Zm6.47-12.87v.77h3.24v1.47h-3.24v1h-1.65v-1h-1.73V92.61h1.73v-.77ZM655.63,97h-2.74v.88h1.43C654.78,97.57,655.21,97.27,655.63,97Z"/><path class="cls-2" d="M661.56,99.86,661,98.07a17.34,17.34,0,0,0,3.67-6.39l1.55.74A18.4,18.4,0,0,1,664.59,96V106.6h-1.67V98.34C662.49,98.85,662,99.36,661.56,99.86Zm5-1.49-1.44-.9a17.54,17.54,0,0,0,2.5-5.66l1.57.33c-.13.48-.28,1-.42,1.43h6.67v1.09a23.54,23.54,0,0,1-.91,2.85l-1.6-.47a8.92,8.92,0,0,0,.8-1.87h-5.54A20.38,20.38,0,0,1,666.54,98.37Zm2.31.38a26.73,26.73,0,0,1-2.15,5.77l-1.57-.56a26,26,0,0,0,2.21-5.62Zm-.93,7.74-.37-1.57c.64.06,1.26.11,1.84.11a.53.53,0,0,0,.58-.61V96.27h1.61v8.55a1.46,1.46,0,0,1-1.63,1.67Zm7.92-2.36-1.47.66a46.34,46.34,0,0,0-2-6.13l1.47-.5A47.46,47.46,0,0,1,675.84,104.13Z"/><path class="cls-2" d="M462.71,110.63a4.76,4.76,0,0,1,1.59,3.72,6,6,0,0,1-1.68,4.06,22.78,22.78,0,0,1-3.56,2.76,8.66,8.66,0,0,0-3.19,3h8.45v2.47H452.37a6.63,6.63,0,0,1,1.7-4.56A23.82,23.82,0,0,1,458,119a16.36,16.36,0,0,0,2.35-1.92,4.07,4.07,0,0,0,1.13-2.71,2.75,2.75,0,0,0-.75-2.09,3.18,3.18,0,0,0-2.23-.67,2.72,2.72,0,0,0-2.37,1.08,5.21,5.21,0,0,0-.87,3h-2.81a6.65,6.65,0,0,1,1.68-4.63,5.73,5.73,0,0,1,4.47-1.87A6,6,0,0,1,462.71,110.63Z"/><path class="cls-2" d="M468.88,128l-1.28-1.16a9.24,9.24,0,0,0,1.52-5.37v-7.86h9.7v12.55a1.42,1.42,0,0,1-1.63,1.59h-2.05l-.45-1.63c.71,0,1.36.08,2,.08.32,0,.48-.23.48-.65v-2.62h-6.42A10.37,10.37,0,0,1,468.88,128Zm8.25-12.78H470.8v2.24h6.33Zm-6.33,6.16h6.33V119H470.8Z"/><circle class="cls-2" cx="470.16" cy="92.36" r="11.38"/><path class="cls-2" d="M523.89,59.3V57.69h12.5V59.3H531v10h6.1V71h-14V69.34h6.23v-10Z"/><path class="cls-2" d="M539.07,64.76,538.52,63a17.27,17.27,0,0,0,3.6-6.27l1.58.73a17.82,17.82,0,0,1-1.57,3.44V71.65h-1.69V63.27C540,63.79,539.56,64.28,539.07,64.76Zm4.52-.32L542.39,63a19.93,19.93,0,0,0,3.36-6.37l1.7.39c-.23.64-.45,1.24-.68,1.84h6.46V60.5h-5v2.13h4.42v1.64H548.2v2.19h4.42v1.62H548.2v3.57h-1.7V60.5H546A19.68,19.68,0,0,1,543.59,64.44Z"/><path class="cls-2" d="M558,56.92c-.13,1-.24,1.91-.37,2.75h2.44v.91a19.7,19.7,0,0,1-1.24,6.52c.56.53,1,1,1.43,1.42l-1.14,1.32c-.3-.37-.66-.76-1-1.16a11.64,11.64,0,0,1-2.35,3l-1.06-1.33a9.68,9.68,0,0,0,2.24-2.8c-.62-.61-1.31-1.24-2.08-1.91.34-1.34.64-2.8.91-4.35h-1V59.67H556c.13-.94.26-1.92.38-2.91Zm.53,4.34h-1.14c-.25,1.53-.53,2.83-.81,3.87l1,.87A16.62,16.62,0,0,0,558.55,61.26Zm4.66,7.12a12.42,12.42,0,0,1-2.77,2.79l-1-1.27a10.43,10.43,0,0,0,2.64-2.48Zm2.93-10.24V56.78h1.58v1.36h1.34v1.44h-1.34V64.4H565.4v1.08h4.05V67H565.4v4.56h-1.63V67h-4V65.48h4V64.4h-2.34V59.58H560V58.14h1.39V56.78H563v1.36Zm0,2.43v-1H563v1Zm0,1.38H563v1h3.11Zm3.49,8-1.06,1.17a16.84,16.84,0,0,0-2.63-2.64l1-1.09A21.37,21.37,0,0,1,569.63,70Z"/><path class="cls-2" d="M578.68,56.74a22.22,22.22,0,0,0,6.93,5.3l-.91,1.62a22.4,22.4,0,0,1-2.39-1.47v1.1h-8.48V62.17c-.77.53-1.59,1-2.45,1.52l-.9-1.63a23.14,23.14,0,0,0,7-5.32Zm4.67,14.84h-1.61v-.81H574.4v.81h-1.61V64.86h10.56Zm-1.61-2.4V66.43H574.4v2.75Zm-.13-7.51a21.17,21.17,0,0,1-3.54-3.41,19.85,19.85,0,0,1-3.55,3.41Z"/><path class="cls-2" d="M567.24,110.63a4.75,4.75,0,0,1,1.58,3.72,5.93,5.93,0,0,1-1.68,4.06,22.11,22.11,0,0,1-3.55,2.76,8.58,8.58,0,0,0-3.19,3h8.45v2.47h-12a6.63,6.63,0,0,1,1.7-4.56,23,23,0,0,1,3.94-3.14,16.36,16.36,0,0,0,2.35-1.92,4.07,4.07,0,0,0,1.13-2.71,2.75,2.75,0,0,0-.75-2.09,3.2,3.2,0,0,0-2.23-.67,2.76,2.76,0,0,0-2.38,1.08,5.29,5.29,0,0,0-.86,3H557a6.65,6.65,0,0,1,1.68-4.63,5.73,5.73,0,0,1,4.47-1.87A6,6,0,0,1,567.24,110.63Z"/><path class="cls-2" d="M573.41,128l-1.28-1.17a9.31,9.31,0,0,0,1.52-5.37v-7.85h9.7v12.54a1.42,1.42,0,0,1-1.63,1.59h-2.05l-.45-1.63c.71,0,1.36.08,2,.08.32,0,.48-.23.48-.64v-2.63h-6.42A10.54,10.54,0,0,1,573.41,128Zm8.25-12.79h-6.33v2.24h6.33Zm-6.33,6.16h6.33V119h-6.33Z"/><circle class="cls-2" cx="574.69" cy="92.36" r="11.38"/></g></g></svg>