<svg xmlns="http://www.w3.org/2000/svg" viewBox="0 0 696.41 336"><defs><style>.cls-1{fill:#6fa2d9;}.cls-2{fill:#fff;}.cls-3{fill:#8fc6dc;}.cls-4{fill:none;stroke:#8fc6dc;stroke-miterlimit:10;stroke-width:0.92px;}</style></defs><title>six-skills</title><g id="圖層_2" data-name="圖層 2"><g id="_" data-name="="><path class="cls-1" d="M51.26,47.32c2.75,0,4.14,1.16,4.14,3.5S54,54.36,51.23,54.36H48.39v4.39H46.52V47.32Zm-2.87,5.44h2.72a3,3,0,0,0,1.83-.45,1.8,1.8,0,0,0,.58-1.49,1.67,1.67,0,0,0-.6-1.45,2.87,2.87,0,0,0-1.81-.45H48.39Z"/><path class="cls-1" d="M58,50.47l2.19,5.89,2.09-5.89h2L59.74,61.91h-2l1.45-3.36L56,50.47Z"/><path class="cls-1" d="M67.85,50.47h1.84V52H67.85v4.68a.65.65,0,0,0,.13.45.55.55,0,0,0,.41.14h1.09v1.51H68.09a2,2,0,0,1-1.58-.58A2.17,2.17,0,0,1,66,56.65V52H64.54v-1.5H66V48.55l1.83-.75Z"/><path class="cls-1" d="M72.87,47.09v4.48a2.89,2.89,0,0,1,2.53-1.32,2.76,2.76,0,0,1,2.26.88,3.85,3.85,0,0,1,.7,2.49v5.13H76.54V53.94a2.62,2.62,0,0,0-.42-1.61,1.69,1.69,0,0,0-1.41-.6,1.56,1.56,0,0,0-1.34.68,2.71,2.71,0,0,0-.5,1.71v4.63H71.05V47.09Z"/><path class="cls-1" d="M87.15,51.48a4.45,4.45,0,0,1,1.13,3.14,4.4,4.4,0,0,1-1.12,3.1,4.32,4.32,0,0,1-6.08,0,4.87,4.87,0,0,1,0-6.24,3.86,3.86,0,0,1,3-1.23A3.93,3.93,0,0,1,87.15,51.48Zm-4.79,1.15a3.49,3.49,0,0,0-.53,2,3.38,3.38,0,0,0,.53,2,2.17,2.17,0,0,0,3.52,0,3.82,3.82,0,0,0,0-3.95,2.17,2.17,0,0,0-3.52,0Z"/><path class="cls-1" d="M97.26,53.64v5.11H95.43v-5c0-1.36-.62-2-1.87-2a1.65,1.65,0,0,0-1.18.48,2.22,2.22,0,0,0-.67,1.52v5H89.88V50.47h1.83v1a3.3,3.3,0,0,1,1.08-.88,3,3,0,0,1,1.36-.3C96.22,50.25,97.26,51.37,97.26,53.64Z"/><path class="cls-1" d="M101.24,49.83V48c-.59.08-1.2.15-1.81.21l-.33-1.57a24.79,24.79,0,0,0,5.28-.94l.59,1.56a18.48,18.48,0,0,1-2.14.48v2.07h1.79v1.55h-1.79V52c.7.64,1.42,1.33,2.14,2.1L104,55.54c-.45-.76-.85-1.42-1.2-1.93v6.74h-1.59V53.91a16.69,16.69,0,0,1-1.81,3.49l-.73-1.87a11.72,11.72,0,0,0,2.35-4.15h-2V49.83Zm7,5.35V53.72c-1,.08-2,.14-3,.21l-.31-1.46a70.82,70.82,0,0,0,7.62-.7l.53,1.39c-1,.16-2.08.29-3.23.42v1.6H113v1.48h-3.17v1.7h3.71v1.52h-9V58.36h3.65v-1.7h-3.1V55.18Zm4.49-9.08V51H105.5V46.1Zm-1.62,1.47h-3.94v2h3.94Z"/><path class="cls-1" d="M122.35,52.1v1.57h-2.63v3.51c1.09-.23,2.18-.48,3.25-.77V58q-3.52.84-7.54,1.44l-.38-1.58c1-.12,2-.26,3-.42V53.67h-2.63V52.1Zm.46-3.82c0-.87-.06-1.75-.06-2.66h1.73c0,.93,0,1.82.06,2.66h2.29a15.44,15.44,0,0,0-1.28-2l1.37-.67a21.38,21.38,0,0,1,1.38,2.11l-1,.52h2v1.63h-4.64a25.39,25.39,0,0,0,1,5.92c.67,1.79,1.2,2.69,1.61,2.69.23,0,.47-.85.74-2.51l1.5.77c-.48,2.41-1.18,3.63-2.12,3.63-1.59-.1-2.85-1.94-3.81-5.49a31.57,31.57,0,0,1-.69-5h-7.7V48.28Z"/><path class="cls-1" d="M133.32,47.46a12.72,12.72,0,0,0-.75-1.47l1.58-.43a16.87,16.87,0,0,1,.77,1.9H137V49h-6.09V47.46Zm3.23,11.59a13.43,13.43,0,0,0,3.64-1.79,8.2,8.2,0,0,1-1.88-3.38h-.86v-1.6h7.09V53.8a8.32,8.32,0,0,1-2,3.55,13.78,13.78,0,0,0,3.2,1.73l-.89,1.44a14.72,14.72,0,0,1-3.46-2.1,13.28,13.28,0,0,1-4.08,2.09l-.79-1.22v.19h-3.61v.69h-1.57V54.5h5.18Zm-.12-9.19V51.3H131.5V49.86Zm0,2.23v1.44h-4.92V52.09ZM135,58V55.94h-2.09V58Zm8.68-11.93V49.4c0,.35.21.54.64.54h1v1.52h-1.42c-1.24,0-1.85-.56-1.85-1.68V47.65h-1.95v.45a4.23,4.23,0,0,1-2.26,3.83l-1.1-1.24a2.62,2.62,0,0,0,1.71-2.41v-2.2Zm-2.39,10.17a8.57,8.57,0,0,0,1.59-2.37h-3A6.47,6.47,0,0,0,141.32,56.25Z"/><path class="cls-1" d="M149.13,47.44c-.19-.49-.42-1-.64-1.45l1.6-.43a19.1,19.1,0,0,1,.64,1.88h2V49h-5.86V47.44Zm-.19,13h-1.6V54.46h4.93v5.71h-1.6v-.66h-1.73Zm3.18-10.54V51.3h-4.66V49.85Zm0,2.22v1.47h-4.66V52.07ZM150.67,56h-1.73v2h1.73Zm7.21-10.36v5.09h3.65v1.6h-3.65v8.1h-1.64v-8.1h-3.45v-1.6h3.45V45.62Z"/><path class="cls-1" d="M164.09,60.46l-1.28-1.15a8.13,8.13,0,0,0,.94-4V51.19h6.34v7.92c0,.82-.5,1.24-1.49,1.24h-1.42l-.43-1.54c.49,0,1,.08,1.37.08.24,0,.37-.11.37-.34V57.18c-.93.2-1.9.4-2.91.56l-.31-1.19A9.15,9.15,0,0,1,164.09,60.46Zm7-10.45-1.33.94c-.16-.32-.34-.64-.51-1-1.67.26-3.67.45-6,.58l-.44-1.4a2.16,2.16,0,0,0,.75-.4,15.36,15.36,0,0,0,2.14-3.2l1.6.48a11.34,11.34,0,0,1-2.17,3c1-.06,2.17-.17,3.36-.3-.26-.42-.55-.83-.83-1.25l1.28-.82A28.81,28.81,0,0,1,171.12,50Zm-3.51,5.23c-.53-.13-1.07-.22-1.63-.32a4.83,4.83,0,0,0-.61-.1v.32c0,.4,0,.79-.06,1.17a27,27,0,0,0,3.18-.46V52.63h-3.12v.93l1.28.19,1.49.27Zm5.3,4.93c-1.15,0-1.73-.51-1.73-1.52V53.27h1.65v1.41l4-.29v1.54l-4,.29v2.06c0,.27.17.42.54.42h1.84a.55.55,0,0,0,.5-.24A3.94,3.94,0,0,0,176,56.9l1.52.48a4.47,4.47,0,0,1-.64,2.42,2,2,0,0,1-1.32.37Zm-.07-14.29v1.58l3.93-.29v1.54l-3.93.29v1.74a.46.46,0,0,0,.53.5h3.76v1.53h-4.25c-1.12,0-1.68-.54-1.68-1.6V45.88Z"/><path class="cls-1" d="M186.35,45.64v1.72l0,1.12h6.07q-.1,4.34-.34,7a10.05,10.05,0,0,1-.83,3.71,2.17,2.17,0,0,1-1.84,1.11h-2.28l-.44-1.62c.67,0,1.31.07,1.92.07.8,0,1.31-.55,1.56-1.61a42.36,42.36,0,0,0,.52-7h-4.47a18.68,18.68,0,0,1-1.46,5.8A9.9,9.9,0,0,1,180,60.44l-.9-1.47a9.09,9.09,0,0,0,4.26-4.32,17.75,17.75,0,0,0,1-4.55H180V48.48h4.56l.05-1.12V45.64Z"/><path class="cls-1" d="M8.16,163.58a20,20,0,0,1-5.57,1.33v4A23.08,23.08,0,0,1,1.17,177L0,175.81a21.25,21.25,0,0,0,1.1-6.93v-5.36A20.56,20.56,0,0,0,7,162.3ZM5,165.28v11.57H3.46V165.28Zm2.28,0c0,1,0,2.94.09,5.84.1,1.73.58,2.83,1.46,3.28,1.06.7,3.09,1.06,6.1,1.06L14.28,177c-3.27-.06-5.49-.56-6.69-1.48A4.2,4.2,0,0,1,6.16,173a45.34,45.34,0,0,1-.38-7.74Zm7.09,4H9.8v2.13a.47.47,0,0,0,.54.53h2.39a.53.53,0,0,0,.41-.34,9.81,9.81,0,0,0,.16-1.42l1.49.48a12.44,12.44,0,0,1-.3,1.82,1.24,1.24,0,0,1-1.25.95H9.67c-.91,0-1.36-.48-1.36-1.43v-8.91h6ZM9.8,164.6v3.12h.83V164.6Zm3.09,3.12V164.6H12v3.12Z"/><path class="cls-1" d="M19.2,170.78v-1h1.57v1h2.38v3.56h-.48a20.17,20.17,0,0,1,.89,2.57l-1.29.35c-.08-.28-.16-.57-.22-.83a50.08,50.08,0,0,1-5.46.77l-.21-1.39c1-.05,1.94-.1,2.77-.16v-1.31H16.78v-3.56Zm3.39-7.42v-1H24.2v1h4.67v3.74h-.26a23,23,0,0,1,1.76,2.47l-1.16.86c-.26-.45-.52-.86-.77-1.25-2.4.23-6.07.42-11,.56L17,168.28l5.56-.07V167.1H18v-3.74ZM19.25,172h-1v1.23h1Zm3.41-7.25H19.55v1.06h3.11Zm-1,7.25h-1v1.23h1Zm-1,3.54,1-.15c-.09-.28-.19-.54-.28-.8l.6-.2H20.72Zm5.43-4.71v-1.15h1.57v1.15h2.45v3.56h-.5a19.52,19.52,0,0,1,1.07,2.57l-1.29.35c-.1-.3-.18-.59-.28-.84a44.32,44.32,0,0,1-5.36.73l-.19-1.36c.93,0,1.76-.08,2.51-.14v-1.31h-2.4v-3.56Zm1.18-6.08h-3.2v1.06h3.2Zm-3.15,3.47c1.34,0,2.5-.09,3.47-.13-.16-.2-.3-.4-.45-.57l.48-.37h-3.5Zm2,3.78h-1v1.23h1Zm2.45,0h-1v1.23h1Zm-1,3.54,1.06-.15c-.13-.25-.24-.51-.36-.75l.76-.25H27.7Z"/><path class="cls-1" d="M33.39,164.41v-1.57h10v.88a21.23,21.23,0,0,1-.93,3.49h3v1.48a10,10,0,0,1-2.84,5.08,19.77,19.77,0,0,0,3.88,1.93l-1.14,1.48a18,18,0,0,1-4.1-2.25,17.86,17.86,0,0,1-4.8,2.32l-.83-1.54a15.71,15.71,0,0,0,4.26-2,10.17,10.17,0,0,1-2.84-5h0c-.45,3.68-1.67,6.48-3.65,8.37L32.08,176c2.27-2.11,3.43-5.52,3.46-10.2v-1.39Zm7.45,2.8a23.09,23.09,0,0,0,.73-2.8H37.22v1.39l0,1.41Zm2.86,1.56H38.5a8.89,8.89,0,0,0,2.69,3.93A9.22,9.22,0,0,0,43.7,168.77Z"/><path class="cls-1" d="M58.6,164.86c-.07.21-.13.42-.2.61a7.6,7.6,0,0,0,4.25,1.81L62,168.67a8.87,8.87,0,0,1-1.15-.26v6.53h-2.7a39.18,39.18,0,0,1,4.45,1L62,177.28a33.94,33.94,0,0,0-5.34-1.36l.49-1h-3.6l.64.85a18.17,18.17,0,0,1-5.09,1.49l-.75-1.3a21.79,21.79,0,0,0,4.48-1H50.14v-6.7h3.91l-.61-1c2.12-.37,3.36-1.27,3.75-2.71ZM53.06,166v1.43H48.4V166Zm-.34-2.88v1.41h-4v-1.41Zm6.47,7v-.67H51.78v.67Zm0,1.71v-.64H51.78v.64Zm0,1.06H51.78v.7h7.41Zm-5.35-6.71-.91-1.2a5.61,5.61,0,0,0,2.27-2.8l1.54.19c-.1.26-.18.48-.27.7H62v1.16a9.38,9.38,0,0,1-1.37,2.11l-1.13-.91a6.41,6.41,0,0,0,.77-1H55.65A8.78,8.78,0,0,1,53.84,166.22Zm6.48,2a7.61,7.61,0,0,1-2.56-1.67,5.26,5.26,0,0,1-2.61,1.67Z"/><path class="cls-1" d="M66.4,170.37a30.73,30.73,0,0,1-1.14,4.4l-1.21-.43a23.48,23.48,0,0,0,1.15-4.29Zm0-3.38-1.28.35a26.3,26.3,0,0,0-.85-3.23l1.38-.45C66,164.62,66.21,165.74,66.43,167Zm.34.81v-5.47H68.4v5.47h2.08v1.62H68.4v7.68H66.77v-7.68H64.51V167.8Zm3.84-4.11a14.91,14.91,0,0,1-.64,3.54l-1.23-.4a17.17,17.17,0,0,0,.48-3.33Zm.19,10-1.25.32c-.19-1.3-.43-2.53-.72-3.72l1.08-.35A32.56,32.56,0,0,1,70.8,173.73Zm6.58-11.35v8.91l1.3-.19.27,1.6-1.57.24v4.2H75.76v-4l-4.59.69-.24-1.6,4.83-.74v-9.15ZM75,169.69l-1.12,1.09a15.66,15.66,0,0,0-2.66-2.53l1.09-1A22,22,0,0,1,75,169.69Zm.46-3.9-1.1,1.09a16.25,16.25,0,0,0-2.72-2.37l1.07-1A19.2,19.2,0,0,1,75.41,165.79Z"/><path class="cls-1" d="M84,168.61l-1.18,1.18a16.2,16.2,0,0,0-2.61-2.35l1.18-1.16A18.56,18.56,0,0,1,84,168.61Zm0,2.78a49.31,49.31,0,0,1-2,5.55l-1.53-.7a46.93,46.93,0,0,0,2.11-5.43Zm.31-6.88-1.19,1.18a15.05,15.05,0,0,0-2.42-2.08l1.19-1.15A18.29,18.29,0,0,1,84.31,164.51Zm.92,12.67-1.2-1.1a4.29,4.29,0,0,0,1.62-3.35v-3.47h8v6.36c0,1-.58,1.45-1.7,1.45H89.84l-.38-1.44c.72,0,1.39.07,2,.07.35,0,.53-.23.53-.64v-.4H86.88A5.69,5.69,0,0,1,85.23,177.18Zm3.46-14v-.88h1.63v.88h4.07v1.34H90.32v.67h3.46v1.32H90.32v.68h4.52v1.38H84.23v-1.38h4.46v-.68h-3.3v-1.32h3.3v-.67h-4v-1.34Zm-1.49,9.42a4.85,4.85,0,0,1,0,.76H92v-.79H87.2ZM92,170.57H87.2v.8H92Z"/><path class="cls-1" d="M99.84,171.21a55.21,55.21,0,0,1-2,5.75l-1.68-.74a50.09,50.09,0,0,0,2.18-5.61Zm0-2.6-1.18,1.18a16,16,0,0,0-2.52-2.35l1.19-1.16A18,18,0,0,1,99.89,168.61Zm.34-4.1L99,165.69a14.55,14.55,0,0,0-2.48-2.08l1.2-1.15A17.68,17.68,0,0,1,100.23,164.51Zm1.45,3.79-1.52-.94a14.93,14.93,0,0,0,1.75-4.49l1.6.36c-.11.48-.23.94-.34,1.37h1.55v-2.14h1.7v2.14h3.33v1.62h-3.33v2.5h4.07v1.61h-2.61v4.45c0,.39.12.58.4.58h.32a.55.55,0,0,0,.41-.21,7.9,7.9,0,0,0,.26-2.29l1.54.53a8.75,8.75,0,0,1-.56,3,1.75,1.75,0,0,1-1.3.45h-1.22a1.29,1.29,0,0,1-1.1-.48,1.94,1.94,0,0,1-.39-1.22v-4.85h-1.55a11.91,11.91,0,0,1-.57,3.3,6.62,6.62,0,0,1-3.41,3.57l-1.12-1.36a5.66,5.66,0,0,0,2.92-2.74,9.42,9.42,0,0,0,.55-2.77h-2.74v-1.61h4.4v-2.5h-2.08A17.4,17.4,0,0,1,101.68,168.3Z"/><path class="cls-1" d="M113.34,177.2l-1.28-1.15a8.2,8.2,0,0,0,1-4v-4.08h6.34v7.93c0,.81-.5,1.23-1.49,1.23h-1.43l-.43-1.54c.5,0,1,.08,1.38.08.24,0,.37-.11.37-.33v-1.38c-.93.21-1.91.4-2.92.56l-.3-1.19A9.15,9.15,0,0,1,113.34,177.2Zm7-10.45-1.33.94q-.24-.48-.51-1c-1.66.26-3.66.45-6,.58l-.45-1.39a2.33,2.33,0,0,0,.75-.4,15.48,15.48,0,0,0,2.15-3.21l1.6.48a11.36,11.36,0,0,1-2.18,3.05c1.06-.07,2.18-.18,3.36-.31-.25-.41-.54-.83-.83-1.25l1.28-.81A26.71,26.71,0,0,1,120.37,166.75Zm-3.5,5.23c-.53-.13-1.08-.22-1.64-.32a3.33,3.33,0,0,0-.61-.09v.32c0,.4,0,.78-.06,1.16a27.21,27.21,0,0,0,3.19-.46v-3.22h-3.13v.93l1.29.19c.38.07.88.15,1.48.28Zm5.29,4.93c-1.15,0-1.72-.51-1.72-1.52V170h1.64v1.41l4-.29v1.54l-4,.29V175c0,.28.18.42.55.42h1.84a.56.56,0,0,0,.5-.24,4.21,4.21,0,0,0,.25-1.55l1.52.48a4.36,4.36,0,0,1-.64,2.41,2,2,0,0,1-1.31.37Zm-.06-14.29v1.58l3.92-.28v1.53l-3.92.29v1.74a.46.46,0,0,0,.53.5h3.76v1.54h-4.26c-1.12,0-1.68-.55-1.68-1.6v-5.3Z"/><path class="cls-1" d="M135.6,162.38v1.73l0,1.12h6.06c-.06,2.88-.17,5.22-.33,7a10.34,10.34,0,0,1-.84,3.72,2.14,2.14,0,0,1-1.84,1.1h-2.27l-.45-1.62c.67,0,1.31.07,1.92.07.8,0,1.31-.55,1.57-1.6a42.92,42.92,0,0,0,.51-7h-4.46a18.88,18.88,0,0,1-1.46,5.8,9.9,9.9,0,0,1-4.67,4.54l-.9-1.47a9.14,9.14,0,0,0,4.26-4.32,18.08,18.08,0,0,0,1-4.55h-4.44v-1.61h4.57l0-1.12v-1.73Z"/><path class="cls-2" d="M205.79,115a52.5,52.5,0,1,1-52.5,52.5,52.49,52.49,0,0,1,52.5-52.5Z"/><path class="cls-1" d="M205.79,113.14a54.39,54.39,0,1,1-54.39,54.39,54.4,54.4,0,0,1,54.39-54.39Zm0,10a44.39,44.39,0,1,0,44.39,44.39,44.38,44.38,0,0,0-44.39-44.39Z"/><path class="cls-1" d="M63.05,283.92l-1.31.34c-.05-.22-.09-.43-.16-.64a25.8,25.8,0,0,1-4.14.9L57,283.08a2.9,2.9,0,0,0,.7-.44,13.38,13.38,0,0,0,1.73-2.38l-2.09.32-.4-1.42a1.69,1.69,0,0,0,.65-.58,29.8,29.8,0,0,0,1.76-4.24l1.52.61A24.31,24.31,0,0,1,58.76,279c.52-.06,1-.14,1.54-.22.32-.58.64-1.17,1-1.81l1.45.54a35.77,35.77,0,0,1-3.47,5.33c.66-.12,1.33-.27,2-.46-.14-.43-.29-.85-.43-1.25l1.25-.41A22.41,22.41,0,0,1,63.05,283.92ZM58.8,285.3a30.09,30.09,0,0,1-.39,3.7L57,288.55a18.17,18.17,0,0,0,.48-3.42Zm2.14,2.83-1.39.34c-.1-1.25-.21-2.37-.34-3.33l1.22-.25C60.62,285.88,60.8,287,60.94,288.13Zm1.91-1.29-1.22.57a25,25,0,0,0-.61-2.56l1.15-.4A23.44,23.44,0,0,1,62.85,286.84Zm8.83-5.11-1.26.88c-.2-.35-.4-.72-.63-1.09l-.64.07v5.68a.24.24,0,0,0,.23.27H70c.26,0,.39-.24.42-.62s.06-.95.06-1.65l1.41.51a6.26,6.26,0,0,1-.35,2.71,2,2,0,0,1-1.46.54h-.78c-1.17,0-1.75-.48-1.75-1.44v-5.84l-1.28.11a15,15,0,0,1-.78,4.45,7.43,7.43,0,0,1-2.51,3L62,288a6,6,0,0,0,2.11-2.43,11.94,11.94,0,0,0,.64-3.64l-1.42.1-.4-1.49a3,3,0,0,0,.59-.16,10,10,0,0,0,1.78-2.87H62.91V276H66c.23-.51.47-1.07.71-1.65l1.57.6L67.74,276h3.72v1.55H67c-.66,1.25-1.25,2.28-1.76,3.05l3.76-.37c-.27-.42-.56-.82-.85-1.22l1.23-.77A33.15,33.15,0,0,1,71.68,281.73Z"/><path class="cls-1" d="M75.39,276.31c-.19-.5-.42-1-.64-1.46l1.6-.43a19.22,19.22,0,0,1,.64,1.89h2v1.53H73.13v-1.53Zm-.19,12.94H73.6v-5.93h4.93V289H76.92v-.65H75.2Zm3.18-10.54v1.45H73.72v-1.45Zm0,2.22v1.47H73.72v-1.47Zm-1.46,3.91H75.2v2h1.72Zm7.22-10.36v5.09h3.65v1.6H84.14v8.1H82.5v-8.1H79.05v-1.6H82.5v-5.09Z"/><path class="cls-1" d="M90.4,276.53V275h10v.88a21.57,21.57,0,0,1-.92,3.49h3v1.47a10.08,10.08,0,0,1-2.83,5.09,20.23,20.23,0,0,0,3.87,1.92l-1.14,1.49a18.59,18.59,0,0,1-4.1-2.25,17.58,17.58,0,0,1-4.8,2.32l-.83-1.54a15.57,15.57,0,0,0,4.26-2,10.13,10.13,0,0,1-2.83-5h0c-.45,3.69-1.67,6.49-3.65,8.37l-1.3-1.13c2.28-2.11,3.43-5.52,3.46-10.2v-1.39Zm7.44,2.8a21.32,21.32,0,0,0,.74-2.8H94.22v1.39l0,1.41Zm2.86,1.55H95.5a8.86,8.86,0,0,0,2.69,3.94A9.07,9.07,0,0,0,100.7,280.88Z"/><path class="cls-1" d="M108.28,289.22h-1.55v-6.93a18.7,18.7,0,0,1-1.12,2.64l-.67-1.71a14.15,14.15,0,0,0,1.71-4.21h-1.33v-1.55h1.41v-3h1.55v3h1.09V279h-1.09v.74c.5.57,1,1.18,1.49,1.85l-.83,1.25c-.26-.46-.46-.86-.66-1.21Zm7.77-1.42a12,12,0,0,1-2.82,1.47l-.66-1.44a10.9,10.9,0,0,0,2.66-1.36,11.79,11.79,0,0,1-.86-2.5v0h-2.12c0,.19,0,.37,0,.55a11,11,0,0,1,2.16,1.32l-.83,1.27a10.85,10.85,0,0,0-1.51-1.12,5.23,5.23,0,0,1-2.25,3.26l-1-1.31a4,4,0,0,0,1.89-2.74c.06-.36.1-.78.13-1.23h-1.49v-1.47h4.79a27.63,27.63,0,0,1-.28-4.23v-1.52c-.57,1-1.09,1.83-1.52,2.47l.8-.27a25.7,25.7,0,0,1,.64,2.67l-1,.27a5.2,5.2,0,0,0-.13-.62c-.8.12-1.68.24-2.66.36l-.24-1.1c.39-.13,1-.8,1.73-2-.51.07-1,.11-1.63.16l-.23-1.05c.31-.15.82-1.17,1.56-3.08l1.28.45a19.1,19.1,0,0,1-1.35,2.5l1.06-.13c.22-.42.46-.86.72-1.31l1,.33v-1.87h1.54v3.76a32.84,32.84,0,0,0,.26,4.23h1.32c-.16-.24-.32-.47-.49-.69l1.28-.48a8.42,8.42,0,0,1,.65,1.17h1.45v1.47h-2l1,.77a10.63,10.63,0,0,1-1.76,2.21c.34.43.66.65,1,.65s.45-.62.64-1.84l1.3.85c-.4,1.7-1,2.56-1.81,2.56A2.84,2.84,0,0,1,116.05,287.8Zm-4.68-7.41,1-.18c-.06-.3-.14-.59-.21-.85C111.87,279.78,111.6,280.13,111.37,280.39Zm8.55.94-1.09.27c-.06-.24-.11-.46-.16-.65-.83.13-1.77.24-2.8.37l-.25-1.11c.38-.13.94-.77,1.68-1.9l-1.65.16-.23-1c.29-.15.82-1.12,1.57-2.93l1.23.43a22.78,22.78,0,0,1-1.32,2.35l1.08-.12c.23-.39.47-.8.71-1.24l1.15.4c-.57,1-1.09,1.8-1.54,2.45l.76-.24A19.85,19.85,0,0,1,119.92,281.33Zm-4,2.61a10,10,0,0,0,.48,1.59,9.49,9.49,0,0,0,1.28-1.59Zm1.42-3.82,1.09-.18c-.1-.32-.19-.61-.29-.86A11.8,11.8,0,0,1,117.31,280.12Z"/><path class="cls-1" d="M127.39,281.88a10.18,10.18,0,0,1-2.88,2.09h3.36v5.32H126.4v-.61h-2.16v.61h-1.46v-4.58l-.94.32-.77-1.38a13.91,13.91,0,0,0,4.06-1.77h-3.77V280.4h5.33a6.56,6.56,0,0,0,.62-1.07l1.58.18a7.29,7.29,0,0,1-.43.89h3.35c-.19-.3-.37-.57-.56-.83l1.07-.35h-3.14V275h5.4v4.26h-1.84c.25.38.49.77.72,1.18h2.14v1.48h-3.54a30.38,30.38,0,0,1,4,2l-1,1.23-.53-.4v4.55H133v-.61h-2.44v.61h-1.47V284h4.27a27,27,0,0,0-3.89-2.09Zm.42-6.92v4.26h-5.24V275Zm-1.51,1.41h-2.22v1.47h2.22Zm.1,10.9v-1.92h-2.16v1.92Zm6.58,0v-1.92h-2.44v1.92Zm.09-10.9h-2.38v1.47h2.38Z"/><path class="cls-1" d="M148.9,282.68v1.21c-1,.44-2.18.87-3.46,1.28v.2h6.1v1.34h-6.1v1.07c0,.93-.51,1.41-1.52,1.41h-1.84l-.37-1.34c.53,0,1.1,0,1.73,0,.32,0,.49-.2.49-.6v-.58h-6.49v-1.34h6.49v-.76l2.37-.72h-6.38v-1.21Zm-8.94-3.8h2.18V280h-2.08l.06.75h8.68l0-.75h-2v-1.14h2.13l0-.7h-2.15v-1.12h2.23l.06-.8h-2.45V275h4l-.37,5.82h1.09v2.75h-1.6V282H139.16v1.52h-1.6v-2.74h1l-.4-5.54a17,17,0,0,0,3.53-.7l.52,1.26a16.45,16.45,0,0,1-2.48.55l.07.72h2.25v1.12h-2.17Zm4.53-3.28a6.42,6.42,0,0,0,.85-.88l.91.58a8.68,8.68,0,0,1-.84.93c.35.25.67.49,1,.73l-.66.67.75.5a12.72,12.72,0,0,1-.93,1c.36.25.69.49,1,.75l-.79.78c-.32-.28-.69-.57-1.09-.86-.43.26-.94.54-1.53.85l-.61-1a5.24,5.24,0,0,0,1.15-.52q-.45-.28-1-.57l.77-.77,1.14.69a9.42,9.42,0,0,0,.83-.84,9.15,9.15,0,0,0-.88-.72c-.45.29-1,.61-1.63.95l-.61-1a7.14,7.14,0,0,0,1.28-.61,11.5,11.5,0,0,0-1-.64l.75-.74C143.73,275.12,144.11,275.36,144.49,275.6Z"/><path class="cls-1" d="M158.49,276.16h-4.32v-1.34h5.89v5.28c0,.93-.54,1.41-1.61,1.41h-1.2l-.37-1.31,1.28,0c.22,0,.33-.22.33-.64v-.41a40,40,0,0,1-4.32,1.76l-.43-1.44a38.64,38.64,0,0,0,4.75-1.62Zm-1,1-.47,1.14a19,19,0,0,0-2.81-.72l.61-1.16A17.29,17.29,0,0,1,157.47,277.17Zm8.64,12.12h-1.6v-.58h-7.38v.58h-1.6V282h4.08a6.5,6.5,0,0,0,.4-1.12l1.57.21a5.53,5.53,0,0,1-.35.91h4.88Zm-1.6-4.68v-1.12h-7.38v1.12Zm0,2.56v-1.08h-7.38v1.08Zm.59-11h-4.48v-1.34h6v5.33c0,.89-.57,1.34-1.71,1.34h-1.07l-.37-1.33,1.14,0c.28,0,.44-.19.44-.56v-.49a37.5,37.5,0,0,1-4.08,1.68l-.43-1.44a36.5,36.5,0,0,0,4.51-1.53ZM164,277.22l-.48,1.13a18.11,18.11,0,0,0-2.78-.78l.59-1.15A14.73,14.73,0,0,1,164,277.22Z"/><path class="cls-1" d="M170.35,289.32l-1.28-1.15a8.1,8.1,0,0,0,.94-4v-4.08h6.34V288c0,.82-.5,1.24-1.49,1.24h-1.42l-.44-1.54c.5.05,1,.08,1.38.08.24,0,.37-.11.37-.34V286c-.93.21-1.91.4-2.91.56l-.31-1.19A9.15,9.15,0,0,1,170.35,289.32Zm7-10.45-1.32.94c-.16-.32-.34-.64-.52-1-1.66.26-3.66.45-6,.58l-.44-1.4a2.16,2.16,0,0,0,.75-.4,15.1,15.1,0,0,0,2.14-3.2l1.6.48a11.34,11.34,0,0,1-2.17,3c1.05-.06,2.17-.17,3.36-.3-.26-.42-.55-.83-.84-1.25l1.29-.81A27.7,27.7,0,0,1,177.37,278.87Zm-3.5,5.23c-.53-.13-1.07-.22-1.63-.32a3.46,3.46,0,0,0-.61-.09V284a11,11,0,0,1-.07,1.17,27.21,27.21,0,0,0,3.19-.46v-3.22h-3.12v.93l1.28.19,1.49.27Zm5.3,4.93c-1.16,0-1.73-.51-1.73-1.52v-5.38h1.65v1.41l4-.29v1.54l-4,.29v2.06c0,.27.17.42.54.42h1.84a.55.55,0,0,0,.5-.24,3.8,3.8,0,0,0,.25-1.55l1.53.48a4.33,4.33,0,0,1-.65,2.41,2,2,0,0,1-1.31.37Zm-.07-14.29v1.58L183,276v1.54l-3.92.29v1.74a.46.46,0,0,0,.53.5h3.76v1.54h-4.26c-1.12,0-1.68-.55-1.68-1.6v-5.3Z"/><path class="cls-1" d="M192.61,274.5v1.73l-.05,1.12h6.06q-.09,4.32-.33,7a10.05,10.05,0,0,1-.83,3.71,2.16,2.16,0,0,1-1.84,1.11h-2.28l-.45-1.62c.68,0,1.32.07,1.93.07.8,0,1.31-.55,1.56-1.6a42.63,42.63,0,0,0,.52-7.05h-4.47a19,19,0,0,1-1.46,5.8,9.9,9.9,0,0,1-4.67,4.54l-.9-1.47a9.14,9.14,0,0,0,4.26-4.32,17.75,17.75,0,0,0,1-4.55h-4.43v-1.61h4.56l0-1.12V274.5Z"/><path class="cls-2" d="M262.8,229.11a52.5,52.5,0,1,1-52.5,52.5,52.5,52.5,0,0,1,52.5-52.5Z"/><path class="cls-1" d="M262.8,227.21a54.4,54.4,0,1,1-54.4,54.4,54.4,54.4,0,0,1,54.4-54.4Zm0,10a44.39,44.39,0,1,0,44.38,44.39,44.38,44.38,0,0,0-44.38-44.39Z"/><path class="cls-1" d="M533.41,174.21a11.83,11.83,0,0,1-1.45,2.67l-1.19-.85a9.35,9.35,0,0,0,1.41-2.43Zm5.49-11.41v4.56h-3l.18.72h3.55v1.28H531v-1.28h3.57l-.18-.72h-2.58V162.8Zm-.09,7.23v3.31h-2.68v2.28a1.24,1.24,0,0,1-1.42,1.36h-1.12l-.34-1.44a6.64,6.64,0,0,0,1,.08.33.33,0,0,0,.35-.37v-1.91h-2.66V170Zm-1.41-5.39v-.72h-4.15v.72Zm0,1h-4.15v.69h4.15Zm-.11,5.55h-3.88v1.06h3.88Zm1.9,4.6-1.18.81a17.53,17.53,0,0,0-1.25-2.22l1.13-.71A21.17,21.17,0,0,1,539.19,175.75Zm6.58-4.07a11.49,11.49,0,0,1-5.84,5.41l-.68-1.52a10.32,10.32,0,0,0,5.24-4.87Zm-.8-8.18a16.28,16.28,0,0,1-4.77,3.25l-.69-1.41a12.85,12.85,0,0,0,4.43-3Zm.41,4.21a16.65,16.65,0,0,1-4.88,3.7l-.67-1.41a13.06,13.06,0,0,0,4.55-3.46Z"/><path class="cls-1" d="M555.21,170.14a14,14,0,0,1-3.54,1.88l-.82-1.32a13.4,13.4,0,0,0,3.43-1.42h-2.63v-2.74c-.09.07-.19.11-.28.18l-1-1.2a5.27,5.27,0,0,0-.22.49v11.1h-1.69v-8.28c-.38.51-.78,1-1.2,1.54l-.56-1.8a18.41,18.41,0,0,0,3.08-6.4l1.55.74a22.48,22.48,0,0,1-.93,2.54,12.1,12.1,0,0,0,3.76-3.29l1.7.38c-.18.24-.35.48-.55.72h3.75v1a7.91,7.91,0,0,1-.9,1.1h2.68v3.88h-4.58a8.16,8.16,0,0,1,1.31,1.87A9.27,9.27,0,0,0,560,169.5l1.05,1.2a12.67,12.67,0,0,1-2.42,1.54,9.44,9.44,0,0,0,3.07,3l-1,1.29a12.24,12.24,0,0,1-2.37-2.56V174a3.83,3.83,0,0,1-.59,2.42,2.92,2.92,0,0,1-1.83.72,8.61,8.61,0,0,1-.91.05l-.51-1.52c.48,0,.9,0,1.22,0a1.26,1.26,0,0,0,.78-.36,2.12,2.12,0,0,0,.27-1.28v-.14a16,16,0,0,1-5.07,2.82l-.83-1.43a15.68,15.68,0,0,0,5.65-2.86,6,6,0,0,0-.23-.61,13.29,13.29,0,0,1-4.57,2.49l-.81-1.37a13.71,13.71,0,0,0,4.76-2.23A6.82,6.82,0,0,0,555.21,170.14Zm.94-4.74c.32-.27.64-.57,1-.89h-2.9c-.34.32-.67.62-1,.89Zm-2.88,1.35v1.18h2.18v-1.18Zm6,1.18v-1.18H557v1.18Z"/><path class="cls-1" d="M566.29,164.06h1.48v1.52H563v-1.52h1.74c-.17-.46-.36-.93-.57-1.38l1.58-.43A15.65,15.65,0,0,1,566.29,164.06Zm1.27,12.79h-1.51v-.66h-1.2v.68h-1.5v-5.65h4.21Zm-.18-10.28V168h-3.89v-1.38Zm0,2.28v1.37h-3.89v-1.37Zm-1.33,5.9v-2.13h-1.2v2.13Zm6.76.08a18.39,18.39,0,0,0,1.26-1.68,40,40,0,0,1-.33-4.86h-5.89v-1.51h1.24c-.11-.64-.22-1.25-.35-1.79h-.51v-1.44h1.66a11.19,11.19,0,0,0-.46-1l1.6-.26c.13.39.27.82.4,1.3h1.7V165h-.48c-.07.64-.16,1.23-.26,1.79h1.31c0-1.31,0-2.78,0-4.4h1.47c0,1.65,0,3.12,0,4.4h2.32v1.51h-2.31c0,1,.07,1.85.1,2.59.3-.71.57-1.43.81-2.18l1.33.55a23.21,23.21,0,0,1-1.9,4.22c.16,1,.33,1.49.53,1.6s.33-.67.46-1.9l1.2.86c-.27,1.92-.8,2.88-1.57,2.88a1.35,1.35,0,0,1-1.1-.81,4.68,4.68,0,0,1-.51-1.11,15.07,15.07,0,0,1-1.72,2l-1.1-1c.29-.27.57-.55.83-.83h-2.62v.78h-1.38V169h4.26Zm-1.39-3.42V170.3h-1.49v1.11Zm0,2.43v-1.2h-1.49v1.2Zm-.13-8.85H570c.09.56.19,1.15.29,1.79h.75C571.16,166.21,571.22,165.6,571.29,165Zm6.09.94-1.18.31a17.88,17.88,0,0,0-.86-2.74l1.18-.38A21,21,0,0,1,577.38,165.93Z"/><path class="cls-1" d="M586.5,162.84v5.51h-3.79c0,.5-.05,1-.08,1.42H587a34.91,34.91,0,0,1-.24,5.46c-.2,1.12-1.11,1.7-2.74,1.7-.26,0-.7,0-1.35-.1l-.36-1.42c.56,0,1,.06,1.45.06.82,0,1.3-.33,1.44-1a23.5,23.5,0,0,0,.16-3.16h-2.85a15.85,15.85,0,0,1-.44,2.29,8.41,8.41,0,0,1-2.1,3.44l-1.09-1.4a6.71,6.71,0,0,0,1.7-2.79,19.84,19.84,0,0,0,.54-4.53h-1.33v-5.51Zm-1.63,1.57h-3.49v2.37h3.49Zm5-.69v9.85H588.2v-9.85ZM589.11,177l-.37-1.59c.74.07,1.44.1,2.1.1.43,0,.66-.27.66-.79V162.36h1.66v12.78c0,1.21-.59,1.84-1.74,1.84Z"/><path class="cls-1" d="M601.83,162.33l-5.55,14.73h-1.59l5.57-14.73Z"/><path class="cls-1" d="M609.51,164.83a11.37,11.37,0,0,0-1.47-2.08l1.68-.61a14.46,14.46,0,0,1,1.58,2.69h6.05v1.66h-2.41a16.07,16.07,0,0,1-3.36,6,21.9,21.9,0,0,0,6.13,3.3l-.93,1.42a22,22,0,0,1-6.39-3.55,16.61,16.61,0,0,1-6.61,3.49l-.9-1.47a15.76,15.76,0,0,0,6.33-3.09,14.38,14.38,0,0,1-3.61-6.12h-2.43v-1.66Zm.88,6.64a13.53,13.53,0,0,0,2.82-5h-6A12.64,12.64,0,0,0,610.39,171.47Z"/><path class="cls-1" d="M630.63,166.72v1.53a33,33,0,0,1-3.33,2.07V171h6.12v1.6H627.3v2.85a1.45,1.45,0,0,1-1.66,1.61h-2l-.4-1.52c.54,0,1.15,0,1.81,0,.35,0,.54-.24.54-.7v-2.29h-6.5V171h6.5v-1.36c1.06-.55,1.91-1,2.53-1.4h-6.27v-1.53Zm2.55.93H631.5V165.4H621v2.25h-1.68v-3.83h6a14.41,14.41,0,0,0-.7-1.36l1.93-.32a13.44,13.44,0,0,1,.64,1.68h5.93Z"/><path class="cls-1" d="M638.29,164.06h1.48v1.52H635v-1.52h1.74c-.17-.46-.36-.93-.57-1.38l1.58-.43A15.65,15.65,0,0,1,638.29,164.06Zm1.27,12.79h-1.51v-.66h-1.2v.68h-1.5v-5.65h4.21Zm-.18-10.28V168h-3.89v-1.38Zm0,2.28v1.37h-3.89v-1.37Zm-1.33,5.9v-2.13h-1.2v2.13Zm6.76.08a18.39,18.39,0,0,0,1.26-1.68,40,40,0,0,1-.33-4.86h-5.89v-1.51h1.24c-.11-.64-.22-1.25-.35-1.79h-.51v-1.44h1.66a11.19,11.19,0,0,0-.46-1l1.6-.26c.13.39.27.82.4,1.3h1.7V165h-.48c-.07.64-.16,1.23-.26,1.79h1.31c0-1.31,0-2.78,0-4.4h1.47c0,1.65,0,3.12,0,4.4h2.32v1.51h-2.31c0,1,.07,1.85.1,2.59.3-.71.57-1.43.81-2.18l1.33.55a23.21,23.21,0,0,1-1.9,4.22c.16,1,.33,1.49.53,1.6s.33-.67.46-1.9l1.2.86c-.27,1.92-.8,2.88-1.57,2.88a1.35,1.35,0,0,1-1.1-.81,4.68,4.68,0,0,1-.51-1.11,15.07,15.07,0,0,1-1.72,2l-1.1-1c.29-.27.57-.55.83-.83h-2.62v.78h-1.38V169h4.26Zm-1.39-3.42V170.3h-1.49v1.11Zm0,2.43v-1.2h-1.49v1.2Zm-.13-8.85H642c.09.56.19,1.15.29,1.79h.75C643.16,166.21,643.22,165.6,643.29,165Zm6.09.94-1.18.31a17.88,17.88,0,0,0-.86-2.74l1.18-.38A21,21,0,0,1,649.38,165.93Z"/><path class="cls-1" d="M658.5,162.84v5.51h-3.79c0,.5-.05,1-.08,1.42H659a34.91,34.91,0,0,1-.24,5.46c-.2,1.12-1.11,1.7-2.74,1.7-.26,0-.7,0-1.35-.1l-.36-1.42c.56,0,1,.06,1.45.06.82,0,1.3-.33,1.44-1a23.5,23.5,0,0,0,.16-3.16h-2.85a15.85,15.85,0,0,1-.44,2.29,8.41,8.41,0,0,1-2.1,3.44l-1.09-1.4a6.71,6.71,0,0,0,1.7-2.79,19.84,19.84,0,0,0,.54-4.53h-1.33v-5.51Zm-1.63,1.57h-3.49v2.37h3.49Zm5-.69v9.85H660.2v-9.85ZM661.11,177l-.37-1.59c.74.07,1.44.1,2.1.1.43,0,.66-.27.66-.79V162.36h1.66v12.78c0,1.21-.59,1.84-1.74,1.84Z"/><path class="cls-1" d="M668.13,177.17,666.85,176a8.2,8.2,0,0,0,.95-4V167.9h6.33v7.93c0,.81-.49,1.23-1.48,1.23h-1.43l-.43-1.54c.5,0,1,.08,1.38.08q.36,0,.36-.33v-1.38c-.92.21-1.9.4-2.91.56l-.3-1.19A9.15,9.15,0,0,1,668.13,177.17Zm7-10.45-1.33.94c-.16-.32-.34-.64-.51-1-1.67.26-3.67.45-6,.58l-.45-1.39a2.26,2.26,0,0,0,.75-.41,15.18,15.18,0,0,0,2.15-3.2l1.6.48a11.36,11.36,0,0,1-2.18,3.05c1.06-.07,2.18-.18,3.36-.31-.25-.41-.54-.83-.83-1.25l1.28-.81A28,28,0,0,1,675.16,166.72ZM671.65,172c-.53-.13-1.07-.22-1.63-.32a3.46,3.46,0,0,0-.61-.09v.32c0,.4,0,.78-.06,1.16a26.74,26.74,0,0,0,3.18-.46v-3.22h-3.12v.93l1.28.19c.39.07.88.15,1.49.28Zm5.3,4.93c-1.15,0-1.73-.51-1.73-1.52V170h1.65v1.41l4-.29v1.54l-4,.29V175c0,.28.18.42.55.42h1.84a.53.53,0,0,0,.49-.24,3.92,3.92,0,0,0,.26-1.55l1.52.48a4.36,4.36,0,0,1-.64,2.41,2,2,0,0,1-1.31.37Zm-.06-14.29v1.58l3.92-.29v1.54l-3.92.29v1.74c0,.32.17.5.53.5h3.76v1.54h-4.26c-1.12,0-1.68-.55-1.68-1.6v-5.3Z"/><path class="cls-1" d="M690.39,162.35v1.73l0,1.12h6.07c-.07,2.88-.18,5.22-.34,7a10.17,10.17,0,0,1-.83,3.72,2.14,2.14,0,0,1-1.84,1.1h-2.27l-.45-1.62c.67,0,1.31.07,1.92.07.8,0,1.31-.55,1.57-1.6a44.13,44.13,0,0,0,.51-7.05h-4.47a18.62,18.62,0,0,1-1.45,5.8,9.88,9.88,0,0,1-4.68,4.54l-.89-1.47a9.19,9.19,0,0,0,4.26-4.32,18.63,18.63,0,0,0,1-4.55h-4.44V165.2h4.56l0-1.12v-1.73Z"/><path class="cls-2" d="M466.58,115a52.5,52.5,0,1,1-52.5,52.5,52.51,52.51,0,0,1,52.5-52.5Z"/><path class="cls-1" d="M466.58,113.13a54.39,54.39,0,1,1-54.4,54.39,54.39,54.39,0,0,1,54.4-54.39Zm0,10A44.39,44.39,0,1,0,511,167.52a44.38,44.38,0,0,0-44.38-44.38Z"/><path class="cls-2" d="M256.49,1.89A52.5,52.5,0,1,1,204,54.39a52.51,52.51,0,0,1,52.5-52.5Z"/><path class="cls-1" d="M256.49,0a54.4,54.4,0,1,1-54.4,54.39A54.39,54.39,0,0,1,256.49,0Zm0,10a44.39,44.39,0,1,0,44.38,44.38A44.38,44.38,0,0,0,256.49,10Z"/><path id="path1948" class="cls-3" d="M256.12,22.76a42.55,42.55,0,0,0-7.15.61c-6.33,1.11-7.48,3.45-7.48,7.77v5.7h15v1.9H235.88a9.33,9.33,0,0,0-9.34,7.58,27.93,27.93,0,0,0,0,15.2c1.06,4.43,3.6,7.58,8,7.58h5.14V62.27A9.5,9.5,0,0,1,249,53h14.94a7.52,7.52,0,0,0,7.47-7.6V31.14c0-4.05-3.41-7.1-7.47-7.77A45.61,45.61,0,0,0,256.12,22.76ZM248,27.34a2.85,2.85,0,1,1-2.81,2.86A2.84,2.84,0,0,1,248,27.34Z"/><path id="path1950" class="cls-3" d="M273.25,38.74v6.64a9.59,9.59,0,0,1-9.34,9.48H249a7.63,7.63,0,0,0-7.48,7.6V76.7c0,4,3.53,6.44,7.48,7.6a25.07,25.07,0,0,0,14.94,0c3.76-1.09,7.47-3.28,7.47-7.6V71H256.45V69.1h22.41c4.35,0,6-3,7.48-7.58s1.49-9.19,0-15.2c-1.07-4.33-3.13-7.58-7.48-7.58Zm-8.4,36.06A2.85,2.85,0,1,1,262,77.64,2.82,2.82,0,0,1,264.85,74.8Z"/><path class="cls-3" d="M287.76,274.14h-.93v-4.67a4.67,4.67,0,0,0-4.67-4.66h-3.73v-5.74a3.74,3.74,0,1,0-1.87,0v5.74h-28v-5.74a3.73,3.73,0,1,0-1.86,0v5.74H243a4.66,4.66,0,0,0-4.66,4.66v4.67h-.94a2.81,2.81,0,0,0-2.8,2.8v9.33a2.8,2.8,0,0,0,2.8,2.8h.94v14a4.67,4.67,0,0,0,4.66,4.67h39.2a4.67,4.67,0,0,0,4.67-4.67v-14h.93a2.8,2.8,0,0,0,2.8-2.8v-9.33A2.8,2.8,0,0,0,287.76,274.14Zm-12.13-18.67a1.87,1.87,0,1,1,1.87,1.87A1.87,1.87,0,0,1,275.63,255.47Zm-29.87,0a1.87,1.87,0,1,1,1.87,1.87A1.87,1.87,0,0,1,245.76,255.47Zm-5.6,34.86V269.47a2.81,2.81,0,0,1,2.8-2.8h39.2a2.8,2.8,0,0,1,2.8,2.8v20.86l-7.84,3.49a.93.93,0,0,0-.56.85v11.2h-28v-11.2a.92.92,0,0,0-.55-.85l-7.85-3.49m-2.8-3.12a.94.94,0,0,1-.93-.94v-9.33a.93.93,0,0,1,.93-.93h.94v11.2Zm2.8,5.17,6.54,2.9v10.59H243a2.8,2.8,0,0,1-2.8-2.8V292.38m42,13.49h-3.73V295.28l6.53-2.9v10.69A2.8,2.8,0,0,1,282.16,305.87Zm6.54-19.6a.94.94,0,0,1-.94.94h-.93V276h.93a.93.93,0,0,1,.94.93Z"/><path class="cls-3" d="M252.3,287.11a5.5,5.5,0,1,0-5.5-5.5A5.51,5.51,0,0,0,252.3,287.11Z"/><path class="cls-3" d="M272.83,287.11a5.5,5.5,0,1,0-5.5-5.5A5.51,5.51,0,0,0,272.83,287.11Z"/><path class="cls-3" d="M454.19,188.55h18.37a24.21,24.21,0,1,0-17.12-41.33,24.41,24.41,0,0,0-2.71,3.26v0l-18.84,26.95a7.08,7.08,0,0,0,5.8,11.14h7.68m25.2-4.84A19.38,19.38,0,1,1,486.25,178,19.23,19.23,0,0,1,472.56,183.71Z"/><path class="cls-3" d="M472.56,153.14a16.61,16.61,0,0,0-16,11.2,17,17,0,0,0,32,0A16.61,16.61,0,0,0,472.56,153.14Zm0,19.13a7.93,7.93,0,1,1,7.93-7.93A7.93,7.93,0,0,1,472.56,172.27Z"/><path class="cls-3" d="M472.56,160.28a4.07,4.07,0,1,0,4.06,4.06A4.07,4.07,0,0,0,472.56,160.28Z"/><path class="cls-1" d="M485.36,277.17v-.62h-6.18v-1.28h6.18v-.87H487v.87h6.18v1.28H487v.62h4.85V282h-.22a14.42,14.42,0,0,1,1.41,1.81l-1.11.76c-.17-.28-.37-.55-.57-.84l-1.19.05v1h3.17v1.36h-3.17v1.58c0,1-.54,1.46-1.61,1.46h-1.73l-.34-1.5a14.2,14.2,0,0,0,1.54.09c.32,0,.49-.16.49-.45v-1.18h-5.13a15.37,15.37,0,0,1,1.93,1.44l-1.13,1.15a13.18,13.18,0,0,0-2.34-2l.62-.61H479v-1.36h9.52v-.93l-8.58.31-.32-1.32c1.94,0,3.85-.08,5.72-.13V282h-4.85v-4.85Zm0,1.83v-.71h-3.24V279Zm0,1.1h-3.24v.71h3.24ZM487,279h3.24v-.71H487Zm3.24,1.1H487v.71h3.24Zm-.07,2.18.42-.26H487v.68l3.41-.13Z"/><path class="cls-1" d="M500.13,286.43a15.58,15.58,0,0,1-3.88,2.57l-1-1.33a14.89,14.89,0,0,0,3.79-2.2Zm1.25-2.6v-1.1h1.69v1.1h6.05v1.44h-6.05v4h-1.69v-4h-6.1v-1.44Zm1.13-6.32c-.22.26-.42.51-.61.75h6.73v1.32h-2.58a9.12,9.12,0,0,1-1.47,1.5c1.28.3,2.59.67,3.95,1.1l-.95,1.28q-2.29-.81-4.64-1.44a16.46,16.46,0,0,1-6.5,1.2l-.89-1.37a25.06,25.06,0,0,0,5.09-.42c-1-.22-1.92-.43-2.87-.61.4-.41.79-.83,1.16-1.24h-3.14v-1.32h4.26c.33-.41.65-.83,1-1.21Zm6.24.53h-1.57V277h-10V278h-1.57v-2.47h5.68a10.75,10.75,0,0,0-.59-.94l1.73-.29c.17.37.35.79.53,1.23h5.77Zm-4.57,1.54h-3.43l-.54.57c.81.13,1.64.31,2.51.5A7.07,7.07,0,0,0,504.18,279.58Zm4.81,8.27L507.84,289a20.49,20.49,0,0,0-3.52-2.58l1-1A27.72,27.72,0,0,1,509,287.85Z"/><path class="cls-1" d="M517.69,280.15H513v9h-1.67V274.82h6.32Zm-1.63-4h-3V277h3Zm-3,2.75h3v-.78h-3Zm2.69,4.95v-1.39h-1.52V281H522v1.41h-1.36v1.39h1.86v1.44h-1.86v3.57h-1.52v-3.57h-2a6.59,6.59,0,0,1-.59,2.07,4.08,4.08,0,0,1-2,1.79l-.82-1.31a3.29,3.29,0,0,0,1.54-1.44,5.87,5.87,0,0,0,.32-1.11h-1.81V283.8Zm3.39-1.39h-1.91v1.39h1.91Zm-.54-2.29v-5.3H525v12.45c0,1.19-.57,1.8-1.69,1.8-.56,0-1.12,0-1.68-.07l-.4-1.47c.54.05,1,.08,1.49.08s.62-.29.62-.83v-6.66Zm4.75-4h-3.12V277h3.12Zm-3.12,2.71h3.12v-.77h-3.12Z"/><path class="cls-1" d="M530.49,277.67a7.6,7.6,0,0,0,1.54-1.31h-4v-1.44h5.92v1.2a7,7,0,0,1-2.32,2.61h1.72v4.14h-3.57l-.21,1.32h3.87a20.26,20.26,0,0,1-.25,3.93c-.2.66-1,1-2.42,1.09-.56,0-1.12,0-1.7-.06l-.4-1.48c.58,0,1.16.07,1.75.07.78,0,1.23-.15,1.36-.4a6.81,6.81,0,0,0,.16-1.76h-4l.54-4.12h3.38v-1.29h-3l-1.14.4-1-1.32c.57-.16,1.1-.33,1.58-.51h0l.84-.34c-.45-.35-1-.72-1.54-1.09l1.21-.77C529.5,277,530,277.32,530.49,277.67Zm8.71-2.53a6.52,6.52,0,0,1-1.14,1.06l-.68.43c.2.16.43.3.65.46.29-.16.58-.32.87-.51a6.65,6.65,0,0,0,1-1l1.17.72a7.48,7.48,0,0,1-1.22,1.23l-.51.35a18.45,18.45,0,0,0,2.27.95l-1.12,1.33c-.48-.2-.91-.41-1.33-.6v1c0,.29.19.43.61.43h.8v1.35h-1.23c-1.06,0-1.57-.48-1.57-1.44v-.71H536a3,3,0,0,1-.32,1.38,3.47,3.47,0,0,1-1.18,1.18l-1.14-1a3.59,3.59,0,0,0,1-1.16,5.6,5.6,0,0,0,.21-1.75h3.26a10.72,10.72,0,0,1-3.6-3.38l1.31-.75a6.7,6.7,0,0,0,.82,1.06,8.1,8.1,0,0,0,.7-.42,5.38,5.38,0,0,0,1-.9Zm.75,7.78v1.39a6.59,6.59,0,0,1-1.26,2.24c.93.52,1.78,1,2.53,1.54l-1.15,1.17a23.39,23.39,0,0,0-2.47-1.67,10.91,10.91,0,0,1-3.23,1.65l-.63-1.45a10.71,10.71,0,0,0,2.36-1.06c-.61-.34-1.27-.67-2-1l1-1c.74.34,1.43.67,2.1,1a5.85,5.85,0,0,0,1-1.4h-4.1v-1.47Z"/><path class="cls-1" d="M544.06,289.31l-1.28-1.16a8.06,8.06,0,0,0,.94-4V280h6.34V288c0,.82-.49,1.23-1.49,1.23h-1.42l-.43-1.53c.49,0,1,.08,1.37.08.24,0,.37-.11.37-.34V286c-.93.2-1.9.4-2.91.56l-.3-1.19A9.29,9.29,0,0,1,544.06,289.31Zm7-10.46-1.33.95c-.16-.32-.34-.64-.51-1-1.67.25-3.67.45-6,.58l-.45-1.4a2.08,2.08,0,0,0,.75-.4,15.44,15.44,0,0,0,2.15-3.2l1.6.48a11.36,11.36,0,0,1-2.18,3c1.06-.06,2.18-.17,3.36-.3-.26-.42-.54-.83-.83-1.25l1.28-.82A29.71,29.71,0,0,1,551.09,278.85Zm-3.51,5.24c-.53-.13-1.07-.23-1.63-.32a4.83,4.83,0,0,0-.61-.1V284c0,.4,0,.79-.06,1.17a26.74,26.74,0,0,0,3.18-.46v-3.22h-3.12v.93l1.28.19c.39.06.88.14,1.49.27Zm5.3,4.93c-1.15,0-1.73-.51-1.73-1.52v-5.38h1.65v1.41l4-.29v1.54l-4,.29v2.06c0,.27.18.42.54.42h1.84a.55.55,0,0,0,.5-.24,3.94,3.94,0,0,0,.26-1.56l1.52.48a4.44,4.44,0,0,1-.64,2.42,2,2,0,0,1-1.32.37Zm-.06-14.29v1.58l3.92-.29v1.54l-3.92.29v1.74a.46.46,0,0,0,.52.5h3.77v1.53h-4.26c-1.12,0-1.68-.54-1.68-1.6v-5.29Z"/><path class="cls-1" d="M566.32,274.48v1.73l-.05,1.12h6.07q-.11,4.34-.34,7a10.05,10.05,0,0,1-.83,3.71,2.17,2.17,0,0,1-1.84,1.11h-2.27l-.45-1.62c.67,0,1.31.06,1.92.06.8,0,1.31-.54,1.57-1.6a44,44,0,0,0,.51-7h-4.47a18.69,18.69,0,0,1-1.45,5.8,9.93,9.93,0,0,1-4.68,4.54l-.89-1.47a9.12,9.12,0,0,0,4.25-4.32,17.75,17.75,0,0,0,1-4.55H560v-1.62h4.56l.05-1.12v-1.73Z"/><path class="cls-2" d="M414.46,229.09a52.5,52.5,0,1,1-52.5,52.5,52.51,52.51,0,0,1,52.5-52.5Z"/><path class="cls-1" d="M414.46,227.2a54.4,54.4,0,1,1-54.39,54.39,54.39,54.39,0,0,1,54.39-54.39Zm0,10a44.39,44.39,0,1,0,44.39,44.38,44.39,44.39,0,0,0-44.39-44.38Z"/><path class="cls-3" d="M445.49,278.67l-6.62-1.94-1.16-3.6,4.2-5.45a1.2,1.2,0,0,0,0-1.44l-3.44-4.74a1.2,1.2,0,0,0-1-.5,1.18,1.18,0,0,0-.41.07l-6.48,2.31-3.06-2.22.19-6.89a1.2,1.2,0,0,0-.83-1.17l-5.57-1.81a1.19,1.19,0,0,0-.37-.06,1.18,1.18,0,0,0-1,.52l-3.9,5.69h-3.77l-3.9-5.69a1.18,1.18,0,0,0-1-.52,1.26,1.26,0,0,0-.38.06l-5.57,1.81a1.19,1.19,0,0,0-.83,1.17l.19,6.89-3.05,2.22-6.49-2.31a1.16,1.16,0,0,0-.4-.07,1.21,1.21,0,0,0-1,.5l-3.44,4.74a1.22,1.22,0,0,0,0,1.44l4.2,5.45-1.17,3.6-6.6,1.94a1.2,1.2,0,0,0-.86,1.15v5.86a1.19,1.19,0,0,0,.86,1.15l6.6,1.95,1.17,3.59-4.2,5.46a1.22,1.22,0,0,0,0,1.44l3.44,4.74a1.2,1.2,0,0,0,1,.49,1.16,1.16,0,0,0,.4-.07l6.49-2.31,3.05,2.23-.19,6.88a1.18,1.18,0,0,0,.83,1.17l5.57,1.82a1.65,1.65,0,0,0,.38,0,1.18,1.18,0,0,0,1-.52l3.9-5.68h3.77l3.9,5.68a1.18,1.18,0,0,0,1,.52,1.57,1.57,0,0,0,.37,0l5.57-1.82a1.19,1.19,0,0,0,.83-1.17l-.19-6.88,3.06-2.23,6.48,2.31a1.18,1.18,0,0,0,.41.07,1.19,1.19,0,0,0,1-.49l3.44-4.74a1.2,1.2,0,0,0,0-1.44l-4.2-5.46,1.16-3.59,6.62-1.95a1.19,1.19,0,0,0,.86-1.15v-5.86A1.2,1.2,0,0,0,445.49,278.67Z"/><path class="cls-2" d="M410.53,295.46,401,283.11h6.79l2.87,3.7L423,271.52h6.91C419.64,284.21,427.57,274.4,410.53,295.46Z"/><circle class="cls-1" cx="336.36" cy="164.34" r="70"/><path class="cls-2" d="M333.39,127.22,346.5,161.5h-6l-3.12-8.6H323l-3.12,8.6h-6L327,127.22Zm2.31,21.08-5.38-15h-.19l-5.43,15Z"/><path class="cls-2" d="M355.47,127.22V161.5h-5.62V127.22Z"/><path class="cls-2" d="M298.08,184.79a24.85,24.85,0,0,1-6.45,10.32l-2.14-1.84a20.61,20.61,0,0,0,6.17-9.44Zm13-5.42v2.42H289.61v-2.42Zm-7.95-2.23L301.35,179a25.46,25.46,0,0,0-4.59-4l1.73-1.66A35.33,35.33,0,0,1,303.17,177.14Zm7.71,16.56-2.23,1.56a92.37,92.37,0,0,0-5.93-10.2l2.16-1.37A88.31,88.31,0,0,1,310.88,193.7Z"/><path class="cls-2" d="M313.71,174.66a30.27,30.27,0,0,0,7.13-1.44l.84,2.21c-.84.27-1.73.51-2.64.72v3.39h2.52v2.33H319v1c1,1,2.08,2.12,3.14,3.32l-1.39,2.11c-.67-1.2-1.25-2.21-1.75-3v10.2h-2.38v-9.74a25.45,25.45,0,0,1-2.57,5.11L313,188.13a17.83,17.83,0,0,0,3.43-6.26H314v-2.33h2.69v-2.91c-.82.12-1.63.24-2.45.34Zm13.61,5.65v-1.08H321.7v-2.07h5.62v-1c-1.47.07-3,.11-4.68.11l-.72-2.08a67.45,67.45,0,0,0,11.69-.89l1.12,1.92a44.78,44.78,0,0,1-5,.77v1.22h5.57v2.07h-5.57v1.08h4.65v8.2h-4.65v1.11h5.09v2.06h-5.09v1.2h5.66V195H321.63v-2.11h5.69v-1.2h-5.11v-2.06h5.11v-1.11h-4.68v-8.2Zm0,3.19v-1.23H325v1.23Zm0,1.87H325v1.18h2.31Zm2.4-1.87H332v-1.23h-2.25Zm2.25,1.87h-2.25v1.18H332Z"/><path class="cls-2" d="M339.17,195.47l-1.92-1.72a12.35,12.35,0,0,0,1.42-6.05v-6.12h9.5v11.88c0,1.22-.74,1.85-2.23,1.85H343.8l-.64-2.31c.74.07,1.44.12,2.06.12.36,0,.55-.17.55-.5v-2.07c-1.39.32-2.85.6-4.37.84l-.45-1.77A13.68,13.68,0,0,1,339.17,195.47Zm10.54-15.67-2,1.42c-.24-.48-.51-1-.77-1.44-2.5.38-5.5.67-8.95.86l-.68-2.09a3.13,3.13,0,0,0,1.13-.6,23.12,23.12,0,0,0,3.22-4.8l2.4.72a16.8,16.8,0,0,1-3.27,4.56c1.59-.09,3.27-.26,5-.45-.38-.63-.81-1.25-1.24-1.87l1.92-1.23A42.4,42.4,0,0,1,349.71,179.8Zm-5.26,7.85c-.79-.19-1.61-.34-2.45-.48a6.1,6.1,0,0,0-.91-.14v.48c0,.6,0,1.17-.09,1.75a44.86,44.86,0,0,0,4.77-.7v-4.82h-4.68v1.39l1.92.29c.58.09,1.32.21,2.24.41ZM352.4,195c-1.73,0-2.59-.77-2.59-2.28V184.7h2.47v2.11l6-.43v2.3l-6,.43v3.1c0,.41.26.62.81.62h2.76a.83.83,0,0,0,.75-.36,5.88,5.88,0,0,0,.38-2.32l2.28.72c-.19,2-.53,3.24-1,3.62a3,3,0,0,1-2,.55Zm-.1-21.43V176l5.88-.43v2.31l-5.88.43v2.62c0,.48.27.74.79.74h5.64V184h-6.38c-1.68,0-2.52-.81-2.52-2.4v-7.94Z"/><path class="cls-2" d="M372.56,173.25v2.59l-.07,1.68h9.09c-.09,4.32-.26,7.83-.5,10.49a15.14,15.14,0,0,1-1.25,5.57,3.23,3.23,0,0,1-2.76,1.65h-3.41l-.67-2.42c1,.05,2,.1,2.88.1,1.2,0,2-.82,2.35-2.4A64.16,64.16,0,0,0,379,180h-6.7a28,28,0,0,1-2.18,8.68,14.89,14.89,0,0,1-7,6.82l-1.34-2.21a13.73,13.73,0,0,0,6.38-6.48A27.14,27.14,0,0,0,369.7,180h-6.65v-2.43h6.84l.07-1.68v-2.59Z"/><path class="cls-1" d="M481,51.94l-1.1,1.11a17.05,17.05,0,0,0-2.82-2.47l1.1-1.09A20.93,20.93,0,0,1,481,51.94Zm.45,2.66a48.41,48.41,0,0,1-2.58,5.67l-1.55-.69A43.23,43.23,0,0,0,480.06,54Zm.1-6.44-1.11,1.12a17.58,17.58,0,0,0-3-2.46l1.12-1.07A22.22,22.22,0,0,1,481.54,48.16Zm.22,6.49V53.13h4V51.57h1.6v1.56h4v1.52h-2.67A9.68,9.68,0,0,0,491.92,58l-1.07,1.34a12.33,12.33,0,0,1-3.38-4.7h-.12v5.7h-1.6v-5.7h-.12a11.29,11.29,0,0,1-4,4.85l-.86-1.43a9.44,9.44,0,0,0,3.6-3.42Zm4.34-6.5a4.72,4.72,0,0,1-.82,2.7,6.19,6.19,0,0,1-2.54,1.57l-1-1.23a5.13,5.13,0,0,0,2.16-1.09,3,3,0,0,0,.72-2Zm5,1.17h-1.57V47.6h-6.05v1.78H482V46.1h9.17Zm-2.53-1.17v1.73c0,.22.16.35.5.35h2.22v1.42h-3c-.85,0-1.26-.38-1.26-1.12V48.15Z"/><path class="cls-1" d="M495.89,51.88a19.77,19.77,0,0,1-1.72,8.5l-1.26-1.14a18,18,0,0,0,1.31-7.36v-5.2h6a9.18,9.18,0,0,0-.53-.92l1.78-.28c.16.35.34.75.5,1.2h5.34v1.56H495.89v1.35h2.27v-1h1.63v1h3.56v-1H505v1h2.37v1.54H505v2.46h-6.8V51.13h-2.27ZM506,54.38v1.23a11.88,11.88,0,0,1-2.8,2.41,21.69,21.69,0,0,0,4.54,1L507,60.54a19.72,19.72,0,0,1-5.44-1.64,21.82,21.82,0,0,1-5.55,1.64l-.72-1.49A21.81,21.81,0,0,0,499.94,58a10.92,10.92,0,0,1-2.36-2.16h-1.1V54.38Zm-4.53,2.89a14,14,0,0,0,2.26-1.47h-4.34A8.91,8.91,0,0,0,501.49,57.27Zm-1.7-5.06h3.56V51.13h-3.56Z"/><path class="cls-1" d="M520.8,53.81V55c-1,.43-2.17.87-3.46,1.28v.19h6.1v1.35h-6.1v1.07c0,.93-.51,1.41-1.52,1.41H514L513.62,59c.52,0,1.1.05,1.72.05.32,0,.5-.21.5-.61v-.57h-6.5V56.5h6.5v-.75l2.37-.72h-6.39V53.81ZM511.87,50h2.18v1.14H512l.06.75h8.68l0-.75h-2V50h2.12l0-.7h-2.14V48.2H521l.07-.8h-2.45V46.08h4l-.37,5.83h1.09v2.75h-1.6V53.13H511.07v1.52h-1.6V51.91h1l-.4-5.54a16.74,16.74,0,0,0,3.52-.7l.53,1.26a17.81,17.81,0,0,1-2.48.55l.06.72H514v1.12h-2.18Zm4.53-3.28a7.87,7.87,0,0,0,.85-.88l.91.58a7.7,7.7,0,0,1-.85.92c.36.26.68.5,1,.74l-.65.67.75.5a12.72,12.72,0,0,1-.93,1c.35.25.69.49,1,.75l-.78.78a13,13,0,0,0-1.09-.86c-.43.25-.94.54-1.54.85l-.6-1a5,5,0,0,0,1.15-.51l-1-.57.77-.77c.38.22.76.46,1.13.69a7.32,7.32,0,0,0,.83-.84,9.15,9.15,0,0,0-.88-.72c-.44.29-1,.61-1.63,1l-.61-1a6.78,6.78,0,0,0,1.28-.6,9.61,9.61,0,0,0-1-.64l.76-.74C515.63,46.26,516,46.5,516.4,46.74Z"/><path class="cls-1" d="M530.4,47.3h-4.32V46H532v5.28c0,.93-.55,1.41-1.62,1.41h-1.2l-.37-1.32,1.28.05c.23,0,.34-.22.34-.64v-.41a40,40,0,0,1-4.32,1.76l-.43-1.44A38.64,38.64,0,0,0,530.4,49Zm-1,1-.47,1.13a22,22,0,0,0-2.82-.72l.61-1.15A17.1,17.1,0,0,1,529.38,48.31ZM538,60.43h-1.6v-.58H529v.58h-1.6V53.11h4.08a7.89,7.89,0,0,0,.4-1.12l1.57.21a6.6,6.6,0,0,1-.35.91H538Zm-1.6-4.68V54.63H529v1.12Zm0,2.56V57.22H529v1.09Zm.59-11h-4.48V46h6.05v5.33c0,.89-.58,1.34-1.71,1.34h-1.08l-.36-1.33,1.13.05c.29,0,.45-.19.45-.56v-.5A33.89,33.89,0,0,1,532.93,52l-.43-1.44A35,35,0,0,0,537,49Zm-1.07,1.06-.48,1.13a18.56,18.56,0,0,0-2.79-.78l.59-1.15A14.07,14.07,0,0,1,535.94,48.36Z"/><path class="cls-1" d="M542.25,60.46,541,59.3a8.16,8.16,0,0,0,.95-4V51.19h6.34v7.92c0,.82-.5,1.24-1.49,1.24h-1.43l-.43-1.54c.5,0,1,.08,1.38.08.24,0,.37-.11.37-.34V57.18c-.93.2-1.91.4-2.92.56l-.3-1.19A9.15,9.15,0,0,1,542.25,60.46Zm7-10.46L548,51q-.24-.48-.51-1c-1.66.26-3.67.45-6,.58l-.45-1.4a2,2,0,0,0,.75-.4,15.44,15.44,0,0,0,2.15-3.2l1.6.48a11.15,11.15,0,0,1-2.18,3c1.06-.06,2.18-.17,3.36-.3-.25-.42-.54-.83-.83-1.25l1.28-.82A29.71,29.71,0,0,1,549.28,50Zm-3.5,5.24c-.53-.13-1.08-.22-1.64-.32a4.55,4.55,0,0,0-.61-.1v.32c0,.4,0,.79-.06,1.17a27.21,27.21,0,0,0,3.19-.46V52.63h-3.13v.93l1.29.19c.38.06.88.14,1.48.27Zm5.29,4.93c-1.15,0-1.73-.51-1.73-1.52V53.27H551v1.41l4-.29v1.54l-4,.29v2.06c0,.27.18.42.55.42h1.84a.56.56,0,0,0,.5-.24,4.23,4.23,0,0,0,.25-1.56l1.52.48A4.44,4.44,0,0,1,555,59.8a2,2,0,0,1-1.31.37ZM551,45.88v1.58l3.92-.29v1.54L551,49v1.74a.46.46,0,0,0,.53.5h3.76v1.53H551c-1.12,0-1.68-.54-1.68-1.6V45.88Z"/><path class="cls-1" d="M564.51,45.64v1.72l0,1.12h6.07c-.06,2.89-.18,5.22-.34,7a10.05,10.05,0,0,1-.83,3.71,2.15,2.15,0,0,1-1.84,1.11h-2.27l-.45-1.62c.67,0,1.31.06,1.92.06.8,0,1.31-.54,1.57-1.6a42.76,42.76,0,0,0,.51-7h-4.46a19,19,0,0,1-1.46,5.8,9.9,9.9,0,0,1-4.67,4.54l-.9-1.47a9.14,9.14,0,0,0,4.26-4.32,18.18,18.18,0,0,0,1-4.55h-4.44V48.48h4.57l0-1.12V45.64Z"/><path class="cls-2" d="M414.46,1.89A52.5,52.5,0,1,1,362,54.39a52.51,52.51,0,0,1,52.5-52.5Z"/><path class="cls-1" d="M414.46,0a54.4,54.4,0,1,1-54.39,54.39A54.39,54.39,0,0,1,414.46,0Zm0,10a44.39,44.39,0,1,0,44.39,44.38A44.39,44.39,0,0,0,414.46,10Z"/><circle class="cls-3" cx="403.91" cy="44.44" r="2.98"/><circle class="cls-3" cx="394" cy="35.41" r="2.45"/><circle class="cls-3" cx="410.69" cy="29.17" r="1.9"/><circle class="cls-3" cx="433.71" cy="31.68" r="2.88"/><circle class="cls-3" cx="444.36" cy="35.97" r="1.41"/><circle class="cls-3" cx="449.26" cy="46.27" r="1.83"/><circle class="cls-3" cx="448.92" cy="61.36" r="2.62"/><circle class="cls-3" cx="444.36" cy="70.19" r="1.41"/><circle class="cls-3" cx="433.17" cy="74.4" r="1.87"/><circle class="cls-3" cx="427.6" cy="86.26" r="1.5"/><circle class="cls-3" cx="422" cy="87.82" r="1.56"/><circle class="cls-3" cx="420.35" cy="72.05" r="1.64"/><circle class="cls-3" cx="405.56" cy="66.08" r="1.65"/><circle class="cls-3" cx="410.69" cy="55.41" r="1.9"/><circle class="cls-3" cx="394.06" cy="55.41" r="1.9"/><circle class="cls-3" cx="379.19" cy="60.09" r="1.81"/><circle class="cls-3" cx="381.67" cy="47.52" r="3.08"/><circle class="cls-3" cx="391.41" cy="69.37" r="3.29"/><line class="cls-4" x1="381.91" y1="47.75" x2="393.19" y2="35.73"/><line class="cls-4" x1="381.8" y1="48.68" x2="394.06" y2="55.41"/><line class="cls-4" x1="379.19" y1="60.09" x2="390.16" y2="68.78"/><line class="cls-4" x1="379.19" y1="59.54" x2="393.2" y2="55.92"/><line class="cls-4" x1="381.19" y1="49.49" x2="379.69" y2="59.42"/><line class="cls-4" x1="394.7" y1="36.28" x2="403.91" y2="44.81"/><line class="cls-4" x1="394.7" y1="35" x2="409.7" y2="29.17"/><line class="cls-4" x1="410.69" y1="29.69" x2="417.9" y2="39.5"/><circle class="cls-3" cx="418.68" cy="40.8" r="1.76"/><circle class="cls-3" cx="430.84" cy="46.14" r="3.94"/><circle class="cls-3" cx="438.21" cy="57.48" r="2.06"/><circle class="cls-3" cx="423.38" cy="59.63" r="3.52"/><line class="cls-4" x1="382.56" y1="47.88" x2="402.2" y2="44.93"/><line class="cls-4" x1="394.06" y1="55.41" x2="402.2" y2="46.14"/><line class="cls-4" x1="392.38" y1="68.39" x2="409.82" y2="55.92"/><line class="cls-4" x1="394.06" y1="55.92" x2="391.41" y2="68.78"/><line class="cls-4" x1="410.69" y1="55.41" x2="417.9" y2="40.8"/><line class="cls-4" x1="432.45" y1="32.97" x2="431.29" y2="44.44"/><line class="cls-4" x1="410.69" y1="29.17" x2="432.68" y2="31.68"/><line class="cls-4" x1="403.91" y1="44.44" x2="410.69" y2="29.69"/><line class="cls-4" x1="404.63" y1="44.44" x2="418.68" y2="41.46"/><line class="cls-4" x1="418.68" y1="40.8" x2="431.87" y2="32.97"/><line class="cls-4" x1="418.68" y1="40.8" x2="429.09" y2="46.14"/><line class="cls-4" x1="418.68" y1="40.8" x2="423.38" y2="57.53"/><line class="cls-4" x1="423.38" y1="58.28" x2="429.09" y2="49.17"/><line class="cls-4" x1="411.65" y1="55.41" x2="421.03" y2="58.43"/><line class="cls-4" x1="403.91" y1="46.14" x2="410.69" y2="55.41"/><line class="cls-4" x1="395.39" y1="55.41" x2="410.69" y2="55.41"/><line class="cls-4" x1="392.73" y1="69.2" x2="405.2" y2="66.4"/><line class="cls-4" x1="410.69" y1="56.11" x2="406.24" y2="65.84"/><line class="cls-4" x1="406.24" y1="65.84" x2="421.03" y2="60.97"/><line class="cls-4" x1="424.6" y1="59.54" x2="437.53" y2="58.66"/><line class="cls-4" x1="431.29" y1="48.11" x2="438.8" y2="58.28"/><line class="cls-4" x1="432.56" y1="44.46" x2="443.48" y2="36.6"/><line class="cls-4" x1="434.78" y1="32.09" x2="443.88" y2="35.97"/><line class="cls-4" x1="443.88" y1="35.97" x2="449.26" y2="45.27"/><line class="cls-4" x1="434.06" y1="74.4" x2="444.34" y2="70.19"/><line class="cls-4" x1="405.56" y1="66.08" x2="420.35" y2="72.05"/><line class="cls-4" x1="424.02" y1="61.5" x2="433.63" y2="74.4"/><line class="cls-4" x1="437.53" y1="58.66" x2="433.71" y2="73.69"/><line class="cls-4" x1="438.8" y1="58.28" x2="444.36" y2="70.4"/><line class="cls-4" x1="445.07" y1="70.19" x2="448.92" y2="62.36"/><line class="cls-4" x1="431.87" y1="46.4" x2="450.1" y2="47.07"/><line class="cls-4" x1="449.26" y1="46.27" x2="448.92" y2="60.52"/><line class="cls-4" x1="438.8" y1="58.28" x2="448.92" y2="60.52"/><line class="cls-4" x1="420.44" y1="72.53" x2="431.87" y2="74.4"/><line class="cls-4" x1="420.82" y1="72.05" x2="422.46" y2="61.9"/><line class="cls-4" x1="420.33" y1="72.66" x2="421.68" y2="87.18"/><line class="cls-4" x1="422" y1="87.82" x2="428.06" y2="86.26"/><line class="cls-4" x1="427.6" y1="85.64" x2="432.33" y2="75.06"/><line class="cls-4" x1="420.35" y1="72.05" x2="428.06" y2="86.26"/><line class="cls-4" x1="438.02" y1="57.53" x2="447.92" y2="48.11"/><path class="cls-3" d="M212.83,156.56c0,5.18-3.15,9.39-7,9.39s-7-4.21-7-9.39,3.15-9.4,7-9.4S212.83,151.37,212.83,156.56Z"/><path class="cls-3" d="M196.7,151.44l7,1.59a1,1,0,0,0,1,.7.85.85,0,0,0,.23,0l.88-.2.88.2.23,0a1,1,0,0,0,1-.7l7-1.59a1.08,1.08,0,0,0,.81-.88l1-6.31a1.07,1.07,0,0,0-.88-1.21,1.06,1.06,0,0,0-1.19.89l-.84,5.6-8,1.8-7.94-1.8-.84-5.6a1,1,0,1,0-2.07.32l.95,6.31A1.08,1.08,0,0,0,196.7,151.44Z"/><path class="cls-3" d="M193.4,156.41a1.06,1.06,0,0,0,1,.72l10.77.16h0a1,1,0,0,0,.63-.24,1,1,0,0,0,.64.24h0l10.77-.16a1.05,1.05,0,0,0,1-.72l1.91-5.67a1.07,1.07,0,0,0-.65-1.34,1.06,1.06,0,0,0-1.33.66l-1.67,5-10,.15a1.13,1.13,0,0,0-.62.24,1.1,1.1,0,0,0-.62-.24l-10-.15-1.66-5a1.06,1.06,0,0,0-1.33-.66,1.07,1.07,0,0,0-.65,1.34Z"/><path class="cls-3" d="M221.13,166.11,218,160a1,1,0,0,0-.83-.56l-10.77-1h-.08a1,1,0,0,0-.49.14,1,1,0,0,0-.48-.14l-10.85,1a1,1,0,0,0-.84.56l-3.16,6.16a1.06,1.06,0,0,0,.43,1.42,1.05,1.05,0,0,0,1.42-.44l2.9-5.64,10.2-.92a1.13,1.13,0,0,0,.38-.12,1.27,1.27,0,0,0,.39.12l10.2.92,2.9,5.64a1,1,0,0,0,.93.56,1,1,0,0,0,.48-.12A1.06,1.06,0,0,0,221.13,166.11Z"/><path class="cls-3" d="M213.35,164.76a1.06,1.06,0,0,0-.64-.48l-4.47-1.17a.47.47,0,0,0,0-.17,1.05,1.05,0,0,0-1.27-.77l-1.17.3-1.16-.3a1.06,1.06,0,0,0-1.28.77,1,1,0,0,0,0,.17l-4.47,1.17a1,1,0,0,0-.64.48c-1.4,2.41-3.1,5.38-3.26,5.88a1.06,1.06,0,0,0,.64,1.31,1,1,0,0,0,.35.06,1.07,1.07,0,0,0,1-.68c.1-.27,1.35-2.5,2.86-5.11l6-1.56,6,1.56c1.51,2.6,2.76,4.83,2.86,5.09a1.06,1.06,0,0,0,1,.72A1,1,0,0,0,216,172a1,1,0,0,0,.65-1.33C216.44,170.14,214.74,167.17,213.35,164.76Z"/><rect class="cls-3" x="204.79" y="123.14" width="2" height="23.95"/><rect class="cls-3" x="191.43" y="191.06" width="34.01" height="4.03"/><rect class="cls-3" x="191.43" y="181.34" width="34.01" height="4.03"/><rect class="cls-3" x="191.43" y="171.62" width="34.01" height="4.03"/><circle class="cls-3" cx="183.57" cy="173.83" r="3.02" transform="translate(-25.47 31.65) rotate(-9.22)"/><path class="cls-3" d="M183.57,186.57a3,3,0,1,0-3-3A3,3,0,0,0,183.57,186.57Z"/><circle class="cls-3" cx="183.57" cy="193.27" r="3.02" transform="translate(-22.43 24.11) rotate(-7.08)"/></g></g></svg>